<svg xmlns="http://www.w3.org/2000/svg" viewBox="0 0 750 500"><g id="freepik--background-complete--inject-95"><g><g id="freepik--xsrjP0--inject-95"><g><path d="M273.41,185.84c-2.28-1.43-4.26-3.51-7.32-3.22-1.17,.12-.91-.85-.92-1.49-.02-11.49-.01-22.96-.02-34.44,0-.84,.05-1.52,.96-1.98,8.77-4.42,12.57-13.12,17.94-20.56,5.74-7.93,7.72-16.53,6.36-26.05-.37-2.58,.84-3.74,3.17-4.27,2.8-.64,5.59,.14,6.55,2.06,2.36,4.78,4.39,9.74,5.01,15.05,.51,4.35-1.05,8.59-1.6,12.9-.4,3.15-1.13,6.27-1.73,9.46,.77,.56,1.66,.27,2.49,.28,9.7,.02,19.4,.01,29.1,.01,4.09,0,6.09,1.17,6.66,3.89,.7,3.38-1.09,6.82-4.22,8.41-.72,.37-2.04,.04-2.13,1.17-.09,1.16,1.26,1.04,1.93,1.51,3.51,2.41,2.86,7.38-1.2,10.25-.98,.69-2.87,.37-2.92,1.8-.02,1.14,1.75,1.13,2.55,1.93,2.83,2.8,1.43,8.03-2.81,10.14-.54,.27-1.22,.32-1.7,.66-.48,.32-.95,.69-.02,1.35,4.2,3,4.11,7.18-.12,10.22-.42,.3-.84,.61-1.26,.91-1.54,1.13-3.35,1.11-5.11,1.12-15.21,.03-30.42,.02-45.63,.01-1.43,0-2.87-.04-4-1.11Z" style="fill:#ebebeb; fill-rule:evenodd;"></path><path d="M230.16,165.6c0-7.29,.03-14.59-.03-21.88-.01-1.49,.14-2.21,1.96-2.19,8.9,.11,17.79,.11,26.69,0,1.75-.02,2.02,.58,2.01,2.13-.05,14.68-.06,29.36,0,44.04,.01,1.87-.5,2.4-2.37,2.36-8.63-.1-17.26-.12-25.88,.02-2.15,.03-2.44-.72-2.42-2.6,.11-7.29,.04-14.59,.04-21.89Z" style="fill:#ebebeb; fill-rule:evenodd;"></path></g></g><g id="freepik--xsrjP0-2--inject-95"><g><path d="M109.73,100.28c1.38-.87,2.59-2.13,4.44-1.96,.71,.07,.55-.52,.56-.9,0-6.98,0-13.94,.01-20.91,0-.51-.03-.92-.58-1.2-5.32-2.68-7.63-7.97-10.9-12.48-3.49-4.82-4.68-10.04-3.86-15.82,.22-1.57-.51-2.27-1.92-2.59-1.7-.39-3.4,.08-3.98,1.25-1.43,2.9-2.67,5.91-3.04,9.14-.31,2.64,.64,5.22,.97,7.83,.24,1.91,.69,3.81,1.05,5.74-.47,.34-1.01,.16-1.51,.17-5.89,0-11.78,0-17.67,0-2.48,0-3.7,.71-4.04,2.36-.42,2.05,.66,4.14,2.56,5.11,.44,.22,1.24,.02,1.29,.71,.05,.7-.77,.63-1.17,.91-2.13,1.46-1.74,4.48,.73,6.22,.59,.42,1.74,.22,1.77,1.09,.01,.69-1.06,.69-1.55,1.17-1.72,1.7-.87,4.88,1.71,6.16,.33,.16,.74,.19,1.03,.4,.29,.2,.58,.42,.01,.82-2.55,1.82-2.5,4.36,.07,6.21,.25,.18,.51,.37,.77,.55,.93,.68,2.04,.67,3.1,.68,9.24,.02,18.47,.01,27.71,0,.87,0,1.74-.03,2.43-.68Z" style="fill:#ebebeb; fill-rule:evenodd;"></path><path d="M135.99,87.98c0-4.43-.02-8.86,.02-13.29,0-.9-.09-1.34-1.19-1.33-5.41,.07-10.8,.06-16.2,0-1.06-.01-1.22,.35-1.22,1.3,.03,8.91,.04,17.83,0,26.74,0,1.13,.3,1.45,1.44,1.44,5.24-.06,10.48-.07,15.72,.01,1.3,.02,1.48-.44,1.47-1.58-.07-4.43-.03-8.86-.03-13.29Z" style="fill:#ebebeb; fill-rule:evenodd;"></path></g></g><g id="freepik--xsrjP0-3--inject-95"><g><path d="M640.27,134.99c-1.38,.87-2.59,2.13-4.44,1.96-.71-.07-.55,.52-.56,.9,0,6.98,0,13.94-.01,20.91,0,.51,.03,.92,.58,1.2,5.32,2.69,7.63,7.97,10.9,12.48,3.49,4.82,4.68,10.04,3.86,15.82-.22,1.57,.51,2.27,1.92,2.59,1.7,.39,3.4-.08,3.98-1.25,1.43-2.9,2.67-5.91,3.04-9.14,.31-2.64-.64-5.22-.97-7.83-.24-1.91-.69-3.81-1.05-5.74,.47-.34,1.01-.16,1.51-.17,5.89,0,11.78,0,17.67,0,2.48,0,3.7-.71,4.04-2.36,.42-2.05-.66-4.14-2.56-5.11-.44-.22-1.24-.02-1.29-.71-.05-.7,.77-.63,1.17-.91,2.13-1.46,1.74-4.48-.73-6.22-.59-.42-1.74-.22-1.77-1.09-.01-.69,1.06-.69,1.55-1.17,1.72-1.7,.87-4.88-1.71-6.16-.33-.16-.74-.19-1.03-.4-.29-.2-.58-.42-.01-.82,2.55-1.82,2.5-4.36-.07-6.21-.25-.18-.51-.37-.77-.55-.93-.68-2.04-.67-3.1-.68-9.24-.02-18.47-.01-27.71,0-.87,0-1.74,.03-2.43,.68Z" style="fill:#ebebeb; fill-rule:evenodd;"></path><path d="M614.01,147.28c0,4.43,.02,8.86-.02,13.29,0,.9,.09,1.34,1.19,1.33,5.41-.07,10.8-.06,16.2,0,1.06,.01,1.22-.35,1.22-1.3-.03-8.91-.04-17.83,0-26.74,0-1.13-.3-1.45-1.44-1.44-5.24,.06-10.48,.07-15.72-.01-1.3-.02-1.48,.44-1.47,1.58,.07,4.43,.03,8.86,.03,13.29Z" style="fill:#ebebeb; fill-rule:evenodd;"></path></g></g><g id="freepik--xsrjP0-4--inject-95"><g><path d="M451.08,57.68c2.28,1.43,4.26,3.51,7.32,3.22,1.17-.12,.91,.85,.92,1.49,.02,11.49,.01,22.96,.02,34.44,0,.84-.05,1.52-.96,1.98-8.77,4.42-12.57,13.12-17.94,20.56-5.74,7.93-7.72,16.53-6.36,26.05,.37,2.58-.84,3.74-3.17,4.27-2.8,.64-5.59-.14-6.55-2.06-2.36-4.78-4.39-9.74-5.01-15.05-.51-4.35,1.05-8.59,1.6-12.9,.4-3.15,1.13-6.27,1.73-9.46-.77-.56-1.66-.27-2.49-.28-9.7-.02-19.4-.01-29.1-.01-4.09,0-6.09-1.17-6.66-3.89-.7-3.38,1.09-6.82,4.22-8.41,.72-.37,2.04-.04,2.13-1.17,.09-1.16-1.26-1.04-1.93-1.51-3.51-2.41-2.86-7.38,1.2-10.25,.98-.69,2.87-.37,2.92-1.8,.02-1.14-1.75-1.13-2.55-1.93-2.83-2.8-1.43-8.03,2.81-10.14,.54-.27,1.22-.32,1.7-.66,.48-.32,.95-.69,.02-1.35-4.2-3-4.11-7.18,.12-10.22,.42-.3,.84-.61,1.26-.91,1.54-1.13,3.35-1.11,5.11-1.12,15.21-.03,30.42-.02,45.63-.01,1.43,0,2.87,.04,4,1.11Z" style="fill:#ebebeb; fill-rule:evenodd;"></path><path d="M494.32,77.93c0,7.29-.03,14.59,.03,21.88,.01,1.49-.14,2.21-1.96,2.19-8.9-.11-17.79-.11-26.69,0-1.75,.02-2.02-.58-2.01-2.13,.05-14.68,.06-29.36,0-44.04-.01-1.87,.5-2.4,2.37-2.36,8.63,.1,17.26,.12,25.88-.02,2.15-.03,2.44,.72,2.42,2.6-.11,7.29-.04,14.59-.04,21.89Z" style="fill:#ebebeb; fill-rule:evenodd;"></path></g></g></g></g><g id="freepik--Fast_food--inject-95"><g><g><g><path d="M627.81,151.1c36.7,7.67,14.22,34,42.84,83.25,24.92,42.88,58.14,39.01,43.64,74.31-13.34,32.48-63.65,15.21-90.95-39.67-21.58-43.38-44.79-121.77,4.47-117.89Z" style="fill:#FFC100;"></path><path d="M627.81,151.1c36.7,7.67,14.22,34,42.84,83.25,24.92,42.88,58.14,39.01,43.64,74.31-13.34,32.48-63.65,15.21-90.95-39.67-21.58-43.38-44.79-121.77,4.47-117.89Z" style="opacity:.5;"></path><path d="M623.34,268.99c27.3,54.88,77.61,72.15,90.95,39.67,5.4-13.16,4.18-20.87-.78-27.59-.04,3.69-1.03,7.99-3.19,13.27-12.07,29.4-57.62,13.77-82.33-35.91-19.22-38.65-39.88-107.99,1.97-106.83-.69-.17-1.4-.33-2.14-.49-49.26-3.88-26.05,74.5-4.47,117.89Z" style="opacity:.1;"></path></g><g><path d="M610.06,150.07c34.14,.13,7.79,44.61,41.56,93.51,27.61,39.99,55.14,37.16,51.23,58.25-6.31,34.04-66.86-.98-88.58-48.27-23.19-50.49-29.08-103.59-4.21-103.5Z" style="fill:#d8726a;"></path><path d="M614.27,253.57c21.72,47.28,82.27,82.31,88.58,48.27,.93-5,.09-8.66-2.11-11.87-5.98,31.1-61.6-1.14-81.58-44.62-20.57-44.77-26.36-91.77-6.33-95.16-.87-.08-1.79-.12-2.77-.12-24.88-.09-18.99,53.01,4.2,103.5Z" style="opacity:.1;"></path><g style="opacity:.3;"><path d="M695.67,305.15c1.03-.17,2.05,.02,3.08-.12-.31-.96-.57-1.94-.67-2.9-.05-.48,.64-.82,.87-.3,.4,.92,.66,1.92,.86,2.93,.09-.23,.17-.46,.25-.7,.57-1.82,.41-3.52,.45-5.38,0-.24,.37-.32,.47-.1,.74,1.69,.63,3.76,0,5.7,.51-.25,1-.54,1.49-.83,.37-.22,.84,.3,.56,.64-.72,.87-1.68,1.45-2.72,1.83-.07,.14-.14,.27-.22,.41,.09,.6,.18,1.2,.28,1.79,.04,.25-.34,.41-.43,.15-.12-.34-.26-.69-.39-1.04-.58,.86-1.25,1.61-1.97,2.17-.38,.29-.8-.21-.48-.55,.77-.82,1.44-1.65,1.98-2.57-1.17,.26-2.57,.35-3.57-.29-.33-.21-.23-.77,.16-.84Z"></path><path d="M609.95,151.87c.97-.61,2.43-.48,3.64-.2-.18-.19-.34-.39-.48-.61-.21-.33,.19-.66,.5-.58,.72,.19,1.29,.91,1.67,1.6,.82-.21,1.68-.29,2.44-.07,.25,.07,.18,.39-.03,.46-.39,.13-.77,.23-1.15,.33,.71,.43,1.35,.97,1.78,1.65,.18,.29-.22,.56-.47,.41-.68-.42-1.31-.86-1.97-1.25,.13,.58,.16,1.18,.1,1.78-.05,.47-.73,.43-.73-.04,0-.71-.16-1.4-.44-2.04-.25,.09-.49,.2-.74,.33-.58,.32-1.12,.71-1.62,1.15-.41,.37-.72,.85-1.24,1.05-.27,.1-.68-.06-.62-.41,.21-1.27,1.9-2.21,2.99-2.73-.5-.1-1.01-.16-1.51-.17-.65-.01-1.33,.14-1.97,.03-.36-.06-.46-.49-.14-.69Z"></path></g></g><g><path d="M589.38,158.46c27.78,9.96,4.42,43.52,38.9,97.4,26.74,41.78,72.86,45.44,61.24,71.93-16.51,37.65-70.68,7.35-107.31-52.24-27.86-45.31-44.93-123.79,7.17-117.09Z" style="fill:#FFC100;"></path><path d="M589.38,158.46c27.78,9.96,4.42,43.52,38.9,97.4,26.74,41.78,72.86,45.44,61.24,71.93-16.51,37.65-70.68,7.35-107.31-52.24-27.86-45.31-44.93-123.79,7.17-117.09Z" style="opacity:.4;"></path><path d="M582.21,275.55c36.63,59.59,90.8,89.89,107.31,52.24,3.67-8.37,1.58-14.46-3.85-20.2-.23,1.62-.74,3.33-1.54,5.15-15.29,34.9-65.35,6.85-99.19-48.35-20.33-33.16-34.42-85.51-15.69-102.98-26.15,14.91-10.38,76.16,12.96,114.13Z" style="opacity:.1;"></path><g style="opacity:.2;"><path d="M574.94,165.62c-7.21,4.9,1.36,24.23,12.54,17.22,10.63-6.66-3.4-23.44-12.54-17.22Z" style="fill:#fff;"></path><path d="M597.73,180.09c-4.35,1.18-5.33,13.91,1.27,12.41,6.27-1.42,4.25-13.91-1.27-12.41Z" style="fill:#fff;"></path></g></g><path d="M691.45,310.35c.13,.04,.06,.25-.07,.2-.13-.04-.06-.25,.07-.2Z" style="fill:#765420;"></path><path d="M600.02,170.24c4.19,1.9,8.38,1.86,12.71,.62,3.86-1.11,7.97-2.4,11.81-1.59,3.64,.76,6.99,3.24,7.85,7.35,.8,3.77-.55,7.77-2.98,10.88-2.53,3.26-5.86,5.2-9.42,6.46-3.13,1.11-7.01,1.86-9.72,3.75-1.25,.88-2.13,1.72-2.99,3.08-.52,.82-.92,2.28-.77,2.98,.04,.17,.09,.34,.15,.51-.04-.15,.28,.54,.3,.57,.05,.09,.08,.15,.1,.2,.04,.03,.1,.07,.17,.13,.19,.16,.38,.33,.58,.49-.03-.05,.55,.29,.59,.3,.25,.11,.51,.21,.78,.3,.08,.01,.41,.1,.5,.11,.41,.06,.82,.12,1.24,.14,.87,.05,2.6-.23,3.36-.53,1.75-.7,3.43-1.6,5.09-2.57,3.31-1.94,6.64-4.08,10.28-4.85,6.42-1.35,14.19,1.99,13.85,10.05-.18,4.43-2.77,8.47-6.03,11.24-3.17,2.68-6.96,3.93-10.49,5.73-1.39,.71-2.73,1.5-3.89,2.66-.89,.89-1.82,2.35-2.05,3.23,.02-.07-.11,.72-.15,.84,.02,.22,.06,.72,.04,.76,.06,.21,.19,.6,.15,.56,.1,.19,.22,.37,.35,.54-.27-.39,.28,.28,.36,.34-.01-.01,.25,.18,.4,.29,.18,.09,.48,.26,.46,.25,.11,.05,1,.33,.87,.32,.63,.13,1.28,.19,1.93,.2,.12,0,.21,0,.27,.01,.06-.01,.15-.03,.28-.05,.36-.06,.73-.1,1.09-.18,1.16-.24,2.2-.72,3.53-1.54,3.21-1.98,6.03-4.71,9.21-6.76,5.88-3.79,14.08-5.13,18.43,.68,2.23,2.98,2.31,7.41,.66,11.14-1.72,3.9-4.93,6.85-8.41,8.71-3.27,1.74-6.79,2.53-10.11,4.1-1.48,.7-2.83,1.53-4.05,2.86-.79,.87-1.58,2.19-1.74,3.17-.04,.25-.07,.36-.08,.4,0,.06,.01,.17,.02,.37,0,.06,.12,.66,.11,.71,.06,.19,.15,.45,.14,.48,.07,.14,.15,.27,.23,.4,.02,.03,.4,.52,.4,.55,.19,.19,.38,.37,.59,.54,.03,.03,.57,.38,.55,.38,.34,.17,.7,.31,1.04,.47,.1,.05,.17,.08,.22,.11,.05,0,.12,.02,.22,.03,.23,.04,.45,.08,.69,.11,1.01,.12,.76,.11,1.69-.03,1.6-.25,2.98-.85,4.51-1.71,6.52-3.65,11.77-10.68,19.24-12.15,3.49-.69,7.41-.09,9.91,2.44,2.72,2.75,3.24,7.01,1.85,11.07-1.37,4.01-4.4,6.98-7.8,8.91-3.24,1.84-6.94,2.53-10.22,3.66-1.32,.46-2.93,1.09-4.02,1.78-.55,.35-1.43,1.04-1.72,1.34-.29,.29-.51,.63-.77,.95-.11,.17-.17,.26-.2,.3-.08,.15-.16,.31-.24,.47-.11,.24-.2,.48-.3,.72-.04,.1-.07,.17-.1,.22,0,.06-.01,.14-.03,.25-.04,.29-.11,.57-.14,.86,.02-.01,.03,.68,.03,.72,0,.08,0,.14,0,.2,.02,.04,.05,.12,.09,.22,.04,.12,.07,.2,.09,.25,.02,.03,.05,.07,.08,.12l.08,.11s.14,.13,.26,.25c.18,.08,.73,.34,.68,.33,.82,.23,2.64-.18,3.9-.65,1.96-.72,3.87-1.71,5.79-2.6,4.09-1.89,8.2-3.7,12.31-5.55,3.54-1.59,7.41-3.63,11.16-3.25,3.2,.32,5.77,2.65,6.58,6.01,.76,3.13,.29,6.77-1.27,9.81-1.78,3.45-4.76,5.87-8.03,7.32-3.16,1.4-6.52,1.75-9.79,2.1-3.09,.33-3.41-4.56-.29-5.25,3.17-.7,6.48-1.48,9.42-3.25,1.05-.63,2.08-1.46,2.84-2.5,.65-.9,1-1.85,1.21-3.03,.12-.66,.14-.93,.13-1.25-.02-.91,.02-.8-.18-1.47-.01-.04-.26-.62-.22-.57-.07-.12-.14-.24-.22-.35-.04-.05-.06-.09-.08-.13-.04-.03-.09-.07-.17-.13-.08-.06-.14-.11-.18-.14-.13-.07-.27-.13-.41-.18-1.02-.32-2.27,.12-3.33,.57-1.89,.79-3.73,1.8-5.59,2.69-3.9,1.88-7.79,3.78-11.7,5.61-3.6,1.68-7.34,3.73-11.19,3.95-3.91,.22-7.57-1.77-8.67-5.95-.93-3.53,.05-7.53,2.09-10.72,4.52-7.09,12.54-7.13,18.94-10.17,1.13-.54,2.62-1.54,3.19-2.16,.24-.26,.45-.55,.66-.84,.06-.08,.34-.5,.37-.52,.17-.32,.31-.66,.47-.99,.16-.46,.2-.53,.11-.19,.07-.27,.14-.53,.19-.8,.07-.37,.1-.66,0-1.39,.07,.53-.24-.35-.09-.16-.12-.18-.39-.6-.32-.55-.76-.83-1.62-1.04-2.87-1.12-2.47-.15-5.27,1.38-7.81,3.27-2.96,2.19-5.69,4.77-8.72,6.82-6.05,4.09-13.84,6.35-19.11,1.09-2.47-2.47-3.81-6.18-2.95-10.13,.88-4.07,3.62-7.64,6.86-9.92,3.2-2.25,6.69-3.31,10.18-4.65,3.06-1.17,5.78-2.43,7.57-5.39,.46-.76,.83-1.94,.73-2.79-.01-.09-.02-.16-.02-.22-.01,0-.04-.08-.11-.38-.02-.07-.03-.12-.04-.17-.01-.02-.04-.05-.07-.1-.11-.19-.22-.37-.35-.54,.02,.06-.3-.24-.52-.43-.1-.05-.47-.3-.53-.32-.25-.12-.51-.22-.77-.3-.05-.02-.09-.03-.11-.04-.05,0-.11-.01-.17-.02-.35-.05-.69-.11-1.04-.13-.91-.07-.87-.05-1.63,.06-.24,.04-.49,.08-.73,.13-.13,.03-1.11,.31-.99,.25-3.02,1.1-5.6,3.48-8.22,5.52-3.01,2.34-6.14,4.52-9.66,5.49-6.39,1.75-14.32-1.35-14.25-9.36,.04-4.3,2.4-8.18,5.41-11.06,2.88-2.74,6.47-4.14,9.85-5.73,2.75-1.3,5.75-3.06,7-5.8,.31-.67,.42-.93,.48-1.52,.05-.56,.02-.82-.17-1.41-.03-.09-.05-.16-.07-.21-.03-.04-.08-.11-.14-.21-.03-.05-.45-.52-.4-.5-.11-.1-.23-.2-.34-.3-.15-.11-.23-.17-.25-.19-.13-.07-.26-.15-.4-.21-.93-.45-1.74-.64-3.1-.64,.13,0-.75,.06-.71,.05-.36,.04-.72,.11-1.09,.18-.75,.16-.92,.23-1.86,.64-3.33,1.45-6.37,3.7-9.63,5.36-5.89,2.99-14.3,3.45-17.67-2.95-3.82-7.28,2.2-15.62,8.73-18.83,3.24-1.59,6.68-2.26,9.97-3.67,1.53-.65,2.51-1.18,3.7-2.21,.98-.85,1.92-2.1,2.37-3.18,0,0,.2-.64,.24-.75,.05-.31,.16-.91,.13-.47,.05-.68,.05-.86-.2-1.47-.42-1.03-1.49-1.76-2.61-2.12-2.98-.97-6.93,.42-10.14,1.09-5.73,1.19-9.7,.3-12.12-1.88-4.62-4.16-3.28-6.31-.95-5.25Z" style="fill:#FFC100;"></path></g><g><path d="M536.83,329.19h-76.38c-3.61,0,0-115.35,0-128.22s22.09-46.16,22.09-53.44v-59.16h32.21v59.16c0,7.28,22.09,40.63,22.09,53.44s3.61,128.22,0,128.22Z" style="fill:#dbdbdb; opacity:.6;"></path><path d="M531.21,321.81h-65.13c-3.08,0,0-108.72,0-119.69s21.42-44.54,21.42-50.75v-27.13h22.28v27.13c0,6.21,21.42,39.83,21.42,50.75s3.08,119.69,0,119.69Z" style="fill:#FFC100; opacity:.8;"></path><g style="opacity:.1;"><path d="M527.65,241.66c-1.41-1.28-3.58-1.17-4.85,.23-1.28,1.4-1.17,3.58,.23,4.85,1.41,1.28,3.58,1.17,4.85-.23,1.28-1.41,1.17-3.58-.23-4.85Z"></path><path d="M508.37,163.64c-1.41-1.28-3.58-1.17-4.85,.23-1.28,1.41-1.17,3.58,.23,4.85,1.41,1.28,3.58,1.17,4.85-.23,1.28-1.4,1.17-3.58-.23-4.85Z"></path><path d="M528.1,229.73c-.99-.9-2.53-.83-3.43,.17-.9,.99-.83,2.53,.17,3.43,.99,.9,2.53,.83,3.43-.17,.9-.99,.83-2.53-.17-3.43Z"></path><path d="M493.46,307.59c-.99-.9-2.53-.83-3.43,.17-.9,.99-.83,2.53,.17,3.43,.99,.9,2.53,.83,3.43-.17,.9-.99,.83-2.53-.17-3.43Z"></path><path d="M477.13,206.98c-.99-.9-2.53-.83-3.43,.17-.9,.99-.83,2.53,.17,3.43,.99,.9,2.53,.83,3.43-.17,.9-.99,.83-2.53-.17-3.43Z"></path><path d="M516.5,243.56c-.7-.64-1.79-.59-2.43,.12-.64,.7-.59,1.79,.12,2.43,.7,.64,1.79,.59,2.43-.12,.64-.7,.59-1.79-.12-2.43Z"></path><path d="M486.56,302.02c-.7-.64-1.79-.59-2.43,.12-.64,.7-.59,1.79,.12,2.43,.7,.64,1.79,.59,2.43-.12,.64-.7,.59-1.79-.12-2.43Z"></path></g><rect x="479.79" y="80.48" width="37.69" height="7.88" style="fill:#dbdbdb; opacity:.6;"></rect><rect x="479.79" y="71.34" width="37.69" height="7.88" style="fill:#dbdbdb; opacity:.6;"></rect><ellipse cx="493.39" cy="256.41" rx="23.68" ry="37.55" style="fill:#fff;"></ellipse><rect x="482.53" y="101.67" width="32.23" height="15.14" style="fill:#455a64;"></rect><rect x="459.36" y="244.2" width="78.57" height="24.41" style="fill:#455a64;"></rect><path d="M536.83,329.19h-76.38s60.01-11.27,61.81-15.48c1.32-3.1-.4-121.5-.91-125.36-.5-3.87-14.81-29.92-15.97-35.83-1.17-5.92,0-64.16,0-64.16h9.37v59.16c0,7.29,22.08,40.63,22.08,53.45s3.62,128.23,0,128.23Z" style="opacity:.1;"></path></g><g><g><g><path d="M394.7,193.06s16.78,32.01,54.35,50.06c3.8,1.83-3.88,11.43-6.64,10.48-2.76-.95-44.24-29.38-55.25-54.66-1.06-2.43,7.55-5.88,7.55-5.88Z" style="fill:#FFC100;"></path><path d="M394.7,193.06s16.78,32.01,54.35,50.06c3.8,1.83-3.88,11.43-6.64,10.48-2.76-.95-44.24-29.38-55.25-54.66-1.06-2.43,7.55-5.88,7.55-5.88Z" style="opacity:.1;"></path></g><g><path d="M497.9,191.41s-23.39,27.55-26.06,69.14c-.27,4.21-12.05,.69-12.21-2.23-.15-2.92,10.67-52.02,29.99-71.71,1.85-1.89,8.28,4.8,8.28,4.8Z" style="fill:#FFC100;"></path><path d="M497.9,191.41s-23.39,27.55-26.06,69.14c-.27,4.21-12.05,.69-12.21-2.23-.15-2.92,10.67-52.02,29.99-71.71,1.85-1.89,8.28,4.8,8.28,4.8Z" style="opacity:.1;"></path></g><g><path d="M431.06,270.37s12.3-33.98,.28-73.89c-1.22-4.04,11.06-4.85,12.22-2.17,1.16,2.68,8.17,52.47-3.07,77.66-1.08,2.42-9.43-1.6-9.43-1.6Z" style="fill:#FFC100;"></path><path d="M431.06,270.37s12.3-33.98,.28-73.89c-1.22-4.04,11.06-4.85,12.22-2.17,1.16,2.68,8.17,52.47-3.07,77.66-1.08,2.42-9.43-1.6-9.43-1.6Z" style="opacity:.1;"></path></g><g><path d="M452.31,229.06s-.61-36.14-26.06-69.14c-2.57-3.34,8.6-8.47,10.64-6.38,2.04,2.09,26.32,46.12,24.8,73.66-.15,2.64-9.38,1.86-9.38,1.86Z" style="fill:#FFC100;"></path><path d="M452.31,229.06s-.61-36.14-26.06-69.14c-2.57-3.34,8.6-8.47,10.64-6.38,2.04,2.09,26.32,46.12,24.8,73.66-.15,2.64-9.38,1.86-9.38,1.86Z" style="opacity:.1;"></path></g><g><path d="M473.01,197.62s-19.58,30.38-16.76,71.97c.28,4.21-11.86,2.26-12.39-.61-.53-2.87,3.75-52.97,20.32-75.02,1.59-2.12,8.84,3.67,8.84,3.67Z" style="fill:#FFC100;"></path><path d="M473,197.62s-19.57,30.39-16.76,71.98c.29,4.19-11.86,2.25-12.38-.63-.03-.19-.04-.56-.05-1.08,3.51,1.46,9.85,1.7,9.66-1.29-2.7-39.96,16.1-69.16,16.1-69.16,0,0-2.96-2.36-5.43-3.44,.01-.02,.03-.03,.04-.06,1.6-2.12,8.83,3.67,8.83,3.67Z" style="opacity:.05;"></path></g><g><path d="M482.13,153.78s-27.75,23.15-37.47,63.68c-.98,4.1-11.99-1.38-11.65-4.28,.35-2.9,19.39-49.44,41.78-65.54,2.15-1.55,7.34,6.14,7.34,6.14Z" style="fill:#FFC100;"></path><path d="M482.13,153.77s-27.75,23.16-37.47,63.7c-.97,4.08-11.99-1.4-11.63-4.29,.02-.19,.13-.55,.27-1.05,2.91,2.44,8.89,4.56,9.6,1.65,9.35-38.95,36.01-61.2,36.01-61.2,0,0-2.12-3.14-4.16-4.9,.02-.02,.04-.02,.05-.04,2.16-1.55,7.33,6.13,7.33,6.13Z" style="opacity:.05;"></path></g><g><path d="M482.41,283.97s-14.48-33.11-5.07-73.72c.95-4.11-11.35-4.12-12.33-1.37-.99,2.75-4.75,52.89,8.1,77.3,1.23,2.34,9.31-2.21,9.31-2.21Z" style="fill:#FFC100;"></path><path d="M477.34,210.26c-9.42,40.6,5.07,73.71,5.07,73.71,0,0-8.08,4.56-9.32,2.22-.04-.08-.1-.18-.13-.26,2.72-.55,6.45-2.65,6.45-2.65,0,0-14.1-32.27-4.94-71.83,.67-2.91-5.48-3.71-9.26-2.9,1.83-2.4,13.05-2.22,12.13,1.71Z" style="opacity:.05;"></path></g><g><path d="M431.06,188.12s-30.14-19.94-44.29-59.15c-1.43-3.96-11.77,2.7-11.1,5.55,.67,2.85,24.74,46.99,48.78,60.51,2.31,1.3,6.61-6.91,6.61-6.91Z" style="fill:#FFC100;"></path><path d="M431.07,188.12s-4.31,8.21-6.62,6.92c-15.98-8.99-31.98-31.51-41.1-46.44,9.35,14.77,24.19,34.77,39.02,43.13,1.74,.98,4.58-3.38,5.89-5.63,1.79,1.35,2.81,2.03,2.81,2.03Z" style="opacity:.05;"></path></g><g><path d="M437.24,214.52s-2.53,36.05,19.97,71.14c2.27,3.55-9.3,7.69-11.16,5.43-1.85-2.26-22.23-48.23-18.32-75.53,.37-2.62,9.51-1.04,9.51-1.04Z" style="fill:#FFC100;"></path><path d="M437.24,214.52s-2.52,36.06,19.96,71.14c2.28,3.55-9.29,7.7-11.15,5.43-.09-.12-.23-.32-.39-.64,3.8-.23,10.09-3.23,8.39-5.88-21.88-34.11-19.43-69.15-19.43-69.15,0,0-3.92-.69-6.65-.38,1.47-1.87,9.28-.52,9.28-.52Z" style="opacity:.05;"></path></g><g><path d="M415.31,220.54s3.15,36,30.86,67.14c2.8,3.15-7.98,9.06-10.17,7.11-2.18-1.94-29.51-44.16-29.92-71.73-.04-2.65,9.23-2.52,9.23-2.52Z" style="fill:#FFC100;"></path><path d="M415.31,220.54s3.15,36.01,30.85,67.14c2.81,3.15-7.97,9.06-10.17,7.11-.11-.1-.28-.28-.49-.57,3.71-.82,9.46-4.77,7.36-7.12-26.95-30.26-30.01-65.26-30.01-65.26,0,0-3.98-.06-6.62,.67,1.16-2.07,9.08-1.97,9.08-1.97Z" style="opacity:.05;"></path></g><g><path d="M436.08,273.86s-15.44-32.68-7.21-73.54c.83-4.13-11.46-3.79-12.37-1.01-.91,2.78-3.21,53.01,10.34,77.03,1.3,2.31,9.24-2.48,9.24-2.48Z" style="fill:#FFC100;"></path><path d="M428.87,200.33c-8.23,40.85,7.21,73.54,7.21,73.54,0,0-1.68,1.02-3.61,1.89-2.03-4.63-14.5-35.31-6.93-72.93,.6-2.89-5.3-3.58-9.16-2.78,.03-.35,.08-.59,.13-.74,.91-2.77,13.2-3.12,12.37,1.01Z" style="opacity:.05;"></path></g><g><path d="M480.01,218.63s.65,36.13-23.65,70.01c-2.46,3.43,8.89,8.17,10.86,6.01,1.97-2.16,24.71-47.01,22.23-74.48-.24-2.64-9.44-1.53-9.44-1.53Z" style="fill:#FFC100;"></path><path d="M489.46,220.16c2.48,27.47-20.27,72.32-22.24,74.48-1.74,1.91-10.78-1.56-11.18-4.76,2.68,2.05,7.64,3.49,8.86,2.16,1.86-2.06,23.4-44.53,21.05-70.55-.14-1.51-3.41-1.72-5.96-1.65,.01-.79,0-1.21,0-1.21,0,0,9.21-1.1,9.45,1.54Z" style="opacity:.05;"></path></g><g><path d="M441.6,286.25s-5.04-35.79,14.95-72.36c2.02-3.7-9.82-7.02-11.51-4.64-1.69,2.39-18.8,49.67-13,76.63,.56,2.59,9.56,.37,9.56,.37Z" style="fill:#FFC100;"></path><path d="M432.04,285.88c-5.8-26.96,11.32-74.25,13-76.63,1.5-2.11,10.89,.23,11.67,3.36-2.91-1.71-8.01-2.53-9.06-1.06-1.6,2.27-17.8,47.05-12.3,72.59,.33,1.48,3.59,1.29,6.11,.91,.08,.78,.14,1.2,.14,1.2,0,0-9.01,2.21-9.57-.38Z" style="opacity:.05;"></path></g><g><path d="M469.8,168.53s3.96,35.92-17.12,71.88c-2.13,3.64,9.6,7.32,11.36,4.98,1.76-2.33,20.29-49.08,15.3-76.2-.48-2.6-9.54-.66-9.54-.66Z" style="fill:#FFC100;"></path><path d="M479.35,169.19c4.99,27.13-13.55,73.87-15.31,76.2-1.56,2.06-10.88-.56-11.57-3.72,2.85,1.79,7.93,2.77,9.02,1.33,1.66-2.22,19.21-46.49,14.49-72.19-.28-1.49-3.55-1.4-6.08-1.1-.06-.79-.1-1.21-.1-1.21,0,0,9.07-1.94,9.56,.67Z" style="opacity:.05;"></path></g><g><path d="M391.07,229.65s23.9,27.11,27.35,68.64c.35,4.2,12.06,.46,12.16-2.46,.1-2.92-11.64-51.82-31.32-71.13-1.89-1.85-8.19,4.95-8.19,4.95Z" style="fill:#FFC100;"></path><path d="M399.26,224.7c19.68,19.32,31.41,68.22,31.32,71.14-.09,2.58-9.22,5.8-11.6,3.62,3.37-.18,8.08-2.29,8.14-4.1,.08-2.77-11.03-49.08-29.68-67.38-1.09-1.06-3.71,.9-5.61,2.6-.5-.61-.78-.93-.78-.93,0,0,6.31-6.81,8.2-4.95Z" style="opacity:.05;"></path></g></g><g><polygon points="494.12 247.87 480.58 330.23 414.4 330.23 400.86 247.87 410.75 247.87 419.57 257.64 447.49 257.82 475.41 257.64 484.23 247.87 494.12 247.87" style="fill:#37474f;"></polygon><path d="M411.57,315.32c22.57,5.88,58.58-6.1,77.52-67.45h5.04l-13.54,82.36h-66.18l-2.83-14.91Z" style="opacity:.1;"></path></g></g><g><g><g><path d="M625.41,318.3c-11.67,9.27-39.91,10.16-72.89,10.06-32.96-.1-61.16-1.16-72.78-10.51-3.91-5.08-4.69-13.92-2.14-17.04,.03-.04,.05-.07,.09-.1,.12-.12,.24-.24,.37-.36,10.39-10.07,39.88-17.27,74.62-17.16,34.68,.11,64.08,7.46,74.46,17.57,.17,.16,.33,.33,.5,.49,.02,0,.03,.02,.04,.04,2.51,3.14,1.67,11.96-2.26,17.01Z" style="fill:#FFC100;"></path><path d="M625.41,318.3c-11.67,9.27-39.91,10.16-72.89,10.06-32.96-.1-61.16-1.16-72.78-10.51-3.91-5.08-4.69-13.92-2.14-17.04,.03-.04,.05-.07,.09-.1,.12-.12,.24-.24,.37-.36,10.39-10.07,39.88-17.27,74.62-17.16,34.68,.11,64.08,7.46,74.46,17.57,.17,.16,.33,.33,.5,.49,.02,0,.03,.02,.04,.04,2.51,3.14,1.67,11.96-2.26,17.01Z" style="opacity:.2;"></path></g><g><path d="M627.02,330.33c-1.09,.78-146.72,1.08-148.35-.55-4.53-4.53-3.62-25.83-1.07-28.95,.03-.04,.06-.07,.09-.1,.12-.12,.24-.24,.37-.36,.83-.71,1.91-.9,3.28-.38,7.03,2.66,35.16,15.19,71.24,15.31,36.1,.11,64.3-12.25,71.35-14.86,1.33-.5,2.4-.32,3.21,.34,.17,.16,.33,.33,.5,.49,.02,0,.02,.02,.03,.04,4.19,3.8,2.59,26.71-.65,29.04Z" style="fill:#FFC100;"></path><path d="M627.02,330.33c-1.09,.78-146.72,1.08-148.35-.55-4.53-4.53-3.62-25.83-1.07-28.95,.03-.04,.06-.07,.09-.1,.12-.12,.24-.24,.37-.36,.83-.71,1.91-.9,3.28-.38,7.03,2.66,35.16,15.19,71.24,15.31,36.1,.11,64.3-12.25,71.35-14.86,1.33-.5,2.4-.32,3.21,.34,.17,.16,.33,.33,.5,.49,.02,0,.02,.02,.03,.04,4.19,3.8,2.59,26.71-.65,29.04Z" style="opacity:.1;"></path><path d="M627.02,330.33c-1.09,.78-146.72,1.08-148.35-.55-1.89-1.89-2.83-6.68-3.1-11.86,18.26,13.12,92.79,12.39,120.57,4.65,19.57-5.45,28.45-15.34,32.01-20.72,3.59,5.06,1.99,26.25-1.12,28.49Z" style="opacity:.1;"></path></g><g><path d="M612.41,302.56c3.06-1.89,6.46-3.18,10-3.79-2.93,2.09-6.42,3.41-10,3.79h0Z" style="fill:#fff; opacity:.5;"></path><path d="M590.22,308.5c6.08-2.02,12.27-3.6,18.58-4.76-5.83,2.69-12.17,4.31-18.58,4.76h0Z" style="fill:#fff; opacity:.5;"></path><path d="M520.64,307.59c3.84,1.2,7.83,1.78,11.81,2.3,6.63,.85,13.32,1.27,20,1.39,7.89,.15,16.19-.19,24.05-.92l2-.16c1.92-.22,4.08-.47,6-.66-15.81,3.18-32.18,3.81-48.18,1.71-5.31-.76-10.69-1.64-15.69-3.66h0Z" style="fill:#fff; opacity:.5;"></path></g><g style="opacity:.1;"><path d="M605.21,298.58c-.99,1.32-3.58,2.62-9.71,3.68-9.44,1.62-23.18,3.67-41.77,3.66-18.6,0-32.89-2.06-42.75-3.7-9.87-1.63-11.49-3.82-11.76-5.79-.13-.97-.03-1.89,.68-2.64,.98-1.32,3.56-2.63,9.73-3.69,9.44-1.62,23.18-3.67,41.76-3.66,18.6,0,32.89,2.06,42.75,3.7,9.87,1.63,11.49,3.82,11.75,5.79,.13,.98,.03,1.9-.69,2.65Z"></path></g></g><g><path d="M622.19,298.51c-1.39,2.88-4.94,5.75-13.21,8.23-12.74,3.79-31.29,8.63-56.24,9.17-24.96,.55-44.04-3.43-57.19-6.68-13.16-3.22-15.24-7.88-15.5-12.13-.12-2.09,.06-4.07,1.05-5.71,1.37-2.89,4.91-5.77,13.24-8.26,12.74-3.79,31.29-8.63,56.23-9.17,24.96-.55,44.04,3.44,57.2,6.68,13.16,3.22,15.24,7.88,15.49,12.13,.12,2.11-.06,4.1-1.06,5.75Z" style="fill:#FFC100;"></path><g style="opacity:.5;"><path d="M622.19,298.51c-1.39,2.88-4.94,5.75-13.21,8.23-12.74,3.79-31.29,8.63-56.24,9.17-24.96,.55-44.04-3.43-57.19-6.68-13.16-3.22-15.24-7.88-15.5-12.13-.12-2.09,.06-4.07,1.05-5.71,1.37-2.89,4.91-5.77,13.24-8.26,12.74-3.79,31.29-8.63,56.23-9.17,24.96-.55,44.04,3.44,57.2,6.68,13.16,3.22,15.24,7.88,15.49,12.13,.12,2.11-.06,4.1-1.06,5.75Z"></path></g><g style="opacity:.1;"><path d="M603.88,288.39c-1,1.55-3.65,3.11-9.95,4.47-9.7,2.09-23.84,4.77-43.01,5.18-19.18,.41-33.95-1.64-44.14-3.32-10.2-1.67-11.92-4.16-12.22-6.43-.15-1.12-.06-2.18,.66-3.07,.98-1.55,3.63-3.12,9.97-4.49,9.7-2.09,23.84-4.77,43-5.18,19.18-.41,33.95,1.64,44.15,3.32,10.2,1.67,11.92,4.16,12.22,6.43,.15,1.13,.06,2.2-.67,3.09Z"></path></g><path d="M484.33,291.63c1.31,.48,2.76,.78,4.11,1.06,9.69,1.95,19.51,3.16,29.32,4.1,9.79,.89,19.68,1.46,29.52,1.37,18.27-.48,36.64-1.45,54.7-4.57,2.77-.51,5.54-1.08,8.26-1.87,2.67-.84,5.5-1.64,7.65-3.64-2.08,2.1-4.91,3.03-7.57,3.95-13.62,4.09-27.83,5.26-41.87,6.38-25.35,2.1-50.93,.54-75.9-4.6-2.75-.62-5.56-1.15-8.21-2.19h0Z" style="opacity:.2;"></path><g style="opacity:.2;"><path d="M495.44,286.49c7.92-3.28,16.12-5.76,24.47-7.39-7.92,3.28-16.12,5.75-24.47,7.39h0Z"></path><path d="M582.16,293.11c7.92-3.28,16.12-5.76,24.47-7.39-7.92,3.28-16.12,5.75-24.47,7.39h0Z"></path><path d="M496.92,290.75c14.92-5.39,30.09-9.97,45.43-13.72-14.92,5.39-30.09,9.97-45.43,13.72h0Z"></path><path d="M549.69,296c14.92-5.39,30.09-9.97,45.43-13.72-14.92,5.39-30.09,9.97-45.43,13.72h0Z"></path><path d="M527.66,294.86c17.69-6.22,35.62-11.65,53.74-16.23-17.69,6.23-35.62,11.64-53.74,16.23h0Z"></path><path d="M508.9,293.27c18.55-6.48,37.33-12.16,56.31-17-18.55,6.49-37.33,12.16-56.31,17h0Z"></path></g><g style="opacity:.5;"><path d="M542.67,310.67c24.55,.17,49.42-2.5,72.75-11.14-12.79,5.92-26.56,9.09-40.37,10.66-10.7,1.17-21.67,1.46-32.38,.48h0Z" style="fill:#fff;"></path><path d="M484.72,294.39c9.55,2.4,19.24,4.22,29.02,5.09,1.39,.17,2.8,.24,4.19,.39-11.24-.01-22.48-1.88-33.21-5.48h0Z" style="fill:#fff;"></path></g></g><g><path d="M627.82,295.37c-.74-1.59-18.58-12.55-37.6-16.34-16.87-3.36-34.16-6.19-39.86-6.09-5.2,.1-19.95,3.02-35.19,6.57-9,2.09-18.29,5.68-25.92,9.18,.34,.12,.57,.31,.67,.57,.32,.83-.89,2.06-2.7,2.74-1.8,.68-3.52,.56-3.84-.28-.03-.06-.04-.13-.04-.19-6.44,3.27-10.75,6.04-11.07,6.79-.63,1.48,22.67-.14,40.63,4.2,18.95,4.57,32.73,15.07,37.53,14.98,4.8-.09,20.46-11.18,39.22-16.47,1.36-.38,2.73-.73,4.12-1.05,.05-1.4,1.69-2.86,3.97-3.4,2.52-.6,4.86,.16,5.23,1.69,13.5-2,25.36-1.81,24.84-2.92Zm-119.75-4.04c-2,0-3.63-.95-3.64-2.13,0-1.19,1.62-2.16,3.62-2.16,2,0,3.63,.95,3.64,2.13,0,1.19-1.62,2.16-3.62,2.16Zm15.61-.78c-4.02,.76-7.57-.22-7.95-2.2-.38-1.98,2.57-4.21,6.59-4.97,4.01-.76,7.57,.22,7.95,2.2,.38,1.98-2.57,4.21-6.59,4.97Zm38.47,16.17c-.97,.18-1.85-.18-1.97-.81-.12-.64,.56-1.3,1.53-1.48,.97-.18,1.85,.18,1.97,.81,.12,.63-.56,1.29-1.53,1.48Zm29.37-22.78c-1.38-.3-2.36-1.2-2.18-2.01,.17-.81,1.43-1.24,2.81-.94,1.38,.29,2.36,1.19,2.18,2.01-.17,.81-1.43,1.24-2.81,.95Z" style="fill:#FFC100;"></path><path d="M627.82,295.37c-.74-1.59-18.58-12.55-37.6-16.34-16.87-3.36-34.16-6.19-39.86-6.09-5.2,.1-19.95,3.02-35.19,6.57-9,2.09-18.29,5.68-25.92,9.18,.34,.12,.57,.31,.67,.57,.32,.83-.89,2.06-2.7,2.74-1.8,.68-3.52,.56-3.84-.28-.03-.06-.04-.13-.04-.19-6.44,3.27-10.75,6.04-11.07,6.79-.63,1.48,22.67-.14,40.63,4.2,18.95,4.57,32.73,15.07,37.53,14.98,4.8-.09,20.46-11.18,39.22-16.47,1.36-.38,2.73-.73,4.12-1.05,.05-1.4,1.69-2.86,3.97-3.4,2.52-.6,4.86,.16,5.23,1.69,13.5-2,25.36-1.81,24.84-2.92Zm-119.75-4.04c-2,0-3.63-.95-3.64-2.13,0-1.19,1.62-2.16,3.62-2.16,2,0,3.63,.95,3.64,2.13,0,1.19-1.62,2.16-3.62,2.16Zm15.61-.78c-4.02,.76-7.57-.22-7.95-2.2-.38-1.98,2.57-4.21,6.59-4.97,4.01-.76,7.57,.22,7.95,2.2,.38,1.98-2.57,4.21-6.59,4.97Zm38.47,16.17c-.97,.18-1.85-.18-1.97-.81-.12-.64,.56-1.3,1.53-1.48,.97-.18,1.85,.18,1.97,.81,.12,.63-.56,1.29-1.53,1.48Zm29.37-22.78c-1.38-.3-2.36-1.2-2.18-2.01,.17-.81,1.43-1.24,2.81-.94,1.38,.29,2.36,1.19,2.18,2.01-.17,.81-1.43,1.24-2.81,.95Z" style="fill:#fff; opacity:.2;"></path><g><path d="M530.26,285.58c-.38-1.99-3.94-2.97-7.95-2.2-3.88,.74-6.75,2.84-6.61,4.77-.39-2.97,2.43-4.68,5.81-5.62,3.45-.96,8.36,.27,8.75,3.06Z" style="opacity:.1;"></path><path d="M511.69,289.17c0-1.18-1.64-2.14-3.64-2.13-2.01,0-3.63,.98-3.62,2.16,0,0-.44-2.57,3.75-2.83,4.18-.26,3.52,2.79,3.52,2.79Z" style="opacity:.1;"></path><path d="M563.62,305.08c-.22-.54-1.04-.83-1.92-.65-.97,.18-1.65,.84-1.53,1.48,0,0-.32-1.1,1.14-1.68,1.44-.57,2.26,.39,2.31,.86Z" style="opacity:.1;"></path><path d="M594.01,281.99c-.39-.45-1.06-.83-1.87-1-1.38-.3-2.64,.13-2.81,.94-.07,.33,.05,.67,.3,.99-.75-.7-.92-2.18,.88-2.54,1.83-.37,3.18,.64,3.5,1.62Z" style="opacity:.1;"></path></g><g style="opacity:.5;"><path d="M503.27,289.56c1.05,2.69,6.16,3.23,8.24,1.51,.34-.28,.68-.62,.76-1.08,.06,.49-.25,.93-.55,1.3-1.99,2.36-7.99,1.6-8.46-1.73h0Z" style="fill:#fff;"></path><path d="M515.14,289.19c2.21,3.89,12.77,2.72,15.09-.63,.48-.62,.8-1.39,.85-2.2,.09,.82-.18,1.66-.6,2.37-2.31,3.97-13.31,5.1-15.35,.46h0Z" style="fill:#fff;"></path><path d="M559.27,305.91c.43,.88,1.56,1.34,2.5,1.27,.74-.05,1.44-.42,2.06-.82,.22-.14,.42-.31,.65-.45-.15,.22-.33,.42-.5,.63-.59,.59-1.32,1.04-2.17,1.11-1.07,.09-2.4-.61-2.53-1.73h0Z" style="fill:#fff;"></path><path d="M588.12,281.6c-.05,1.57,1.5,2.65,2.9,2.96,1.36,.28,3.31,.52,4.04-.97-.06,.39-.3,.76-.62,1.01-2.15,1.49-6.87,.06-6.31-3h0Z" style="fill:#fff;"></path><path d="M475.92,297.53c12.74,.27,25.63,.34,38.16,2.95,7.46,1.84,14.46,5.16,21.5,8.14l7.01,3.09c2.68,1.05,5.33,2.55,8.15,2.98,2.05-.54,3.98-1.48,5.95-2.27l7.06-2.98c9.43-3.88,18.9-7.92,28.88-10.14-4.97,1.16-9.78,2.91-14.54,4.74-6.87,2.64-14.38,5.94-21.18,8.86-1.94,.78-3.83,1.71-5.86,2.27-.5,.16-1.06-.02-1.53-.14-2.48-.76-4.81-1.81-7.16-2.8-11.64-4.81-23.24-11.26-35.91-12.6-10.11-1.36-20.33-1.75-30.52-2.13h0Z" style="fill:#fff;"></path><path d="M604.15,296.72c6.7-1,13.51-1.8,20.29-1.5-6.76,.54-13.5,1.34-20.29,1.5h0Z" style="fill:#fff;"></path></g></g><g><path d="M622.19,283.87c-1.39,2.88-4.94,5.75-13.21,8.23-12.74,3.79-31.29,8.63-56.24,9.17-24.96,.55-44.04-3.43-57.19-6.68-13.16-3.22-15.24-7.88-15.5-12.13-.12-2.09,.06-4.07,1.05-5.71,1.37-2.89,4.91-5.77,13.24-8.26,12.74-3.79,31.29-8.63,56.23-9.17,24.96-.55,44.04,3.44,57.2,6.68,13.16,3.22,15.24,7.88,15.49,12.13,.12,2.11-.06,4.1-1.06,5.75Z" style="fill:#FFC100;"></path><g style="opacity:.5;"><path d="M622.19,283.87c-1.39,2.88-4.94,5.75-13.21,8.23-12.74,3.79-31.29,8.63-56.24,9.17-24.96,.55-44.04-3.43-57.19-6.68-13.16-3.22-15.24-7.88-15.5-12.13-.12-2.09,.06-4.07,1.05-5.71,1.37-2.89,4.91-5.77,13.24-8.26,12.74-3.79,31.29-8.63,56.23-9.17,24.96-.55,44.04,3.44,57.2,6.68,13.16,3.22,15.24,7.88,15.49,12.13,.12,2.11-.06,4.1-1.06,5.75Z"></path></g><g style="opacity:.1;"><path d="M603.88,273.75c-1,1.55-3.65,3.11-9.95,4.47-9.7,2.09-23.84,4.77-43.01,5.18-19.18,.41-33.95-1.64-44.14-3.32-10.2-1.67-11.92-4.16-12.22-6.43-.15-1.12-.06-2.18,.66-3.07,.98-1.55,3.63-3.12,9.97-4.49,9.7-2.09,23.84-4.77,43-5.18,19.18-.41,33.95,1.64,44.15,3.32,10.2,1.67,11.92,4.16,12.22,6.43,.15,1.13,.06,2.2-.67,3.09Z"></path></g><path d="M484.33,276.99c1.31,.48,2.76,.78,4.11,1.06,9.69,1.95,19.51,3.16,29.32,4.1,9.79,.89,19.68,1.46,29.52,1.37,18.27-.48,36.64-1.45,54.7-4.57,2.77-.51,5.54-1.08,8.26-1.87,2.67-.84,5.5-1.64,7.65-3.64-2.08,2.1-4.91,3.03-7.57,3.95-13.62,4.09-27.83,5.26-41.87,6.38-25.35,2.1-50.93,.54-75.9-4.6-2.75-.62-5.56-1.15-8.21-2.19h0Z" style="opacity:.2;"></path><g style="opacity:.2;"><path d="M495.44,271.85c7.92-3.28,16.12-5.76,24.47-7.39-7.92,3.28-16.12,5.75-24.47,7.39h0Z"></path><path d="M582.16,278.47c7.92-3.28,16.12-5.76,24.47-7.39-7.92,3.28-16.12,5.75-24.47,7.39h0Z"></path><path d="M496.92,276.11c14.92-5.39,30.09-9.97,45.43-13.72-14.92,5.39-30.09,9.97-45.43,13.72h0Z"></path><path d="M549.69,281.36c14.92-5.39,30.09-9.97,45.43-13.72-14.92,5.39-30.09,9.97-45.43,13.72h0Z"></path><path d="M527.66,280.22c17.69-6.22,35.62-11.65,53.74-16.23-17.69,6.23-35.62,11.64-53.74,16.23h0Z"></path><path d="M508.9,278.63c18.55-6.48,37.33-12.16,56.31-17-18.55,6.49-37.33,12.16-56.31,17h0Z"></path></g><g style="opacity:.5;"><path d="M542.67,296.03c24.55,.17,49.42-2.5,72.75-11.14-12.79,5.92-26.56,9.09-40.37,10.66-10.7,1.17-21.67,1.46-32.38,.48h0Z" style="fill:#fff;"></path><path d="M484.72,279.75c9.55,2.4,19.24,4.22,29.02,5.09,1.39,.17,2.8,.24,4.19,.39-11.24-.01-22.48-1.88-33.21-5.48h0Z" style="fill:#fff;"></path></g></g><g><path d="M591.25,259.16c-8.13-1.8-16.12-3.42-22.6-4.55,0,.04,.02,.09,.02,.14,.03,.56-.68,1.05-1.59,1.1-.91,.05-1.67-.37-1.7-.93-.01-.3,.18-.57,.5-.77-4.4-.72-7.87-1.15-9.9-1.17-2.1-.02-5.78,.39-10.43,1.07,.24,.33,.39,.71,.41,1.12,.08,1.5-1.56,2.81-3.65,2.91-2.1,.11-3.86-1.03-3.93-2.53,0-.12,0-.23,.02-.34-6.73,1.16-14.5,2.67-22.2,4.28-18.98,3.99-36.7,15.15-37.42,16.74-.67,1.46,20.37,.44,38.21,5.26,18.82,5.08,34.97,23.38,39.78,23.43,4.8,.04,18.09-18.01,36.99-22.78,17.91-4.52,41.22-3.16,40.58-4.64-.75-1.73-22.73-13.85-43.09-18.35Zm-76.3,5.26c-1.38,.3-2.64-.11-2.82-.92-.18-.81,.79-1.73,2.17-2.03,1.38-.31,2.64,.1,2.82,.91,.18,.81-.79,1.73-2.17,2.04Zm31.64,22.82c-.11,.64-.99,1-1.96,.83-.97-.17-1.66-.83-1.55-1.46,.11-.63,.99-1,1.96-.83,.96,.18,1.65,.83,1.55,1.46Zm23.92,2.8c-2.62,1.19-5.41,.66-6.25-1.17-.83-1.83,.61-4.29,3.24-5.48,2.62-1.19,5.41-.66,6.25,1.18,.83,1.83-.61,4.28-3.24,5.47Zm7.78-8.7c-2,.01-3.63-.94-3.64-2.13,0-1.18,1.61-2.16,3.61-2.17,2-.01,3.63,.94,3.64,2.13,0,1.18-1.61,2.16-3.61,2.17Zm16.97-14.72c-2.01,.01-3.64-.94-3.65-2.13,0-1.18,1.61-2.16,3.61-2.17,2.01-.01,3.64,.94,3.65,2.12,0,1.19-1.61,2.16-3.61,2.18Zm26.14,6.31c-.11,.64-.99,1.01-1.96,.83-.97-.17-1.66-.83-1.55-1.45,.11-.64,.99-1.01,1.96-.83,.97,.17,1.66,.83,1.55,1.45Z" style="fill:#FFC100;"></path><path d="M591.25,259.16c-8.13-1.8-16.12-3.42-22.6-4.55,0,.04,.02,.09,.02,.14,.03,.56-.68,1.05-1.59,1.1-.91,.05-1.67-.37-1.7-.93-.01-.3,.18-.57,.5-.77-4.4-.72-7.87-1.15-9.9-1.17-2.1-.02-5.78,.39-10.43,1.07,.24,.33,.39,.71,.41,1.12,.08,1.5-1.56,2.81-3.65,2.91-2.1,.11-3.86-1.03-3.93-2.53,0-.12,0-.23,.02-.34-6.73,1.16-14.5,2.67-22.2,4.28-18.98,3.99-36.7,15.15-37.42,16.74-.67,1.46,20.37,.44,38.21,5.26,18.82,5.08,34.97,23.38,39.78,23.43,4.8,.04,18.09-18.01,36.99-22.78,17.91-4.52,41.22-3.16,40.58-4.64-.75-1.73-22.73-13.85-43.09-18.35Zm-76.3,5.26c-1.38,.3-2.64-.11-2.82-.92-.18-.81,.79-1.73,2.17-2.03,1.38-.31,2.64,.1,2.82,.91,.18,.81-.79,1.73-2.17,2.04Zm31.64,22.82c-.11,.64-.99,1-1.96,.83-.97-.17-1.66-.83-1.55-1.46,.11-.63,.99-1,1.96-.83,.96,.18,1.65,.83,1.55,1.46Zm23.92,2.8c-2.62,1.19-5.41,.66-6.25-1.17-.83-1.83,.61-4.29,3.24-5.48,2.62-1.19,5.41-.66,6.25,1.18,.83,1.83-.61,4.28-3.24,5.47Zm7.78-8.7c-2,.01-3.63-.94-3.64-2.13,0-1.18,1.61-2.16,3.61-2.17,2-.01,3.63,.94,3.64,2.13,0,1.18-1.61,2.16-3.61,2.17Zm16.97-14.72c-2.01,.01-3.64-.94-3.65-2.13,0-1.18,1.61-2.16,3.61-2.17,2.01-.01,3.64,.94,3.65,2.12,0,1.19-1.61,2.16-3.61,2.18Zm26.14,6.31c-.11,.64-.99,1.01-1.96,.83-.97-.17-1.66-.83-1.55-1.45,.11-.64,.99-1.01,1.96-.83,.97,.17,1.66,.83,1.55,1.45Z" style="fill:#fff; opacity:.2;"></path><g><path d="M517.06,262.23c-.3-.71-1.48-1.05-2.77-.76-1.38,.3-2.35,1.22-2.17,2.03-.46-1.04,.41-2.02,1.94-2.47,1.52-.44,2.73,.12,3,1.2Z" style="opacity:.1;"></path><path d="M546.59,287.24c.11-.63-.58-1.28-1.55-1.46-.97-.17-1.84,.2-1.96,.83-.12-1.58,1.33-1.65,2.39-1.32,1.05,.34,1.26,1.48,1.12,1.94Z" style="opacity:.1;"></path><path d="M572.87,283.5c-1.25-.93-3.37-1.03-5.37-.12-2.62,1.19-4.07,3.64-3.24,5.48,.03,.06,.06,.12,.09,.19-1.07-1.53-2.13-4.4,2.02-6.59,3.06-1.61,5.33-.11,6.5,1.04Z" style="opacity:.1;"></path><path d="M581.81,278.68c-.37-.95-1.82-1.66-3.54-1.65-2.01,.01-3.62,.99-3.61,2.17,0,.08,0,.16,.03,.24-.44-1.33,.22-2.74,2.74-2.99,2.58-.25,4.41,1.19,4.39,2.23Z" style="opacity:.1;"></path><path d="M598.56,263.58c-.57-.75-1.85-1.26-3.33-1.25-2,.01-3.62,.99-3.61,2.17,0,.38,.17,.74,.47,1.05-1.09-.91-1.64-2.75,.85-3.53,2.48-.77,5.04,.02,5.63,1.57Z" style="opacity:.1;"></path><path d="M621.21,272.22c-.26-.35-.76-.65-1.36-.75-.97-.18-1.84,.2-1.96,.83-.03,.19,0,.39,.11,.57-.51-.73-.44-1.49,.68-1.87,1.22-.43,2.34,.52,2.53,1.22Z" style="opacity:.1;"></path></g><g style="opacity:.5;"><path d="M483.64,275.33c6.74-.27,13.49,.27,20.19,1.04,9.95,1.37,20.29,3.19,28.87,8.76,5.74,3.58,10.96,7.89,16.22,12.11,1.97,1.56,3.91,3.18,6.07,4.46,.65,.33,1.37,.84,2.09,.53,2.49-1.36,5.68-4.31,7.97-6.06,2.63-2.11,5.31-4.17,8.08-6.11,13.64-9.65,21.72-10.86,37.97-12.27,4.89-.4,10.24-.59,15.16-.71l2.53-.06,1.26-.04c.42-.03,.85,0,1.25-.12-.66,.19-1.8,.14-2.51,.2l-2.53,.1c-4.94,.21-10.25,.47-15.13,.94-16.17,1.51-24.16,2.71-37.69,12.4-2.75,1.94-5.4,4.01-8.02,6.13-2.38,1.83-5.45,4.76-8.08,6.19-.42,.21-1.02,.18-1.45,0-1.23-.46-2.27-1.25-3.32-1.99-1.37-1.01-2.68-2.06-3.99-3.12-5.22-4.25-10.41-8.57-16.11-12.16-8.51-5.59-18.75-7.42-28.66-8.86-6.67-.87-13.41-1.51-20.15-1.34h0Z" style="fill:#fff;"></path><path d="M542.43,286.63c.44,.91,1.12,1.65,2.17,1.72,.89,.08,2.17,.15,2.52-.89,.04,.26-.08,.54-.26,.76-.97,.93-2.88,.84-3.8-.13-.39-.42-.55-.95-.63-1.46h0Z" style="fill:#fff;"></path><path d="M563.98,290.06c3.33,2.52,8.75,.95,10.31-2.9,.24-.54,.39-1.12,.46-1.71,.23,5.24-7.13,8.3-10.77,4.61h0Z" style="fill:#fff;"></path><path d="M574.28,280.56c2.04,2,7.43,1.93,8.48-1.1-.02,.43-.19,.84-.43,1.2-1.85,2.31-6.29,2.32-8.04-.1h0Z" style="fill:#fff;"></path><path d="M511.15,264.05c1.55,2.16,7.08,1.27,7-1.77,.75,3.47-5.74,4.66-7,1.77h0Z" style="fill:#fff;"></path><path d="M537.54,256.37c.88,1.86,3.17,2.89,5.17,2.68,2-.17,4.24-1.4,4.2-3.68,.11,.53,.03,1.08-.15,1.6-1.15,2.58-4.9,3.25-7.18,1.84-.88-.57-1.81-1.37-2.03-2.44h0Z" style="fill:#fff;"></path><path d="M590.09,264.12c.71,2.89,4.23,3.52,6.78,3.12,1.04-.15,2.21-.46,2.79-1.39,.3-.45,.39-1.02,.31-1.58,.19,.53,.15,1.15-.11,1.69-.89,1.61-3,1.83-4.64,1.85-2.2,.04-4.97-1.24-5.13-3.69h0Z" style="fill:#fff;"></path><path d="M617.13,272.92c1.04,1.64,3.8,2.17,5.15,.63-.87,2.17-4.69,1.56-5.15-.63h0Z" style="fill:#fff;"></path></g></g><g><path d="M545.67,245.9c-3.04-2.05-5.74-2.59-7.45-2.13-1.72,.47-2.07,2.54-3.28,3.15-1.21,.61-5.42,2.45-7.08,2.21-1.66-.24-5.44-.56-7.45-.66-2.02-.1-1.61,.04-5.35,1.31-3.75,1.27-12.6,3.65-14.77,3.28-2.17-.38-6.57-1.98-8.12-1.62-1.55,.36-1.19,3.15-3.15,3.82-1.96,.67-4.11-.57-7.98,1.53-3.87,2.1-3.14,2.89-4.04,4.6-.9,1.71-1.25,1.39-3.28,4.15-2.03,2.77,1.29,8.04,1.77,9.04,.48,1,3.19,3.67,4.68,3.48,1.48-.19,.83-2.55,4.79-2.26,3.96,.29,.3,3.97,3.68,5.67s3.85,2.16,5.05,1.48c1.2-.68,.97-2.34,3.53-1.88,2.56,.46,1.19,1.72,3.73,2.03,2.53,.31,2.36,.89,4.98,.64,2.62-.24,1.14,2.89,4.09,2.89,2.95,0,5.06-.38,6.43-1.17,1.37-.79,2.74-.11,2.99,.69,.25,.8-1.47,2.67,.61,3.6s-1.25,.92,4.33,1.69,8.35,.88,9.82-1.32c1.47-2.2,2.52-4.63,4.64-4.94,2.13-.31,1.73,6.41,7.84,5.54,6.11-.88,7.66-4.1,9.88-4.43,2.22-.33,.82,6.12,6.01,5.41,5.19-.71,5.24-5.28,7.78-5.9,2.54-.62,1,5.08,8.51,4.1,7.51-.98,4.99-4.62,8.62-5.98,3.63-1.36,6.85,2.91,12.87,2.09,6.02-.81,4.99-3.18,7.85-3.62,2.86-.44,4.5,2.58,5.67,3.69,1.17,1.1,1.52,2.89,4.06,1.81s1.52-5.84,3.15-7.69c1.64-1.84,2.71-.72,4.32-2.72s4.61-2.69,3.53-5.28c-1.08-2.59-5.24-2.45-5.89-5.81-.66-3.36,3.16-3.98,3.24-8.09,.08-4.11-3.24-3.59-5.9-5.5-2.66-1.91-5.25,1.34-7.25-1.54-1.99-2.89-.13-3.07-3.99-4.84-3.87-1.77-7.65,2.24-11.05,1.39-3.4-.85-9.01-4.7-11.8-5.36-2.79-.65-3.78,2.54-5.46,2.69-1.68,.15-5.65-2.14-9.11-1.36-3.46,.78-3.58,2.12-5.97,2.55-2.39,.43-6.49-.13-8.48-.55-1.98-.41-3.24,.43-5.66,.72-2.42,.28-4.74,.17-5.92-.62Z" style="fill:#455a64;"></path><g style="opacity:.1;"><path d="M571.89,282.31c1.85,1.86,2.68,3.33,4.24,3.52s8.95-.6,6.84-2.67-7.84-22.18-9.68-23.45c-1.84-1.28-2.62,21.38-1.4,22.6Z" style="fill:#fff;"></path><path d="M595.08,283.21c1.89,.88,8.79-.06,9.65-2.03s-6.25-4.01-8.6-6.2-7.45-10.22-8.87-10.46c-1.42-.24-2.32,.2-3.36,1.61-1.04,1.41-.14,4.46,.08,6.23,.22,1.77,2.96,6.98,3.78,7.57,.82,.59,5.51,2.44,7.32,3.28Z" style="fill:#fff;"></path><path d="M479.22,274.86c-1.01-.35-4.1-5.43-3.9-7.18,.2-1.74,8.97-3.12,11.72-3.45,2.74-.33,15.83-3.18,18.62-3.76,2.79-.59,12.15-1.1,11.17-.1-.98,1-4.47,2.65-8.1,3.28-3.63,.62-8.1,3.8-12.02,5.08-3.91,1.28-15.49,6.82-17.49,6.14Z" style="fill:#fff;"></path><path d="M522.1,287.98c1.7,.63,5.84,1.43,7.18,1.4,1.34-.03,4.05-1.2,5.4-3.03,1.35-1.83,5.9-6.49,7.4-8.56,1.5-2.06,3.9-11.87,3.9-11.87,0,0-3.81,3.81-5.89,4.91-2.08,1.11-5.97,4.22-7.78,5.22-1.81,1-6.48,.92-9.31,.73-2.84-.18-3.3,1.4-7.35,1.88s-8.5,2.3-9.39,2.77c-.89,.47,1.82,.18,2.25,.99,.43,.81,.72,2.06,2,2.19,1.27,.13,4.19-.15,5.95-.94,1.76-.79,4.36-.17,5.11,.15,.74,.31-1.03,3.58,.54,4.16Z" style="fill:#fff;"></path><path d="M512.27,252.64c.91-.42,5.71-3.08,7.43-3.08,1.72,0,6.64,1.08,9.98,1.57,3.35,.49,11.25,1.74,12.8,2.28,1.55,.54,7.22,2.54,6.37,3.35-.85,.81-4.46,.57-6.37,.28s-5.58-.27-10.94-.19-11.99,1.03-14.7,.25c-2.71-.77-8.13-.82-7.52-1.84,.61-1.02,2.94-2.62,2.94-2.62Z" style="fill:#fff;"></path><path d="M567.37,285.82c-1.67,.62-1.29,2.33-3.07,2.75-1.78,.41-2.95,.68-3.81-.52s-1.9-4.28-3.36-4.14c-1.47,.14-3.84,.95-5.29,1.7-1.46,.75-2.77,2.73-4.45,1.95-1.69-.78-2.8-1.15-3.46-1.94-.67-.78-1.37-1.82-.44-3.38,.93-1.56,4.27-2.37,5.29-4.13,1.02-1.76,3.42-6.65,3.49-8.35,.06-1.7,4.69-2.85,5.58-4.51,.9-1.66,4.59-3.39,5.16-3.22,.57,.18,1.17,2.04,1.73,3.35,.56,1.31,2.41,4.3,2.77,5.64,.36,1.35-.01,7.73,.82,9.75,.83,2.02,.44,4.54-.94,5.05Z" style="fill:#fff;"></path><path d="M555.56,247.77c2.16-1.53,4.26,1.09,6.59,.96,2.33-.13,5.26-1.67,6.93-1.84,1.67-.17,3,1.41,3.18,2.27,.18,.85-1.85,3.22-2.03,4.04-.17,.82-.03,6.47-1.27,6.62s-1.93-1.5-3.82-1.8c-1.89-.3-4.57,1.7-6.37,2.65-1.8,.94-2.84,2.71-3.34,1.58-.5-1.13,1.62-6.35,1.59-7.23-.03-.87,.38-1.25-.92-3.02-1.31-1.77-1.11-3.83-.55-4.24Z" style="fill:#fff;"></path><path d="M615.39,283.99c1.33-.43,2.98-4.51,3.6-5.37,.63-.86,2.17-1.4,3.49-2.14,1.31-.74,4.18-.93,3.9-2.57-.28-1.63-5.99-2.69-6.19-6.24s1.24-5.96,2.12-6.94c.88-.98,4.54-.28,1.95-3.09-2.58-2.81-2.99-4.39-5.39-3.73s-1.99,2.25-5.79,2.49-4.9,.59-8.97,.82c-4.07,.22-6.53,.97-9.07,2.13-2.54,1.16-4.95,2.03-3.51,3.14s8.3,1.5,11.6,1.14c3.3-.36,8.16-.73,8.79,.5,.63,1.23-1.62,4.64-4.49,3.22-2.87-1.42-2.42-1.8-6.21-1.62-3.79,.18-5.81-.3-5.83,.54-.02,.85-1.93,1.25,.27,2.06,2.19,.81,5.26,2.97,6.39,3.76,1.13,.79,4.42,2.89,4,3.26-.42,.37,8.46,8.9,9.32,8.62Z" style="fill:#fff;"></path><path d="M608.68,252.98c.77-1.38,1.48-4.15-1.31-4.43-2.79-.29-11.74,3.74-15,3.77-3.26,.03-1.42-.02-6.95-.23-5.53-.21-8.24,.03-9.07,.78s-1.38,3.01-.09,4.31c1.29,1.3,1.12,5.73,3.57,4.35,2.44-1.38,4.44-3.59,7.47-4.58s5.78-1.35,8.84-.94c3.05,.41,12.06-2.15,12.55-3.03Z" style="fill:#fff;"></path></g><g><path d="M603.22,284.52c1.45-.5,2.17-1.88,3.5-2.58,.68-.33,1.39-.52,2.16-.57,2.36-.1,4.05,1.97,5.41,3.57,1.48,1.83,3.1,3.38,3.94,.06,1.03-4.57,.38-5.72,5.34-7.47,.33-.14,.66-.27,.87-.51,.56-.54,1.18-.88,1.77-1.32,.56-.44,1.23-.83,1.52-1.5-.57,1.33-2.16,1.98-3.07,3-.45,.54-1.36,.77-1.96,1.06-.66,.29-1.29,.62-1.85,1.04-1.8,1.22-1.48,3.9-2.07,5.83-.34,1.79-1.67,3.3-3.39,1.78-2.07-1.82-3.45-5.06-6.5-5.18-.68,.02-1.41,.18-2.04,.46-1.29,.58-2.18,1.97-3.62,2.32h0Z" style="fill:#fff; opacity:.5;"></path><path d="M587.92,282.49c2.29-.39,4.56,.57,6.71,1.2,2.16,.68,4.32,1.36,6.61,1.29-2.26,.54-4.63-.06-6.79-.73-1.9-.59-4.53-1.75-6.54-1.76h0Z" style="fill:#fff; opacity:.5;"></path><path d="M568.64,285.88c1.26-1.24,3.76-1.88,4.85-.08,.53,.75,.85,1.6,1.5,2.06,.62,.44,1.54,.48,2.38,.47,1.7-.04,3.48-.4,5-1.17,.76-.35,1.09-1.22,1.58-1.96,.48-.75,1.05-1.49,1.83-1.94-.69,.56-1.19,1.3-1.58,2.08-.32,.59-.58,1.24-1.03,1.76-.85,.81-2.01,1.15-3.09,1.45-1.75,.35-3.8,.76-5.41-.25-.79-.64-1.1-1.54-1.54-2.26-.93-1.7-3.16-1.1-4.47-.17h0Z" style="fill:#fff; opacity:.5;"></path><path d="M549.2,288.98c1.94-1.15,7.5-5.84,9.33-2.9,.84,1.49,.6,3.53,1.96,4.67,1.56,.99,3.32-.31,4.48-1.38,.73-.66,1.4-1.39,2.11-2.08-1.38,1.4-2.59,3.11-4.49,3.84-2.61,.88-3.38-1.54-3.84-3.54-.44-1.71-1.09-2.54-2.91-1.8-2.31,.83-4.25,2.4-6.63,3.19h0Z" style="fill:#fff; opacity:.5;"></path><path d="M509.43,283.71c.23,1.04,1.38,1.43,2.33,1.4,2.75-.05,5.44-1.74,8.2-.91,.37,.11,.9,.42,.93,.89,.13,.94-.23,2.22-.21,3.16,.04,.06,.39,.24,.61,.35,.9,.42,1.6,1.09,2.62,1.36,2.28,.68,4.88,1.17,7.18,.41,2.94-1.06,3.71-4.7,6.48-6.04,2.7-.9,3.74,.55,4.85,2.68,1.13,1.58,3.09,2.64,5.1,2.5-2.02,.27-4.09-.74-5.33-2.33-1.13-1.93-1.96-3.33-4.45-2.43-2.6,1.43-3.46,5.08-6.45,6.14-2.47,.86-5.14,.32-7.56-.42-.96-.25-1.77-.96-2.68-1.41-.24-.14-.57-.25-.8-.52-.15-.26-.08-.56-.06-.83l.2-1.49c.02-.39,.17-.99-.04-1.29-.63-.58-1.82-.61-2.67-.57-2.19,.07-7.4,2.4-8.26-.66h0Z" style="fill:#fff; opacity:.5;"></path><path d="M479.59,276.67c.64-.3,1.15-.8,1.77-1.16,1.2-.82,2.75-.92,4.16-.73,.71,.1,1.41,.21,2.11,.54,.17,.07,.39,.29,.46,.48,.41,1.13,.21,2.53,.77,3.56,.81,1.19,2.1,2.29,3.45,2.84,.16,0,.09,.06,.24-.06,.78-.68,1.44-1.54,2.32-2.17,1.2-.93,2.9-.58,4.29-.35,.56,.15,1.14,.19,1.58,.65,.31,.47-.05,1.13,.38,1.46,1.48,.78,3.34,1.08,5.03,.99-1.4,.26-2.85,.02-4.21-.32-.33-.09-.72-.16-1.04-.42-.53-.37-.26-1.04-.48-1.49-.34-.27-.91-.34-1.35-.43-1.28-.13-2.79-.51-3.89,.34-.89,.64-1.53,1.59-2.41,2.29-.08,.06-.3,.12-.42,.1-.99-.18-1.77-.91-2.51-1.51-.54-.48-1.05-.99-1.45-1.66-.61-1.19-.4-2.44-.74-3.64-.06-.14-.09-.18-.24-.27-1.19-.57-2.68-.75-4.02-.67-1.45,.03-2.54,1.09-3.8,1.63h0Z" style="fill:#fff; opacity:.5;"></path><path d="M505.65,278.28c2.99-1.29,5.99-2.6,9.15-3.45,1.9-.61,3.92-.06,5.87-.17,1.91-.02,3.89-.04,5.76-.43,1.83-.56,3.52-1.58,5.18-2.55,1.12-.65,2.22-1.35,3.32-2.05-2.61,1.93-5.26,3.98-8.36,5.08-3.21,.65-6.54,.61-9.78,.31-3.8,.41-7.46,2.11-11.13,3.24h0Z" style="fill:#fff; opacity:.5;"></path><path d="M595.84,271.92c1.83,1.59,3.76,2.86,6,3.81,1.89,.98,3.68,2.1,5.27,3.51,.22,.2,.46,.41,.58,.69-.17-.24-.44-.4-.68-.57-1.75-1.11-3.59-2.16-5.43-3.1-2.21-.94-4.26-2.43-5.74-4.34h0Z" style="fill:#fff; opacity:.5;"></path><path d="M622.73,263.07c-.62,.68-.78,1.58-.77,2.43,.04,1.75,.67,3.42,2.28,4.3,.74,.48,1.53,.91,2.34,1.32-1.73-.44-3.8-1.13-4.6-2.88-.7-1.63-.85-4.05,.75-5.18h0Z" style="fill:#fff; opacity:.5;"></path></g><path d="M545.43,250.34c-2.1-1.21-3.99-1.5-5.2-1.18-1.21,.32-1.5,1.6-2.36,1.99s-3.85,1.6-5.01,1.48-3.81-.25-5.23-.28c-1.42-.03-1.13,.05-3.79,.9s-8.92,2.47-10.43,2.27c-1.52-.2-4.58-1.11-5.68-.86-1.09,.25-.89,1.96-2.28,2.41s-2.88-.28-5.63,1.08c-2.76,1.36-2.26,1.83-2.92,2.9-.66,1.07-.9,.88-2.37,2.61-1.47,1.74,.77,4.93,1.09,5.53,.32,.6,2.18,2.21,3.23,2.06,1.05-.14,.63-1.58,3.4-1.47,2.78,.11,.14,2.44,2.49,3.43,2.35,.99,2.67,1.27,3.52,.83,.85-.44,.72-1.46,2.51-1.22,1.79,.24,.81,1.04,2.58,1.19,1.78,.15,1.64,.51,3.49,.31,1.84-.19,.75,1.76,2.82,1.71s3.56-.32,4.54-.83,1.93-.11,2.09,.38c.16,.49-1.08,1.67,.37,2.21,1.45,.54-.89,.59,3.01,.97,3.9,.38,5.86,.4,6.93-.98,1.07-1.38,1.85-2.9,3.35-3.12,1.5-.23,1.11,3.92,5.42,3.28,4.31-.64,5.45-2.65,7.02-2.89,1.57-.24,.47,3.75,4.13,3.23,3.66-.53,3.77-3.34,5.57-3.77,1.8-.42,.61,3.11,5.91,2.38,5.3-.73,3.59-2.93,6.16-3.83,2.58-.9,4.76,1.67,9.01,1.07s3.56-2.04,5.58-2.36c2.02-.32,3.12,1.52,3.92,2.17,.8,.66,1.02,1.76,2.83,1.05,1.81-.71,1.17-3.62,2.35-4.79,1.18-1.16,1.92-.49,3.08-1.75s3.28-1.74,2.57-3.31c-.71-1.58-3.64-1.42-4.04-3.48-.41-2.06,2.29-2.5,2.41-5.04,.12-2.53-2.22-2.15-4.06-3.29-1.84-1.13-3.72,.92-5.07-.83-1.35-1.74-.04-1.89-2.72-2.91-2.69-1.03-5.41,1.51-7.79,1.04-2.38-.47-6.25-2.74-8.2-3.1-1.95-.35-2.7,1.63-3.89,1.75-1.19,.12-3.94-1.22-6.38-.68-2.45,.54-2.55,1.37-4.24,1.67s-4.56,.03-5.95-.19c-1.39-.22-2.29,.32-3.99,.54-1.7,.22-3.33,.19-4.15-.28Z" style="opacity:.1;"></path></g><g><g><path d="M540.65,284.68c11.99,2.44,29.08-.85,37.15-10.55,1.74-2.09,1.9-6.78,1.82-8.76-.27-7.3-10.56-10.86-19.81-12.71-11.76-2.35-31.07-.17-38.12,9.27-1.72,2.3-3,3.23-2.96,5.69,.1,6.27,6.8,14,21.92,17.07Z" style="fill:#FFC100;"></path><path d="M540.65,284.68c11.99,2.44,29.08-.85,37.15-10.55,1.74-2.09,1.9-6.78,1.82-8.76-.27-7.3-10.56-10.86-19.81-12.71-11.76-2.35-31.07-.17-38.12,9.27-1.72,2.3-3,3.23-2.96,5.69,.1,6.27,6.8,14,21.92,17.07Z" style="opacity:.2;"></path><path d="M540.14,281.68c11.99,2.44,29.08-.85,37.15-10.55,8.13-9.77-6.22-19.12-17.99-21.47-11.76-2.35-31.07-.17-38.12,9.27-6.11,8.18-2.07,18.48,18.95,22.76Z" style="fill:#FFC100;"></path><path d="M540.14,281.68c11.99,2.44,29.08-.85,37.15-10.55,8.13-9.77-6.22-19.12-17.99-21.47-11.76-2.35-31.07-.17-38.12,9.27-6.11,8.18-2.07,18.48,18.95,22.76Z" style="opacity:.1;"></path><path d="M541.7,278.71c9.79,1.99,23.76-.69,30.35-8.62,6.64-7.98-5.08-15.62-14.69-17.54-9.61-1.92-25.38-.14-31.14,7.57-4.99,6.68-1.69,15.1,15.49,18.59Z" style="fill:#FFC100;"></path><g><path d="M537.06,267.62c.04-.57-3.42-1.04-3.42,.05,0,.91,3.37,.69,3.42-.05Z" style="fill:#fff;"></path><path d="M545.52,259.28c.95-.13,.95-2.23-.85-1.94-1.5,.25-.39,2.11,.85,1.94Z" style="fill:#fff;"></path><path d="M537.04,258.35c.69-.41-1.28-2.14-2.53-1.32-1.05,.69,1.64,1.86,2.53,1.32Z" style="fill:#fff;"></path><path d="M531.82,270.05c-.68-.4-3.69,.79-2.33,1.51,1.14,.6,3.22-1,2.33-1.51Z" style="fill:#fff;"></path><path d="M551.92,273.64c-.91,.22-.35,2.28,1.35,1.83,1.43-.38-.17-2.11-1.35-1.83Z" style="fill:#fff;"></path><path d="M563.59,263c0,.57,3.49,.95,3.42-.13-.06-.91-3.42-.61-3.42,.13Z" style="fill:#fff;"></path><path d="M558.95,260.49c.43,.51,3.89-.07,3-1.01-.74-.79-3.56,.36-3,1.01Z" style="fill:#fff;"></path><path d="M551.37,268.58c-.96-.07-2.22,1.91-.38,2.01,1.54,.08,1.63-1.91,.38-2.01Z" style="fill:#fff;"></path></g><g><path d="M564.61,276.72s-11.75-7.48-10.22-9.81c1.53-2.33,21.35-2.03,21.44-.59,.09,1.44-5.34,9.19-11.22,10.4Z" style="fill:#FFC100;"></path><path d="M564.61,276.72s-11.75-7.48-10.22-9.81c1.53-2.33,21.35-2.03,21.44-.59,.09,1.44-5.34,9.19-11.22,10.4Z" style="opacity:.1;"></path></g><g><path d="M565.99,254.54s-10.62,8.37-14.76,7.98c-4.14-.39-6.83-11.91-4.44-12.27,2.39-.36,16.22,1.15,19.19,4.29Z" style="fill:#FFC100;"></path><path d="M565.99,254.54s-10.62,8.37-14.76,7.98c-4.14-.39-6.83-11.91-4.44-12.27,2.39-.36,16.22,1.15,19.19,4.29Z" style="opacity:.1;"></path></g><g><path d="M527.95,255.12s13.31,6.52,12.29,8.94c-1.02,2.42-20.81,3.6-21.21,2.19-.4-1.42,3.33-9.49,8.92-11.12Z" style="fill:#FFC100;"></path><path d="M527.95,255.12s13.31,6.52,12.29,8.94c-1.02,2.42-20.81,3.6-21.21,2.19-.4-1.42,3.33-9.49,8.92-11.12Z" style="opacity:.1;"></path></g><g><path d="M528.23,275.9s11.44-8,15.52-7.46c4.08,.54,5.6,12.15,3.18,12.42-2.42,.27-16.05-1.71-18.7-4.96Z" style="fill:#FFC100;"></path><path d="M528.23,275.9s11.44-8,15.52-7.46c4.08,.54,5.6,12.15,3.18,12.42-2.42,.27-16.05-1.71-18.7-4.96Z" style="opacity:.1;"></path></g></g><g><path d="M504.78,274.25c10.24,.42,23.36-5.49,27.79-16.14,.95-2.29,.06-6.84-.43-8.75-1.8-7-10.91-8.77-18.8-9.07-10.04-.38-25.19,4.83-28.85,15.06-.89,2.49-1.73,3.6-1.16,5.96,1.44,6.04,8.55,12.41,21.46,12.94Z" style="fill:#FFC100;"></path><path d="M504.78,274.25c10.24,.42,23.36-5.49,27.79-16.14,.95-2.29,.06-6.84-.43-8.75-1.8-7-10.91-8.77-18.8-9.07-10.04-.38-25.19,4.83-28.85,15.06-.89,2.49-1.73,3.6-1.16,5.96,1.44,6.04,8.55,12.41,21.46,12.94Z" style="opacity:.2;"></path><path d="M503.72,271.44c10.24,.42,23.36-5.49,27.79-16.14,4.46-10.73-9.19-17.44-19.23-17.82-10.04-.38-25.19,4.83-28.85,15.06-3.17,8.87,2.34,18.16,20.29,18.9Z" style="fill:#FFC100;"></path><path d="M503.72,271.44c10.24,.42,23.36-5.49,27.79-16.14,4.46-10.73-9.19-17.44-19.23-17.82-10.04-.38-25.19,4.83-28.85,15.06-3.17,8.87,2.34,18.16,20.29,18.9Z" style="opacity:.1;"></path><path d="M504.33,268.32c8.36,.35,19.09-4.49,22.7-13.19,3.64-8.76-7.51-14.25-15.71-14.56-8.2-.31-20.58,3.94-23.57,12.3-2.59,7.24,1.91,14.84,16.58,15.44Z" style="fill:#FFC100;"></path><g><path d="M498.17,258.38c-.09-.56-3-.45-2.76,.6,.2,.88,2.88,.12,2.76-.6Z" style="fill:#fff;"></path><path d="M503.21,248.97c.74-.28,.28-2.31-1.11-1.73-1.16,.48,.14,2.1,1.11,1.73Z" style="fill:#fff;"></path><path d="M496.13,249.43c.47-.51-1.5-1.86-2.33-.87-.7,.83,1.73,1.53,2.33,.87Z" style="fill:#fff;"></path><path d="M494.45,261.56c-.64-.27-2.81,1.35-1.56,1.83,1.05,.4,2.39-1.48,1.56-1.83Z" style="fill:#fff;"></path><path d="M511.51,261.8c-.69,.36,.21,2.26,1.49,1.55,1.07-.6-.6-2.01-1.49-1.55Z" style="fill:#fff;"></path><path d="M518.65,249.65c.12,.55,3.04,.36,2.74-.68-.25-.87-2.9-.04-2.74,.68Z" style="fill:#fff;"></path><path d="M514.34,247.98c.46,.42,3.13-.69,2.21-1.46-.77-.64-2.81,.92-2.21,1.46Z" style="fill:#fff;"></path><path d="M509.96,257c-.79,.08-1.39,2.2,.13,2,1.27-.17,.9-2.1-.13-2Z" style="fill:#fff;"></path></g><g><path d="M522.45,262.73s-11.14-5.33-10.41-7.82c.73-2.49,16.85-5.39,17.23-4.02,.39,1.37-2.33,9.72-6.82,11.84Z" style="fill:#FFC100;"></path><path d="M522.45,262.73s-11.14-5.33-10.41-7.82c.73-2.49,16.85-5.39,17.23-4.02,.39,1.37-2.33,9.72-6.82,11.84Z" style="opacity:.1;"></path></g><g><path d="M518.75,241.12s-6.78,9.78-10.22,10.07c-3.43,.29-8.12-10.39-6.26-11.12,1.86-.73,13.38-1.5,16.47,1.05Z" style="fill:#FFC100;"></path><path d="M518.75,241.12s-6.78,9.78-10.22,10.07c-3.43,.29-8.12-10.39-6.26-11.12,1.86-.73,13.38-1.5,16.47,1.05Z" style="opacity:.1;"></path></g><g><path d="M488.07,247.79s12.2,4.15,11.89,6.64c-.3,2.49-16.07,6.82-16.7,5.52-.63-1.3,.63-9.68,4.8-12.16Z" style="fill:#FFC100;"></path><path d="M488.07,247.79s12.2,4.15,11.89,6.64c-.3,2.49-16.07,6.82-16.7,5.52-.63-1.3,.63-9.68,4.8-12.16Z" style="opacity:.1;"></path></g><g><path d="M492.82,267.78s7.52-9.55,10.94-9.69c3.42-.14,7.17,10.82,5.27,11.47-1.9,.65-13.37,.92-16.22-1.78Z" style="fill:#FFC100;"></path><path d="M492.82,267.78s7.52-9.55,10.94-9.69c3.42-.14,7.17,10.82,5.27,11.47-1.9,.65-13.37,.92-16.22-1.78Z" style="opacity:.1;"></path></g></g><g><path d="M593.98,276.57c-11.26-1.72-24.79-9.98-28.15-20.89-.72-2.35,.89-6.43,1.69-8.12,2.95-6.2,13.16-5.98,21.84-4.63,11.03,1.72,26.89,9.73,29.47,20.09,.63,2.52,1.39,3.74,.44,5.83-2.42,5.36-11.09,9.88-25.28,7.71Z" style="fill:#FFC100;"></path><path d="M593.98,276.57c-11.26-1.72-24.79-9.98-28.15-20.89-.72-2.35,.89-6.43,1.69-8.12,2.95-6.2,13.16-5.98,21.84-4.63,11.03,1.72,26.89,9.73,29.47,20.09,.63,2.52,1.39,3.74,.44,5.83-2.42,5.36-11.09,9.88-25.28,7.71Z" style="opacity:.2;"></path><path d="M595.53,274.15c-11.26-1.72-24.79-9.98-28.15-20.89-3.38-10.99,12.49-14.46,23.53-12.75,11.03,1.72,26.89,9.73,29.47,20.09,2.23,8.98-5.09,16.56-24.84,13.55Z" style="fill:#FFC100;"></path><path d="M595.53,274.15c-11.26-1.72-24.79-9.98-28.15-20.89-3.38-10.99,12.49-14.46,23.53-12.75,11.03,1.72,26.89,9.73,29.47,20.09,2.23,8.98-5.09,16.56-24.84,13.55Z" style="opacity:.1;"></path><path d="M595.3,271.1c-9.2-1.4-20.26-8.15-23-17.07-2.76-8.98,10.21-11.82,19.22-10.42,9.01,1.4,21.97,7.95,24.07,16.41,1.82,7.33-4.16,13.53-20.29,11.07Z" style="fill:#FFC100;"></path><g><path d="M603.43,263.04c.18-.5,3.34,.2,2.94,1.13-.34,.79-3.17-.48-2.94-1.13Z" style="fill:#fff;"></path><path d="M599.23,253.18c-.77-.42,.01-2.22,1.45-1.4,1.21,.69-.45,1.94-1.45,1.4Z" style="fill:#fff;"></path><path d="M606.9,255.07c-.44-.58,1.9-1.44,2.68-.33,.65,.93-2.11,1.08-2.68,.33Z" style="fill:#fff;"></path><path d="M607.05,266.8c.74-.12,2.89,1.85,1.45,2.04-1.21,.16-2.41-1.88-1.45-2.04Z" style="fill:#fff;"></path><path d="M588.35,263.5c.7,.48-.55,2.08-1.85,1.14-1.09-.78,.94-1.76,1.85-1.14Z" style="fill:#fff;"></path><path d="M582.24,250.63c-.21,.49-3.37-.29-2.91-1.2,.39-.76,3.18,.56,2.91,1.2Z" style="fill:#fff;"></path><path d="M587.18,249.95c-.56,.3-3.33-1.3-2.21-1.83,.94-.44,2.94,1.44,2.21,1.83Z" style="fill:#fff;"></path><path d="M590.71,259.32c.86,.24,1.21,2.35-.42,1.85-1.36-.42-.7-2.16,.42-1.85Z" style="fill:#fff;"></path></g><g><path d="M576.25,262.11s12.93-2.7,12.48-5.19c-.45-2.49-17.68-8.54-18.3-7.33-.61,1.21,1.19,9.6,5.82,12.52Z" style="fill:#FFC100;"></path><path d="M576.25,262.11s12.93-2.7,12.48-5.19c-.45-2.49-17.68-8.54-18.3-7.33-.61,1.21,1.19,9.6,5.82,12.52Z" style="opacity:.1;"></path></g><g><path d="M583.32,242.6s6.06,10.58,9.77,11.56c3.72,.98,10.33-8.07,8.4-9.14-1.93-1.07-14.43-4.17-18.17-2.42Z" style="fill:#FFC100;"></path><path d="M583.32,242.6s6.06,10.58,9.77,11.56c3.72,.98,10.33-8.07,8.4-9.14-1.93-1.07-14.43-4.17-18.17-2.42Z" style="opacity:.1;"></path></g><g><path d="M615.95,255.19s-13.92,1.38-13.94,3.78c-.02,2.4,16.63,9.72,17.5,8.63,.87-1.09,.66-9.22-3.56-12.4Z" style="fill:#FFC100;"></path><path d="M615.95,255.19s-13.92,1.38-13.94,3.78c-.02,2.4,16.63,9.72,17.5,8.63,.87-1.09,.66-9.22-3.56-12.4Z" style="opacity:.1;"></path></g><g><path d="M607.97,272.98s-6.9-10.52-10.62-11.35c-3.73-.84-9.36,8.67-7.37,9.67,1.99,1,14.5,3.63,17.99,1.68Z" style="fill:#FFC100;"></path><path d="M607.97,272.98s-6.9-10.52-10.62-11.35c-3.73-.84-9.36,8.67-7.37,9.67,1.99,1,14.5,3.63,17.99,1.68Z" style="opacity:.1;"></path></g></g></g><g><g style="isolation:isolate;"><path d="M623.49,265.66l-.87,2.47c.07-.2,.11-.4,.13-.6,.37-4.21-10.38-10.81-26.39-13.55-15.24-2.61-26.46-.22-27.82,3.64l.87-2.47c1.36-3.86,12.58-6.26,27.82-3.64,16.02,2.74,26.76,9.35,26.39,13.55-.02,.2-.06,.4-.13,.6Z" style="fill:#FFC100;"></path><g style="opacity:.4;"><path d="M623.49,265.66l-.87,2.47c.07-.2,.11-.4,.13-.6,.37-4.21-10.38-10.81-26.39-13.55-15.24-2.61-26.46-.22-27.82,3.64l.87-2.47c1.36-3.86,12.58-6.26,27.82-3.64,16.02,2.74,26.76,9.35,26.39,13.55-.02,.2-.06,.4-.13,.6Z" style="fill:#fff;"></path></g><path d="M597.5,248.41c17.31,2.97,30.41,10.56,29.82,17.29-.59,6.73-14.61,9.68-31.92,6.71-17.31-2.97-30.41-10.56-29.82-17.29,.59-6.73,14.62-9.67,31.92-6.71Zm-1.83,20.9c16.02,2.74,27.58-.03,27.95-4.24,.37-4.21-10.38-10.81-26.39-13.55-16.02-2.74-27.58,.04-27.95,4.24-.37,4.21,10.38,10.81,26.39,13.55" style="fill:#FFC100;"></path><g style="opacity:.7;"><path d="M597.5,248.41c17.31,2.97,30.41,10.56,29.82,17.29-.59,6.73-14.61,9.68-31.92,6.71-17.31-2.97-30.41-10.56-29.82-17.29,.59-6.73,14.62-9.67,31.92-6.71Zm-1.83,20.9c16.02,2.74,27.58-.03,27.95-4.24,.37-4.21-10.38-10.81-26.39-13.55-16.02-2.74-27.58,.04-27.95,4.24-.37,4.21,10.38,10.81,26.39,13.55" style="fill:#fff;"></path></g><path d="M627.06,266.9l-.87,2.47c-2.07,5.87-15.42,8.3-31.66,5.51-17.31-2.97-30.41-10.56-29.82-17.29,.04-.41,.12-.81,.26-1.2l.87-2.47c-.14,.39-.22,.79-.26,1.2-.59,6.73,12.51,14.33,29.82,17.29,16.25,2.78,29.59,.36,31.66-5.51Z" style="fill:#FFC100;"></path><g style="opacity:.4;"><path d="M627.06,266.9l-.87,2.47c-2.07,5.87-15.42,8.3-31.66,5.51-17.31-2.97-30.41-10.56-29.82-17.29,.04-.41,.12-.81,.26-1.2l.87-2.47c-.14,.39-.22,.79-.26,1.2-.59,6.73,12.51,14.33,29.82,17.29,16.25,2.78,29.59,.36,31.66-5.51Z" style="fill:#fff;"></path></g></g><path d="M579.77,253.96l-.18,2.62c.01-.21,0-.41-.03-.61-.77-4.15-12.89-7.65-29.05-6.01-15.39,1.55-25.55,6.85-25.84,10.94l.18-2.62c.28-4.09,10.45-9.39,25.84-10.94,16.17-1.63,28.29,1.86,29.05,6.01,.04,.2,.05,.41,.03,.61Z" style="fill:#FFC100;"></path><g style="opacity:.4;"><path d="M579.77,253.96l-.18,2.62c.01-.21,0-.41-.03-.61-.77-4.15-12.89-7.65-29.05-6.01-15.39,1.55-25.55,6.85-25.84,10.94l.18-2.62c.28-4.09,10.45-9.39,25.84-10.94,16.17-1.63,28.29,1.86,29.05,6.01,.04,.2,.05,.41,.03,.61Z" style="fill:#fff;"></path></g><path d="M550.12,244.28c17.48-1.76,32.13,2.06,33.36,8.7,1.23,6.64-11.5,13.23-28.97,15-17.47,1.76-32.13-2.06-33.36-8.7-1.23-6.64,11.5-13.23,28.97-14.99Zm3.82,20.63c16.17-1.63,26.57-7.4,25.8-11.55-.77-4.15-12.89-7.65-29.05-6.01-16.17,1.63-26.57,7.4-25.8,11.55,.77,4.16,12.89,7.65,29.05,6.01" style="fill:#FFC100;"></path><g style="opacity:.7;"><path d="M550.12,244.28c17.48-1.76,32.13,2.06,33.36,8.7,1.23,6.64-11.5,13.23-28.97,15-17.47,1.76-32.13-2.06-33.36-8.7-1.23-6.64,11.5-13.23,28.97-14.99Zm3.82,20.63c16.17-1.63,26.57-7.4,25.8-11.55-.77-4.15-12.89-7.65-29.05-6.01-16.17,1.63-26.57,7.4-25.8,11.55,.77,4.16,12.89,7.65,29.05,6.01" style="fill:#fff;"></path></g><path d="M583.54,254.2l-.18,2.62c-.43,6.21-12.64,12.11-29.04,13.77-17.47,1.76-32.13-2.06-33.36-8.7-.08-.41-.1-.82-.07-1.23l.18-2.62c-.03,.41,0,.82,.07,1.23,1.23,6.64,15.89,10.47,33.36,8.7,16.4-1.66,28.61-7.56,29.04-13.77Z" style="fill:#FFC100;"></path><g style="opacity:.4;"><path d="M583.54,254.2l-.18,2.62c-.43,6.21-12.64,12.11-29.04,13.77-17.47,1.76-32.13-2.06-33.36-8.7-.08-.41-.1-.82-.07-1.23l.18-2.62c-.03,.41,0,.82,.07,1.23,1.23,6.64,15.89,10.47,33.36,8.7,16.4-1.66,28.61-7.56,29.04-13.77Z" style="fill:#fff;"></path></g><path d="M537.93,269.41l-.37,2.6c.03-.21,.03-.41,.01-.61-.46-4.2-12.29-8.57-28.54-8.12-15.46,.43-25.99,4.97-26.57,9.03l.37-2.6c.58-4.06,11.11-8.6,26.57-9.03,16.24-.45,28.07,3.92,28.54,8.12,.02,.2,.02,.41-.01,.61Z" style="fill:#FFC100;"></path><g style="opacity:.4;"><path d="M537.93,269.41l-.37,2.6c.03-.21,.03-.41,.01-.61-.46-4.2-12.29-8.57-28.54-8.12-15.46,.43-25.99,4.97-26.57,9.03l.37-2.6c.58-4.06,11.11-8.6,26.57-9.03,16.24-.45,28.07,3.92,28.54,8.12,.02,.2,.02,.41-.01,.61Z" style="fill:#fff;"></path></g><path d="M509.06,257.59c17.56-.48,31.89,4.4,32.63,11.11,.74,6.72-12.43,12.36-29.99,12.84-17.55,.48-31.89-4.4-32.63-11.11-.74-6.71,12.44-12.35,29.99-12.83Zm2.3,20.85c16.24-.45,27.04-5.44,26.58-9.64-.46-4.2-12.29-8.57-28.54-8.12-16.24,.45-27.04,5.44-26.58,9.64,.46,4.2,12.29,8.57,28.54,8.12" style="fill:#FFC100;"></path><g style="opacity:.7;"><path d="M509.06,257.59c17.56-.48,31.89,4.4,32.63,11.11,.74,6.72-12.43,12.36-29.99,12.84-17.55,.48-31.89-4.4-32.63-11.11-.74-6.71,12.44-12.35,29.99-12.83Zm2.3,20.85c16.24-.45,27.04-5.44,26.58-9.64-.46-4.2-12.29-8.57-28.54-8.12-16.24,.45-27.04,5.44-26.58,9.64,.46,4.2,12.29,8.57,28.54,8.12" style="fill:#fff;"></path></g><path d="M541.68,269.92l-.37,2.6c-.88,6.16-13.49,11.16-29.97,11.61-17.55,.48-31.89-4.4-32.63-11.11-.05-.41-.04-.82,.02-1.23l.37-2.6c-.06,.4-.07,.81-.02,1.23,.74,6.72,15.08,11.6,32.63,11.11,16.48-.45,29.09-5.45,29.97-11.61Z" style="fill:#FFC100;"></path><g style="opacity:.4;"><path d="M541.68,269.92l-.37,2.6c-.88,6.16-13.49,11.16-29.97,11.61-17.55,.48-31.89-4.4-32.63-11.11-.05-.41-.04-.82,.02-1.23l.37-2.6c-.06,.4-.07,.81-.02,1.23,.74,6.72,15.08,11.6,32.63,11.11,16.48-.45,29.09-5.45,29.97-11.61Z" style="fill:#fff;"></path></g></g><g><path d="M628.94,249.02c-9.89,19.85-63.57,22.39-79.87,22.35-16.31-.04-69.52-2.83-75.94-22.71-6.42-19.89,28.56-62.47,83.36-62.34,54.8,.13,82.33,42.86,72.44,62.71Z" style="fill:#FFC100;"></path><path d="M628.94,249.02c-9.89,19.85-63.57,22.39-79.87,22.35-16.31-.04-69.52-2.83-75.94-22.71-6.42-19.89,28.56-62.47,83.36-62.34,54.8,.13,82.33,42.86,72.44,62.71Z" style="opacity:.1;"></path><path d="M567.5,207.31c-3.13,9.67-18.34,16.2-32.96,19.07-7.33,1.44-30.84,1.84-35.09-6.74-4.26-8.58,8.67-25.51,33.52-29.17,24.84-3.66,37.68,7.17,34.54,16.84Z" style="fill:#fff; opacity:.1;"></path><path d="M628.94,249.02c-9.88,19.85-63.56,22.39-79.87,22.35-16.31-.04-69.52-2.82-75.94-22.71-2.61-8.1,1.63-19.94,11.27-31.14-4.47,12.54-7.87,25.92,.26,32.81,14.06,11.9,87.78,8.25,118.84-4.09,25.35-10.07,20.39-25.74,12.68-36.78,13.11,13.34,17.81,29.44,12.76,39.58Z" style="opacity:.1;"></path><g><path d="M556.99,237.83c-1,.05-2.67,4.47-.75,4.27,1.61-.16,2.05-4.34,.75-4.27Z" style="fill:#fff;"></path><path d="M578.68,194.43c.74,.67,5.05-1.27,3.55-2.49-1.26-1.02-4.52,1.62-3.55,2.49Z" style="fill:#fff;"></path><path d="M581.64,229.89c-.72,.7,.93,5.12,2.25,3.71,1.11-1.18-1.31-4.62-2.25-3.71Z" style="fill:#fff;"></path><path d="M492.61,214.42c-.56-.83-5.21,.04-4.04,1.58,.98,1.29,4.77-.51,4.04-1.58Z" style="fill:#fff;"></path><path d="M528.75,228.93c-.77-.64-5,1.45-3.46,2.62,1.29,.98,4.46-1.78,3.46-2.62Z" style="fill:#fff;"></path><path d="M594.23,207.81c-.36,.93,2.97,4.28,3.58,2.44,.52-1.54-3.11-3.65-3.58-2.44Z" style="fill:#fff;"></path><path d="M590.45,217.72c-.9,.43-.78,5.15,.93,4.24,1.43-.76,.25-4.79-.93-4.24Z" style="fill:#fff;"></path><path d="M569.76,198.58c-.45,.89,2.56,4.53,3.34,2.76,.65-1.48-2.76-3.92-3.34-2.76Z" style="fill:#fff;"></path><path d="M486.49,220.99c-.66-.75-5.16,.65-3.82,2.05,1.12,1.17,4.68-1.07,3.82-2.05Z" style="fill:#fff;"></path><path d="M606.29,234.92c-.88,.47-.52,5.18,1.14,4.19,1.39-.83,0-4.8-1.14-4.19Z" style="fill:#fff;"></path><path d="M617.94,215.9c-.43,.9,2.66,4.48,3.4,2.69,.62-1.49-2.84-3.87-3.4-2.69Z" style="fill:#fff;"></path><path d="M509.72,247.02c-.96-.27-3.96,3.38-2.08,3.81,1.58,.36,3.33-3.46,2.08-3.81Z" style="fill:#fff;"></path><path d="M523.07,201.53c-.14-.99-4.69-2.26-4.32-.36,.31,1.59,4.51,1.65,4.32,.36Z" style="fill:#fff;"></path><path d="M544.74,197.93c-.84-.54-4.77,2.08-3.1,3.04,1.41,.81,4.19-2.34,3.1-3.04Z" style="fill:#fff;"></path><path d="M573.12,247.25c-.85,.53-.19,5.2,1.4,4.11,1.33-.92-.3-4.79-1.4-4.11Z" style="fill:#fff;"></path><path d="M499.21,225.27c-.81-.59-4.89,1.79-3.27,2.85,1.35,.89,4.32-2.08,3.27-2.85Z" style="fill:#fff;"></path><path d="M569.27,254.74c-.96,.28-1.55,4.97,.27,4.33,1.53-.54,.97-4.7-.27-4.33Z" style="fill:#fff;"></path></g><path d="M482.11,236.91c.57,8.97,10.69,12.51,18.09,14.53,10.47,2.56,21.3,3.09,32.05,3.59-10.81,.53-21.79,.18-32.33-2.48-7.54-2.05-18.07-6.35-17.8-15.63h0Z" style="fill:#fff; opacity:.5;"></path></g></g><g><path d="M696.48,329.19s-25.57,85.62-59.01,85.62h-177.04c-33.44,0-59.01-85.62-59.01-85.62h295.07Z" style="fill:#dbdbdb;"></path><g><path d="M692.55,340.96c-.9,2.49-1.93,5.29-3.11,8.31H408.45c-1.17-3.02-2.21-5.82-3.1-8.31h287.2Z" style="fill:#37474f;"></path><path d="M687.07,355.23c-.56,1.36-1.15,2.75-1.75,4.16H412.58c-.61-1.41-1.19-2.8-1.75-4.16h276.24Z" style="fill:#37474f;"></path></g><path d="M696.48,329.19s-1.39,4.64-3.93,11.77c-.9,2.49-1.93,5.29-3.11,8.31-.73,1.91-1.53,3.9-2.37,5.96-.56,1.36-1.15,2.75-1.75,4.16-10.58,24.65-27.8,55.42-47.85,55.42h-144.51c26.2,0,110.33-2.02,130.62-20.98,18.64-17.42,34.2-58.18,36.59-64.64h36.31Z" style="opacity:.1;"></path></g></g></g><g id="freepik--Healthy_food--inject-95"><g><g><path d="M215.02,175.25c-23.22,18.3-32.58,101.87-13.91,128.8,18.67,26.93,64.77,47.74,94.47,42.8,33.13-5.51,65.63-47.25,60.39-77.24-5.24-29.99-51.42-36.55-60.47-50.02-9.11-13.56-17.16-39.77-27.38-49.24-10.21-9.48-38.48-6.63-53.1,4.9Z" style="fill:#FFC100;"></path><path d="M215.02,175.25c-23.22,18.3-32.58,101.87-13.91,128.8,18.67,26.93,64.77,47.74,94.47,42.8,33.13-5.51,65.63-47.25,60.39-77.24-5.24-29.99-51.42-36.55-60.47-50.02-9.11-13.56-17.16-39.77-27.38-49.24-10.21-9.48-38.48-6.63-53.1,4.9Z" style="fill:#fff; opacity:.6;"></path><path d="M220.83,181.13c-19.99,15.76-28.34,93.49-12.26,116.68,16.07,23.19,58.23,45.76,83.8,41.51,28.53-4.74,58.26-40.87,53.75-66.7-4.51-25.82-48.48-32.97-56.27-44.57-7.85-11.68-16.98-40.05-25.77-48.21-8.79-8.16-30.66-8.64-43.25,1.28Z" style="fill:#d8726a;"></path><g><path d="M242.28,201.05c8.37,.05,12.03,7.32,12,12.52-.03,5.21-4,12.2-12.15,12.15-8.15-.05-12.18-6.41-12.15-12.41,.03-4.41,4.15-12.31,12.3-12.26Z" style="fill:#FFC100;"></path><path d="M242.28,201.05c8.37,.05,12.03,7.32,12,12.52-.03,5.21-4,12.2-12.15,12.15-8.15-.05-12.18-6.41-12.15-12.41,.03-4.41,4.15-12.31,12.3-12.26Z" style="fill:#fff; opacity:.6;"></path></g><g><g><path d="M246.53,328.94s25.11-28.99,36.7-34.49c11.59-5.49,61.06,.62,61.06,.62l-1.31,3.84s-46.76-6.1-58.05-2.6c-6.87,2.13-35.45,35.41-35.45,35.41l-2.94-2.79Z" style="fill:#FFC100;"></path><path d="M314.46,295.61s5.06,13.15,7.04,16.01c1.98,2.87,7.66,8.04,7.66,8.04l2.44-2.84s-6.68-4.75-8.45-7.04c-1.77-2.29-6.98-14.16-6.98-14.16h-1.71Z" style="fill:#FFC100;"></path><path d="M258.81,317.18s-14.28-1.51-18.43-1.14c-4.15,.37-12.87,3.24-12.87,3.24l1.52,4.21s8.88-4.15,12.31-4.64c3.43-.49,16.47,.1,16.47,.1l1.02-1.78Z" style="fill:#FFC100;"></path></g><g style="opacity:.6;"><path d="M246.53,328.94s25.11-28.99,36.7-34.49c11.59-5.49,61.06,.62,61.06,.62l-1.31,3.84s-46.76-6.1-58.05-2.6c-6.87,2.13-35.45,35.41-35.45,35.41l-2.94-2.79Z" style="fill:#fff;"></path><path d="M314.46,295.61s5.06,13.15,7.04,16.01c1.98,2.87,7.66,8.04,7.66,8.04l2.44-2.84s-6.68-4.75-8.45-7.04c-1.77-2.29-6.98-14.16-6.98-14.16h-1.71Z" style="fill:#fff;"></path><path d="M258.81,317.18s-14.28-1.51-18.43-1.14c-4.15,.37-12.87,3.24-12.87,3.24l1.52,4.21s8.88-4.15,12.31-4.64c3.43-.49,16.47,.1,16.47,.1l1.02-1.78Z" style="fill:#fff;"></path></g></g><path d="M295.58,346.85c-29.7,4.94-75.8-15.87-94.47-42.8-18.39-26.52-9.58-108,12.87-127.94-17.5,25.07-26.73,85.57-13.48,108.17,15.18,25.88,55.83,48.07,83.29,45.61,30.63-2.74,63.19-38.6,60.48-66.35-.98-10.03-7.06-17.63-14.76-23.87,12.45,6.89,24,15.82,26.46,29.93,5.23,29.99-27.26,71.74-60.39,77.25Z" style="opacity:.05;"></path><path d="M246.06,182.38c6.09,7.98-6.03,17.92-11.92,31.43-2.95,6.77-6.97,32.2-16.34,30.83-9.37-1.36-15.86-21.4-4.86-43.65,11-22.25,27.02-26.59,33.12-18.61Z" style="fill:#fff; opacity:.1;"></path></g><g><rect x="126.93" y="134.71" width="74.65" height="194.41" transform="translate(328.51 463.84) rotate(180)" style="fill:#37474f;"></rect><rect x="71.45" y="134.66" width="55.47" height="194.46" transform="translate(198.38 463.79) rotate(180)" style="fill:#455a64;"></rect><polygon points="126.93 134.66 164.25 103.49 201.58 134.71 126.93 134.66" style="fill:#455a64;"></polygon><polygon points="108.78 103.46 164.25 103.46 126.93 134.66 71.45 134.66 108.78 103.46" style="fill:#37474f;"></polygon><g><path d="M126.93,329.12v-124.64c-7.59-1.69-15.64-.28-22.45,4.34l-2.67,1.81-1.49,1.01c-15.04,9.29-28.87,.02-28.87,.02v117.52l55.47-.07Z" style="fill:#fff;"></path><path d="M126.93,329.12c-.17-31.08-.35-93.57-.4-124.64l.31,.39c-4.73-1.04-9.72-.85-14.35,.58-4.8,1.32-8.57,4.45-12.75,7.03-8.66,5.22-19.98,4.87-28.56-.41l.76-.41c-.09-.11,.16,118.7-.49,117.25l55.47,.2h0Zm0,0c-.29-.07-55.48,.39-55.74,.34-.09,0-.16-117.7-.22-117.79v-.87c8.35,5.41,19.68,6.1,28.31,.9,4.15-2.54,8.14-5.77,12.97-7.06,4.87-1.49,10.13-1.63,15.08-.47,.08,.14-.19,62.53-.14,62.74l-.26,62.21h0Z" style="fill:#455a64;"></path></g><path d="M201.58,329.12l-.03-124.64c-10.2-1.69-21.02-.28-30.18,4.34l-3.58,1.81-2,1.01c-20.22,9.29-29.55-3.64-38.81-7.15l.03,124.69,74.58-.05Z" style="fill:#ebebeb;"></path><g><path d="M88.35,180.38v11.55c0,.59-.47,1.08-1.01,1.08s-.99-.49-.99-1.08v-8.24l-2.59,3.91c-.2,.29-.49,.45-.81,.45h-.04c-.32,0-.63-.16-.83-.45l-2.58-3.91v8.24c0,.59-.45,1.08-1.01,1.08s-.99-.49-.99-1.08v-11.55c0-.59,.45-1.08,.99-1.08h.05c.29,0,.61,.16,.79,.45l3.58,5.4,3.58-5.4c.2-.29,.49-.45,.81-.45h.02c.54,.02,1.01,.49,1.01,1.08Z" style="fill:#fff;"></path><path d="M92.84,180.38c0-.61,.43-1.08,.99-1.08s1.01,.47,1.01,1.08v11.55c0,.61-.47,1.08-1.01,1.08s-.99-.47-.99-1.08v-11.55Z" style="fill:#fff;"></path><path d="M98.21,191.93v-11.55c0-.59,.43-1.08,.99-1.08s1.01,.49,1.01,1.08v10.45h4.88c.52,0,.99,.49,.99,1.1s-.47,1.08-.99,1.08h-5.89c-.56,0-.99-.49-.99-1.08Z" style="fill:#fff;"></path><path d="M108.35,191.93v-11.45c0-.57,.43-1.08,.99-1.08s.99,.51,.99,1.08v5.62l5.83-6.36c.4-.43,1.01-.43,1.4,0,.38,.41,.38,1.1,0,1.53l-3.96,4.29,4,5.7c.36,.45,.29,1.13-.14,1.51-.18,.18-.4,.26-.63,.26-.27,0-.54-.14-.74-.39l-3.89-5.54-1.87,2.08v2.78c0,.59-.43,1.08-.99,1.08s-.99-.49-.99-1.08Z" style="fill:#fff;"></path></g><g><rect x="143.87" y="225.7" width="40.83" height="2.66" transform="translate(328.4 454.19) rotate(-179.96)" style="fill:#c7c7c7;"></rect><rect x="143.86" y="236.06" width="40.83" height="2.66" transform="translate(328.37 474.9) rotate(-179.96)" style="fill:#c7c7c7;"></rect><rect x="143.85" y="246.41" width="40.83" height="2.66" transform="translate(328.35 495.61) rotate(-179.96)" style="fill:#c7c7c7;"></rect><rect x="143.84" y="267.13" width="40.83" height="2.66" transform="translate(328.31 537.03) rotate(-179.96)" style="fill:#c7c7c7;"></rect><rect x="143.82" y="289.47" width="40.83" height="2.66" transform="translate(328.26 581.71) rotate(-179.96)" style="fill:#c7c7c7;"></rect><rect x="143.81" y="298.2" width="40.83" height="2.66" transform="translate(328.24 599.17) rotate(-179.96)" style="fill:#c7c7c7;"></rect></g><rect x="108.8" y="93.09" width="55.45" height="10.37" transform="translate(273.05 196.54) rotate(180)" style="fill:#455a64;"></rect><polygon points="164.25 103.46 164.25 134.69 201.58 134.71 164.25 103.46" style="opacity:.1;"></polygon><g><rect x="93.06" y="101.08" width="24.79" height="7.89" transform="translate(210.91 210.06) rotate(180)" style="fill:#FFC100;"></rect><rect x="95.88" y="108.96" width="19.11" height="11.94" transform="translate(210.88 229.86) rotate(180)" style="fill:#455a64;"></rect><rect x="95.88" y="108.96" width="5.52" height="11.94" transform="translate(197.28 229.86) rotate(180)" style="fill:#37474f;"></rect></g></g><g><path d="M76.97,258.19h83.35c2.21,0,4,1.79,4,4v67H61.46v-55.49c0-8.56,6.95-15.51,15.51-15.51Z" style="fill:#FFC100;"></path><path d="M76.97,258.19h83.35c2.21,0,4,1.79,4,4v67H61.46v-55.49c0-8.56,6.95-15.51,15.51-15.51Z" style="fill:#fff; opacity:.6;"></path><path d="M164.31,315.11v14.08H61.48v-43.6c2.69,19.58,43.09,43.88,97.06,30.62,1.98-.47,3.92-.87,5.78-1.11Z" style="fill:#FFC100; opacity:.3;"></path><g><path d="M222.9,325.03c1.35,0,2.49-.32,3.42-.87v5.03h-80.14v-58.77c0-7.41,6.54-13.12,13.88-12.11l66.26,9.08v45.02c-.93-.55-2.07-.88-3.42-.88-8.7,0-8.68,13.5,0,13.5Z" style="fill:#FFC100;"></path><path d="M222.9,325.03c1.35,0,2.49-.32,3.42-.87v5.03h-80.14v-58.77c0-7.41,6.54-13.12,13.88-12.11l66.26,9.08v45.02c-.93-.55-2.07-.88-3.42-.88-8.7,0-8.68,13.5,0,13.5Z" style="fill:#fff; opacity:.4;"></path></g><g style="opacity:.1;"><path d="M160.39,276.36c8.68,0,8.7,13.49,0,13.49s-8.7-13.49,0-13.49Z"></path><path d="M218.93,281.81c3.4,0,3.4,5.28,0,5.28s-3.4-5.28,0-5.28Z"></path><path d="M165.43,313.59c3.4,0,3.4,5.28,0,5.28s-3.4-5.28,0-5.28Z"></path><path d="M190.17,302.16c5.23,0,5.24,8.12,0,8.12s-5.24-8.12,0-8.12Z"></path><path d="M207.71,273.58c5.23,0,5.24,8.12,0,8.12s-5.24-8.12,0-8.12Z"></path></g></g><g><g><path d="M284.49,315s-.03,5.17-3.08,6.64c-3.05,1.47-9.27,2.85-10.97,1.97-1.7-.88-2.15-1.77-2.15-1.77,0,0-5.25-1.67-7.59-5.61-2.34-3.94-.61-10.04,1.56-12.25,2.17-2.21,7.48-6.21,11.53-3.98,0,0,5.18-.95,6.5,3.89,0,0,7.01,2.74,4.19,11.11Z" style="fill:#263238;"></path><path d="M281.33,293.26s-1.79-5.48-.75-8.52c1.04-3.04,5.78-5.38,5.78-5.38,0,0,1.66-3.76,4.5-5.29,2.84-1.53,11.31,1.24,12.46,2.94,1.15,1.7,4.8,5.23,3.66,9.42-1.14,4.19-1.8,9.23-6.15,11.28,0,0-1.73,3-7.38,3.42-5.65,.42-11.04-1.62-12.11-7.88Z" style="fill:#263238;"></path><path d="M288.11,288.94s4.71,2.14,4.81,5.52c.1,3.38-1.18,9.62-2.68,10.82-1.5,1.19-2.49,1.24-2.49,1.24,0,0-3.67,4.11-8.22,4.63-4.55,.52-9.41-3.55-10.55-6.43s-2.61-9.36,1.08-12.15c0,0,1.25-5.12,6.21-4.35,0,0,5.36-5.28,11.85,.72Z" style="fill:#263238;"></path><g><path d="M307.5,294.29s-3.16,9.45-3.28,10.81c-.12,1.36,1.47,5.93,2.44,7.03,.98,1.09,9.35,11.04,9.35,11.04,0,0-5.14,7.55-5.98,8.21-.84,.66-7.61,3.86-7.61,3.86,0,0-13.54-12.9-14.64-14.22-1.09-1.32-13.64-.65-13.64-.65l-1.13-3.66,9.35-1.65s-4.38-2.7-4.98-2.97c-.6-.27-6.39-.45-6.39-.45l1.13-6.03s6.94-1.54,8.14-1.5c1.2,.04,6.94,2.59,6.94,2.59,0,0-3.31-6.52-3.77-7.63-.45-1.11,.42-12.64,.42-12.64l8.52,.52s.67,8.26,1.34,9.9c.67,1.64,2.96,5,2.96,5,0,0,2.48-4.32,3.53-5.35,1.05-1.03,4.12-4.3,4.12-4.3l2.76,1.6" style="fill:#455a64;"></path><path d="M307.5,294.29s-3.16,9.45-3.28,10.81c-.12,1.36,1.47,5.93,2.44,7.03,.98,1.09,9.35,11.04,9.35,11.04,0,0-5.14,7.55-5.98,8.21-.84,.66-7.61,3.86-7.61,3.86,0,0-13.54-12.9-14.64-14.22-1.09-1.32-13.64-.65-13.64-.65l-1.13-3.66,9.35-1.65s-4.38-2.7-4.98-2.97c-.6-.27-6.39-.45-6.39-.45l1.13-6.03s6.94-1.54,8.14-1.5c1.2,.04,6.94,2.59,6.94,2.59,0,0-3.31-6.52-3.77-7.63-.45-1.11,.42-12.64,.42-12.64l8.52,.52s.67,8.26,1.34,9.9c.67,1.64,2.96,5,2.96,5,0,0,2.48-4.32,3.53-5.35,1.05-1.03,4.12-4.3,4.12-4.3l2.76,1.6" style="fill:#FFC100; opacity:.3;"></path></g><g><path d="M321.19,287.04s-.03,5.17-3.08,6.64c-3.05,1.47-9.27,2.85-10.97,1.97-1.7-.88-2.15-1.77-2.15-1.77,0,0-5.25-1.67-7.59-5.61-2.34-3.94-.61-10.04,1.56-12.25,2.17-2.21,7.48-6.21,11.53-3.98,0,0,5.18-.95,6.5,3.89,0,0,7.01,2.74,4.19,11.11Z" style="fill:#37474f;"></path><path d="M320.32,285s-.02,3.68-2.19,4.73c-2.17,1.05-6.6,2.03-7.81,1.41-1.21-.63-1.53-1.26-1.53-1.26,0,0-3.74-1.19-5.4-3.99-1.66-2.8-.43-7.15,1.11-8.73,1.54-1.58,5.33-4.42,8.21-2.83,0,0,3.69-.68,4.63,2.77,0,0,4.99,1.95,2.98,7.91Z" style="fill:#FFC100; opacity:.1;"></path><path d="M318.34,281.97s-.01,2.24-1.33,2.87c-1.32,.64-4.01,1.23-4.75,.85-.73-.38-.93-.77-.93-.77,0,0-2.27-.72-3.28-2.43-1.01-1.7-.26-4.35,.67-5.3,.94-.96,3.24-2.69,4.99-1.72,0,0,2.24-.41,2.82,1.68,0,0,3.04,1.19,1.81,4.81Z" style="fill:#FFC100; opacity:.3;"></path></g><g><path d="M283.82,263.49s6.33-3.69,10.38-3.21c4.05,.48,8.23,5.74,8.23,5.74,0,0,5.11,1.06,7.77,4.18,2.66,3.12,1.47,14.39-.33,16.27-1.8,1.88-5.22,7.36-10.73,7.05-5.51-.3-11.94,.22-15.66-4.64,0,0-4.19-1.35-6.22-8.26-2.03-6.91-.93-14.15,6.56-17.15Z" style="fill:#455a64;"></path><path d="M288.64,264.27s4.72-2.75,7.75-2.39c3.03,.36,6.14,4.29,6.14,4.29,0,0,3.82,.79,5.8,3.12,1.99,2.33,1.1,10.74-.25,12.15-1.35,1.41-3.9,5.5-8.01,5.27-4.11-.23-8.92,.17-11.69-3.46,0,0-3.13-1.01-4.64-6.17s-.69-10.56,4.9-12.81Z" style="fill:#FFC100; opacity:.1;"></path><path d="M293.23,265.02s3.13-1.82,5.13-1.59c2.01,.24,4.07,2.84,4.07,2.84,0,0,2.53,.53,3.84,2.07,1.32,1.54,.73,7.11-.17,8.05-.89,.93-2.58,3.64-5.31,3.49-2.72-.15-5.91,.11-7.74-2.29,0,0-2.07-.67-3.07-4.08-1-3.42-.46-7,3.24-8.48Z" style="fill:#FFC100; opacity:.3;"></path></g><g><path d="M250.13,329.19s-1.79-5.48-.75-8.52c1.04-3.04,5.78-5.38,5.78-5.38,0,0,1.66-3.76,4.5-5.29,2.84-1.53,11.31,1.24,12.46,2.94,1.15,1.7,4.8,5.23,3.66,9.42-1.14,4.19-1.8,9.23-6.15,11.28,0,0-1.73,3-7.38,3.42-5.65,.42-11.04-1.62-12.11-7.88Z" style="fill:#37474f;"></path><path d="M252.65,324.11s-1.23-3.75-.51-5.83c.71-2.08,3.95-3.68,3.95-3.68,0,0,1.14-2.57,3.08-3.62,1.95-1.05,7.75,.85,8.53,2.02,.79,1.16,3.29,3.58,2.5,6.45-.78,2.87-1.23,6.32-4.21,7.73,0,0-1.18,2.06-5.05,2.34-3.87,.29-7.56-1.11-8.29-5.4Z" style="fill:#FFC100; opacity:.1;"></path></g><g><path d="M250.86,298.57s-4.87-4.08-5.67-7.53c-.8-3.45,2.26-8.4,2.26-8.4,0,0-.64-4.48,1.12-7.57,1.76-3.09,11.3-5.44,13.37-4.52,2.07,.92,7.54,2.09,8.92,6.68,1.37,4.58,3.7,9.68,.83,14.14,0,0,.14,3.82-4.91,7.51-5.04,3.69-11.27,4.92-15.92-.3Z" style="fill:#37474f;"></path><path d="M250.84,292.46s-3.64-3.04-4.24-5.62c-.6-2.58,2.38-4.86,2.38-4.86,0,0-2.5-3.49,.15-7.07,1.58-2.14,8.44-4.06,9.99-3.38,1.54,.68,5.63,1.56,6.66,4.99,1.03,3.42,2.76,7.23,.62,10.56,0,0,.1,2.85-3.66,5.61-3.77,2.75-8.42,3.68-11.89-.23Z" style="fill:#FFC100; opacity:.1;"></path><path d="M250.68,288.78s-2.49-2.09-2.9-3.85c-.41-1.77,1.63-3.33,1.63-3.33,0,0-1.71-2.39,.1-4.84,1.08-1.46,5.79-2.78,6.85-2.31s3.86,1.07,4.56,3.42c.7,2.35,1.89,4.95,.42,7.24,0,0,.07,1.95-2.51,3.84-2.58,1.89-5.77,2.52-8.15-.16Z" style="fill:#FFC100; opacity:.3;"></path></g><g><path d="M279.88,261.97s4.24,.23,6.06,3.03c1.83,2.79,6.8,6.4,6.08,11.74-.72,5.34-6.63,11.03-6.63,11.03,0,0-1.24,5.6-8.53,9.11-7.29,3.51-13.04,.67-16.39-2.77-3.35-3.44-1.73-13.21-1.73-13.21,0,0,.22-14.42,10.28-17.12,0,0,4.34-6.7,10.86-1.81Z" style="fill:#455a64;"></path><path d="M278.09,261.88s2.97,.16,4.26,2.12c1.28,1.96,4.77,4.49,4.27,8.24-.51,3.75-4.65,7.75-4.65,7.75,0,0-.87,3.93-5.99,6.4s-9.15,.47-11.51-1.95c-2.35-2.42-1.22-9.27-1.22-9.27,0,0,.15-10.12,7.22-12.02,0,0,3.04-4.7,7.63-1.27Z" style="fill:#FFC100; opacity:.1;"></path><path d="M276.99,261.88s1.85,.1,2.65,1.32c.8,1.22,2.97,2.8,2.66,5.13s-2.9,4.83-2.9,4.83c0,0-.54,2.45-3.73,3.99-3.19,1.54-5.7,.29-7.17-1.21-1.47-1.51-.76-5.78-.76-5.78,0,0,.09-6.31,4.5-7.49,0,0,1.9-2.93,4.75-.79Z" style="fill:#FFC100; opacity:.3;"></path></g><g><path d="M255.64,285.42s7.25-3,11.1,.4c3.85,3.4,9.43,11.29,9.2,14.18-.23,2.89-1.21,4.04-1.21,4.04,0,0,.74,8.33-3.39,13.9-4.13,5.58-13.69,6.75-18.05,5.02-4.37-1.73-13.08-6.81-12.34-13.78,0,0-4.37-6.69,1.62-11.38,0,0-.29-11.42,13.08-12.38Z" style="fill:#455a64;"></path><path d="M254.78,285.96s5.62-2.32,8.6,.31c2.98,2.64,7.31,8.75,7.13,10.99-.18,2.24-.94,3.13-.94,3.13,0,0,.58,6.46-2.63,10.78-3.2,4.32-10.61,5.23-14,3.89-3.39-1.34-10.14-5.28-9.57-10.69,0,0-3.39-5.18,1.26-8.83,0,0-.22-8.85,10.14-9.6Z" style="fill:#FFC100; opacity:.1;"></path><path d="M255.02,286.45s3.32-1.37,5.08,.18c1.76,1.56,4.31,5.16,4.21,6.48-.11,1.32-.56,1.85-.56,1.85,0,0,.34,3.81-1.55,6.36-1.89,2.55-6.26,3.09-8.26,2.3-2-.79-5.98-3.12-5.64-6.3,0,0-2-3.06,.74-5.21,0,0-.13-5.22,5.98-5.66Z" style="fill:#FFC100; opacity:.3;"></path></g></g><g><path d="M194.91,311.47s-5.17-.03-6.64-3.08c-1.47-3.05-2.85-9.27-1.97-10.97,.88-1.7,1.77-2.15,1.77-2.15,0,0,1.67-5.25,5.61-7.59,3.94-2.34,10.04-.61,12.25,1.56,2.21,2.17,6.21,7.48,3.98,11.53,0,0,.95,5.18-3.89,6.51,0,0-2.74,7.01-11.11,4.19Z" style="fill:#263238;"></path><path d="M216.65,308.31s5.48-1.79,8.52-.75c3.04,1.04,5.38,5.78,5.38,5.78,0,0,3.76,1.66,5.29,4.5,1.53,2.84-1.24,11.31-2.94,12.46-1.7,1.15-5.23,4.8-9.42,3.66-4.19-1.14-9.23-1.8-11.28-6.16,0,0-3-1.73-3.42-7.38-.42-5.65,1.62-11.04,7.88-12.11Z" style="fill:#263238;"></path><path d="M220.97,315.09s-2.14,4.71-5.52,4.81-9.62-1.18-10.82-2.68c-1.19-1.5-1.24-2.49-1.24-2.49,0,0-4.11-3.67-4.63-8.22-.52-4.55,3.55-9.41,6.43-10.55,2.88-1.13,9.36-2.61,12.15,1.08,0,0,5.12,1.25,4.35,6.21,0,0,5.28,5.37-.72,11.85Z" style="fill:#263238;"></path><g><path d="M215.62,334.48s-9.45-3.16-10.81-3.28c-1.36-.12-5.94,1.47-7.03,2.44s-11.05,9.35-11.05,9.35c0,0-7.55-5.14-8.21-5.98-.66-.84-3.86-7.61-3.86-7.61,0,0,12.9-13.54,14.22-14.64,1.32-1.09,.65-13.64,.65-13.64l3.66-1.13,1.65,9.35s2.7-4.38,2.97-4.98c.27-.6,.45-6.39,.45-6.39l6.03,1.14s1.54,6.94,1.5,8.14c-.04,1.2-2.59,6.94-2.59,6.94,0,0,6.52-3.31,7.63-3.77,1.11-.45,12.64,.42,12.64,.42l-.52,8.52s-8.26,.67-9.9,1.34c-1.64,.67-5,2.96-5,2.96,0,0,4.32,2.48,5.35,3.53,1.03,1.05,4.3,4.12,4.3,4.12l-1.6,2.76" style="fill:#455a64;"></path><path d="M215.62,334.48s-9.45-3.16-10.81-3.28c-1.36-.12-5.94,1.47-7.03,2.44s-11.05,9.35-11.05,9.35c0,0-7.55-5.14-8.21-5.98-.66-.84-3.86-7.61-3.86-7.61,0,0,12.9-13.54,14.22-14.64,1.32-1.09,.65-13.64,.65-13.64l3.66-1.13,1.65,9.35s2.7-4.38,2.97-4.98c.27-.6,.45-6.39,.45-6.39l6.03,1.14s1.54,6.94,1.5,8.14c-.04,1.2-2.59,6.94-2.59,6.94,0,0,6.52-3.31,7.63-3.77,1.11-.45,12.64,.42,12.64,.42l-.52,8.52s-8.26,.67-9.9,1.34c-1.64,.67-5,2.96-5,2.96,0,0,4.32,2.48,5.35,3.53,1.03,1.05,4.3,4.12,4.3,4.12l-1.6,2.76" style="fill:#FFC100; opacity:.3;"></path></g><g><path d="M222.87,348.17s-5.17-.03-6.64-3.08-2.85-9.27-1.97-10.97c.88-1.7,1.77-2.15,1.77-2.15,0,0,1.67-5.25,5.61-7.59,3.94-2.34,10.04-.61,12.25,1.56,2.21,2.17,6.21,7.48,3.98,11.53,0,0,.95,5.18-3.89,6.51,0,0-2.74,7.01-11.11,4.19Z" style="fill:#37474f;"></path><path d="M224.9,347.3s-3.68-.02-4.73-2.19c-1.05-2.17-2.03-6.6-1.41-7.81,.63-1.21,1.26-1.53,1.26-1.53,0,0,1.19-3.74,3.99-5.4s7.15-.43,8.73,1.11c1.58,1.54,4.42,5.33,2.83,8.21,0,0,.68,3.69-2.77,4.63,0,0-1.95,4.99-7.91,2.98Z" style="fill:#FFC100; opacity:.1;"></path><path d="M227.94,345.32s-2.24-.01-2.87-1.33c-.64-1.32-1.23-4.01-.85-4.75,.38-.73,.77-.93,.77-.93,0,0,.72-2.27,2.43-3.28,1.7-1.01,4.35-.26,5.3,.67,.96,.94,2.69,3.24,1.72,4.99,0,0,.41,2.24-1.68,2.82,0,0-1.19,3.04-4.81,1.81Z" style="fill:#FFC100; opacity:.3;"></path></g><g><path d="M246.42,310.8s3.69,6.33,3.21,10.38c-.48,4.06-5.74,8.23-5.74,8.23,0,0-1.06,5.11-4.18,7.77-3.12,2.66-14.39,1.47-16.27-.33-1.88-1.8-7.36-5.22-7.05-10.73,.3-5.51-.22-11.94,4.64-15.66,0,0,1.35-4.19,8.26-6.22,6.91-2.03,14.15-.93,17.15,6.56Z" style="fill:#455a64;"></path><path d="M245.64,315.62s2.75,4.73,2.39,7.75c-.36,3.03-4.29,6.14-4.29,6.14,0,0-.79,3.82-3.12,5.8-2.33,1.99-10.74,1.1-12.15-.25s-5.5-3.9-5.27-8.01c.23-4.11-.17-8.92,3.46-11.69,0,0,1.01-3.13,6.17-4.64,5.16-1.51,10.56-.69,12.81,4.9Z" style="fill:#FFC100; opacity:.1;"></path><path d="M244.89,320.21s1.82,3.13,1.58,5.13c-.24,2.01-2.84,4.07-2.84,4.07,0,0-.53,2.53-2.07,3.84-1.54,1.32-7.11,.73-8.05-.16-.93-.89-3.64-2.58-3.49-5.31,.15-2.72-.11-5.91,2.29-7.74,0,0,.67-2.07,4.08-3.08,3.42-1,7-.46,8.48,3.25Z" style="fill:#FFC100; opacity:.3;"></path></g><g><path d="M180.72,277.11s5.48-1.79,8.52-.75c3.04,1.04,5.38,5.78,5.38,5.78,0,0,3.76,1.66,5.29,4.5,1.53,2.84-1.24,11.31-2.94,12.46-1.7,1.15-5.23,4.8-9.42,3.66-4.19-1.14-9.23-1.8-11.28-6.15,0,0-3-1.73-3.42-7.38-.42-5.65,1.62-11.04,7.88-12.11Z" style="fill:#37474f;"></path><path d="M185.8,279.63s3.75-1.23,5.83-.51c2.08,.71,3.68,3.95,3.68,3.95,0,0,2.57,1.14,3.62,3.08,1.05,1.95-.85,7.75-2.02,8.53-1.16,.79-3.58,3.29-6.45,2.5-2.87-.78-6.32-1.23-7.73-4.21,0,0-2.06-1.18-2.34-5.05-.29-3.87,1.11-7.56,5.4-8.29Z" style="fill:#FFC100; opacity:.1;"></path></g><g><path d="M211.34,277.84s4.08-4.87,7.53-5.67c3.45-.8,8.4,2.26,8.4,2.26,0,0,4.48-.64,7.57,1.12,3.09,1.76,5.44,11.3,4.52,13.37-.92,2.07-2.09,7.54-6.68,8.92-4.58,1.37-9.68,3.7-14.14,.83,0,0-3.82,.14-7.51-4.91-3.69-5.04-4.92-11.27,.3-15.92Z" style="fill:#37474f;"></path><path d="M217.45,277.82s3.04-3.64,5.62-4.24c2.58-.6,4.86,2.38,4.86,2.38,0,0,3.49-2.5,7.07,.15,2.14,1.58,4.06,8.44,3.38,9.99-.69,1.54-1.56,5.63-4.99,6.66-3.42,1.03-7.23,2.76-10.56,.62,0,0-2.85,.1-5.61-3.66-2.75-3.77-3.68-8.42,.23-11.89Z" style="fill:#FFC100; opacity:.1;"></path><path d="M221.13,277.66s2.09-2.49,3.85-2.9c1.77-.41,3.33,1.63,3.33,1.63,0,0,2.39-1.71,4.84,.1,1.46,1.08,2.78,5.79,2.31,6.85s-1.07,3.86-3.42,4.56c-2.35,.7-4.95,1.89-7.24,.42,0,0-1.95,.07-3.84-2.51-1.89-2.58-2.52-5.77,.16-8.15Z" style="fill:#FFC100; opacity:.3;"></path></g><g><path d="M247.94,306.86s-.23,4.24-3.03,6.06c-2.79,1.83-6.4,6.8-11.74,6.08-5.34-.72-11.03-6.63-11.03-6.63,0,0-5.6-1.24-9.11-8.53-3.51-7.29-.67-13.04,2.77-16.39,3.44-3.35,13.21-1.73,13.21-1.73,0,0,14.42,.22,17.12,10.28,0,0,6.7,4.34,1.81,10.86Z" style="fill:#455a64;"></path><path d="M248.03,305.07s-.16,2.97-2.12,4.26c-1.96,1.28-4.49,4.77-8.24,4.27-3.75-.51-7.75-4.65-7.75-4.65,0,0-3.93-.87-6.4-5.99-2.47-5.12-.47-9.15,1.95-11.51,2.42-2.35,9.27-1.22,9.27-1.22,0,0,10.12,.15,12.02,7.22,0,0,4.7,3.04,1.27,7.63Z" style="fill:#FFC100; opacity:.1;"></path><path d="M248.03,303.97s-.1,1.85-1.32,2.65c-1.22,.8-2.8,2.97-5.13,2.66-2.34-.32-4.83-2.9-4.83-2.9,0,0-2.45-.54-3.99-3.73-1.54-3.19-.29-5.7,1.21-7.17,1.51-1.47,5.78-.76,5.78-.76,0,0,6.31,.09,7.49,4.5,0,0,2.93,1.9,.79,4.75Z" style="fill:#FFC100; opacity:.3;"></path></g><g><path d="M224.49,282.62s3,7.25-.4,11.1c-3.4,3.85-11.29,9.43-14.18,9.2-2.89-.23-4.04-1.21-4.04-1.21,0,0-8.33,.74-13.9-3.39-5.58-4.13-6.75-13.69-5.02-18.05,1.73-4.37,6.81-13.08,13.78-12.34,0,0,6.69-4.37,11.38,1.62,0,0,11.42-.29,12.38,13.08Z" style="fill:#455a64;"></path><path d="M223.94,281.76s2.32,5.62-.31,8.6c-2.64,2.98-8.75,7.31-10.99,7.13s-3.13-.94-3.13-.94c0,0-6.46,.58-10.78-2.63-4.33-3.2-5.23-10.61-3.89-14,1.34-3.39,5.28-10.14,10.69-9.57,0,0,5.18-3.39,8.83,1.26,0,0,8.85-.22,9.6,10.14Z" style="fill:#FFC100; opacity:.1;"></path><path d="M223.46,282s1.37,3.32-.18,5.08c-1.56,1.76-5.16,4.31-6.48,4.21-1.32-.11-1.85-.56-1.85-.56,0,0-3.81,.34-6.36-1.55-2.55-1.89-3.09-6.26-2.3-8.26,.79-2,3.12-5.98,6.3-5.64,0,0,3.06-2,5.21,.74,0,0,5.22-.13,5.66,5.98Z" style="fill:#FFC100; opacity:.3;"></path></g></g><g><path d="M240.49,343.05s-2.53,4.51-5.91,4.31c-3.38-.19-9.49-2.01-10.54-3.6-1.06-1.59-1.02-2.59-1.02-2.59,0,0-3.78-4.01-3.91-8.59-.13-4.57,4.34-9.07,7.31-9.96,2.97-.88,9.55-1.8,12.01,2.12,0,0,4.99,1.68,3.8,6.56,0,0,4.8,5.8-1.74,11.74Z" style="fill:#263238;"></path><path d="M248.28,322.51s1.09-5.66,3.48-7.81c2.39-2.15,7.66-1.9,7.66-1.9,0,0,3.28-2.48,6.5-2.44,3.23,.04,9.29,6.58,9.47,8.63,.18,2.04,1.66,6.91-1.38,10.01-3.03,3.11-6.06,7.19-10.86,6.88,0,0-2.97,1.79-8.11-.59-5.14-2.38-8.86-6.78-6.76-12.77Z" style="fill:#263238;"></path><path d="M256.31,322.03s3.08,4.16,1.52,7.16c-1.56,3.01-5.71,7.84-7.59,8.15-1.89,.32-2.78-.13-2.78-.13,0,0-5.21,1.81-9.44,.06-4.23-1.75-6.51-7.67-6.1-10.74,.41-3.07,2.26-9.46,6.84-10.1,0,0,3.58-3.87,7.54-.79,0,0,7.26-2.01,10.01,6.38Z" style="fill:#263238;"></path><g><path d="M270.66,336.12s-7.35,6.73-8.12,7.86c-.77,1.13-1.6,5.9-1.28,7.33,.32,1.43,2.81,14.2,2.81,14.2,0,0-8.16,4.11-9.21,4.28-1.05,.17-8.53-.32-8.53-.32,0,0-5.58-17.85-5.89-19.53-.31-1.68-11.61-7.19-11.61-7.19l.79-3.74,8.97,3.1s-2.52-4.49-2.91-5.01c-.39-.53-5.37-3.5-5.37-3.5l3.92-4.72s6.82,2.03,7.84,2.64c1.03,.61,4.81,5.63,4.81,5.63,0,0,.27-7.31,.41-8.5,.14-1.19,6.5-10.84,6.5-10.84l7.19,4.59s-3.43,7.55-3.64,9.3c-.21,1.76,.16,5.8,.16,5.8,0,0,4.27-2.57,5.68-2.96,1.42-.39,5.68-1.76,5.68-1.76l1.64,2.73" style="fill:#455a64;"></path><path d="M270.66,336.12s-7.35,6.73-8.12,7.86c-.77,1.13-1.6,5.9-1.28,7.33,.32,1.43,2.81,14.2,2.81,14.2,0,0-8.16,4.11-9.21,4.28-1.05,.17-8.53-.32-8.53-.32,0,0-5.58-17.85-5.89-19.53-.31-1.68-11.61-7.19-11.61-7.19l.79-3.74,8.97,3.1s-2.52-4.49-2.91-5.01c-.39-.53-5.37-3.5-5.37-3.5l3.92-4.72s6.82,2.03,7.84,2.64c1.03,.61,4.81,5.63,4.81,5.63,0,0,.27-7.31,.41-8.5,.14-1.19,6.5-10.84,6.5-10.84l7.19,4.59s-3.43,7.55-3.64,9.3c-.21,1.76,.16,5.8,.16,5.8,0,0,4.27-2.57,5.68-2.96,1.42-.39,5.68-1.76,5.68-1.76l1.64,2.73" style="fill:#FFC100; opacity:.3;"></path></g><g><path d="M286.14,336.43s-2.53,4.51-5.91,4.31c-3.38-.19-9.49-2.01-10.54-3.6-1.06-1.59-1.02-2.59-1.02-2.59,0,0-3.78-4.01-3.91-8.59-.13-4.58,4.34-9.07,7.31-9.96,2.97-.88,9.55-1.8,12.01,2.12,0,0,4.99,1.68,3.8,6.56,0,0,4.8,5.8-1.74,11.74Z" style="fill:#37474f;"></path><path d="M286.37,334.23s-1.81,3.21-4.21,3.07c-2.41-.14-6.76-1.43-7.51-2.56s-.72-1.84-.72-1.84c0,0-2.69-2.86-2.78-6.12-.09-3.26,3.09-6.46,5.21-7.09,2.11-.63,6.8-1.28,8.55,1.51,0,0,3.55,1.2,2.7,4.67,0,0,3.42,4.13-1.24,8.36Z" style="fill:#FFC100; opacity:.1;"></path><path d="M286.12,330.61s-1.1,1.95-2.56,1.87c-1.46-.08-4.11-.87-4.56-1.56-.46-.69-.44-1.12-.44-1.12,0,0-1.63-1.74-1.69-3.72-.06-1.98,1.88-3.93,3.16-4.31,1.28-.38,4.14-.78,5.2,.92,0,0,2.16,.73,1.64,2.84,0,0,2.08,2.51-.75,5.08Z" style="fill:#FFC100; opacity:.3;"></path></g><g><path d="M264.91,297.69s7.32-.15,10.63,2.24c3.31,2.39,4.4,9.01,4.4,9.01,0,0,3.95,3.41,4.76,7.43,.81,4.02-5.7,13.29-8.19,14.06-2.49,.77-8.14,3.9-12.8,.96-4.67-2.94-10.55-5.6-11.44-11.66,0,0-3.01-3.21-1.43-10.24,1.58-7.02,6.06-12.82,14.06-11.8Z" style="fill:#455a64;"></path><path d="M268.75,300.71s5.47-.11,7.94,1.67c2.47,1.79,3.29,6.73,3.29,6.73,0,0,2.95,2.55,3.56,5.55,.6,3-4.26,9.93-6.12,10.5-1.86,.58-6.08,2.91-9.56,.71-3.48-2.2-7.88-4.19-8.54-8.71,0,0-2.25-2.4-1.07-7.65,1.18-5.25,4.53-9.57,10.5-8.82Z" style="fill:#FFC100; opacity:.1;"></path><path d="M272.39,303.6s3.62-.07,5.26,1.11c1.64,1.18,2.18,4.46,2.18,4.46,0,0,1.95,1.69,2.35,3.67,.4,1.99-2.82,6.57-4.05,6.95-1.23,.38-4.02,1.93-6.33,.47-2.31-1.45-5.22-2.77-5.66-5.77,0,0-1.49-1.59-.71-5.06,.78-3.47,3-6.34,6.95-5.84Z" style="fill:#FFC100; opacity:.3;"></path></g><g><path d="M203.56,338.77s1.09-5.66,3.48-7.81c2.39-2.15,7.66-1.9,7.66-1.9,0,0,3.28-2.48,6.5-2.44,3.23,.04,9.29,6.58,9.47,8.63,.18,2.04,1.65,6.91-1.38,10.01-3.03,3.11-6.06,7.19-10.86,6.88,0,0-2.97,1.79-8.11-.59-5.14-2.38-8.86-6.78-6.76-12.77Z" style="fill:#37474f;"></path><path d="M208.23,335.55s.75-3.87,2.38-5.35c1.63-1.47,5.25-1.3,5.25-1.3,0,0,2.24-1.7,4.45-1.67,2.21,.03,6.36,4.51,6.48,5.91,.12,1.4,1.13,4.73-.94,6.85-2.08,2.13-4.15,4.92-7.43,4.71,0,0-2.03,1.22-5.56-.41-3.52-1.63-6.07-4.64-4.63-8.74Z" style="fill:#FFC100; opacity:.1;"></path></g><g><path d="M219.07,312.35s-2.28-5.93-1.3-9.33c.98-3.41,6.06-6.25,6.06-6.25,0,0,1.62-4.23,4.66-6.07,3.04-1.84,12.52,.74,13.88,2.54,1.36,1.81,5.58,5.49,4.55,10.17-1.02,4.67-1.47,10.26-6.14,12.76,0,0-1.73,3.4-7.93,4.18-6.2,.78-12.24-1.17-13.77-8Z" style="fill:#37474f;"></path><path d="M222.01,307.01s-1.7-4.43-.97-6.97c.73-2.54,4.44-3.09,4.44-3.09,0,0-.49-4.26,3.56-6.11,2.42-1.1,9.35,.55,10.37,1.9,1.02,1.35,4.17,4.1,3.4,7.59-.77,3.49-1.09,7.66-4.59,9.53,0,0-1.3,2.54-5.92,3.12-4.63,.58-9.14-.87-10.29-5.97Z" style="fill:#FFC100; opacity:.1;"></path><path d="M223.66,303.71s-1.17-3.04-.67-4.78c.5-1.74,3.05-2.12,3.05-2.12,0,0-.34-2.92,2.44-4.19,1.66-.75,6.41,.38,7.11,1.3,.7,.92,2.86,2.81,2.33,5.2-.52,2.39-.75,5.25-3.15,6.53,0,0-.89,1.74-4.06,2.14-3.17,.4-6.27-.6-7.05-4.09Z" style="fill:#FFC100; opacity:.3;"></path></g><g><path d="M262.21,294.46s3.59,2.26,3.83,5.59c.24,3.33,2.84,8.89-.39,13.21-3.22,4.32-11.15,6.43-11.15,6.43,0,0-3.81,4.29-11.88,3.82-8.08-.47-11.72-5.75-12.98-10.38-1.26-4.64,4.9-12.39,4.9-12.39,0,0,7.19-12.5,17.3-9.97,0,0,7.04-3.75,10.37,3.7Z" style="fill:#455a64;"></path><path d="M260.69,293.5s2.52,1.59,2.69,3.92c.17,2.34,1.99,6.24-.27,9.28-2.26,3.03-7.83,4.51-7.83,4.51,0,0-2.67,3.01-8.34,2.68-5.67-.33-8.23-4.04-9.11-7.29-.88-3.25,3.44-8.7,3.44-8.7,0,0,5.05-8.78,12.15-7,0,0,4.94-2.63,7.28,2.59Z" style="fill:#FFC100; opacity:.1;"></path><path d="M259.72,292.97s1.57,.99,1.68,2.44c.11,1.46,1.24,3.89-.17,5.78-1.41,1.89-4.88,2.81-4.88,2.81,0,0-1.66,1.88-5.2,1.67-3.53-.2-5.13-2.51-5.68-4.54-.55-2.03,2.14-5.42,2.14-5.42,0,0,3.14-5.47,7.57-4.36,0,0,3.08-1.64,4.54,1.62Z" style="fill:#FFC100; opacity:.3;"></path></g><g><path d="M229.63,303.18s7.79,.9,9.5,5.74c1.71,4.84,2.76,14.44,1.16,16.86-1.61,2.41-3.02,2.94-3.02,2.94,0,0-3.39,7.64-9.71,10.51-6.32,2.87-15.24-.75-18.22-4.38-2.98-3.63-8.12-12.31-4.09-18.04,0,0-.58-7.97,6.94-9.16,0,0,5.29-10.12,17.44-4.47Z" style="fill:#455a64;"></path><path d="M228.61,303.24s6.04,.7,7.37,4.45c1.33,3.75,2.14,11.2,.9,13.07-1.24,1.87-2.34,2.28-2.34,2.28,0,0-2.63,5.92-7.53,8.15-4.9,2.23-11.82-.58-14.13-3.39-2.31-2.82-6.3-9.54-3.17-13.99,0,0-.45-6.18,5.38-7.1,0,0,4.1-7.85,13.52-3.47Z" style="fill:#FFC100; opacity:.1;"></path><path d="M228.59,303.78s3.56,.41,4.35,2.63c.78,2.21,1.26,6.61,.53,7.71-.73,1.1-1.38,1.35-1.38,1.35,0,0-1.55,3.49-4.44,4.81-2.89,1.31-6.97-.34-8.33-2-1.36-1.66-3.72-5.63-1.87-8.25,0,0-.26-3.65,3.18-4.19,0,0,2.42-4.63,7.98-2.04Z" style="fill:#FFC100; opacity:.3;"></path></g></g></g><g><path d="M348.6,329.19s-25.57,85.62-59.01,85.62H112.54c-33.44,0-59.01-85.62-59.01-85.62H348.6Z" style="fill:#FFC100;"></path><g><path d="M344.67,340.96c-.9,2.49-1.93,5.29-3.11,8.31H60.57c-1.17-3.02-2.21-5.82-3.1-8.31H344.67Z" style="opacity:.1;"></path><path d="M339.19,355.23c-.56,1.36-1.15,2.75-1.75,4.16H64.7c-.61-1.41-1.19-2.8-1.75-4.16H339.19Z" style="opacity:.1;"></path></g><path d="M348.6,329.19s-1.39,4.64-3.93,11.77c-.9,2.49-1.93,5.29-3.11,8.31-.73,1.91-1.53,3.9-2.37,5.96-.56,1.36-1.15,2.75-1.75,4.16-10.58,24.65-27.8,55.42-47.85,55.42H145.08c26.2,0,110.33-2.02,130.62-20.98,18.64-17.42,34.2-58.18,36.59-64.64h36.31Z" style="opacity:.1;"></path></g></g></g><g id="freepik--Character_hand_2--inject-95"><g><g><path d="M567.19,473.89c.03,1.45,.05,3.32,.1,5.58v.02c0,.2,0,.41,0,.62,.12,6.09,.29,4.8,.56,15.48,0,.32,.02,.64,.03,.96,.03,1.13,.05,2.27,.09,3.44h100.64c.93-11.33,1.48-36.4,1.63-37.47,1.79-13.41-103.41-8.38-103.05,11.36Z" style="fill:#f7a9a0;"></path><g><path d="M670.25,464.17c1.96-26.44-10.93-56.93-24.9-66.3-7.91-5.31-34.41-9.15-54.59-16.94-36.27-14.01-44.17-9.11-43.92-1.79,.39,11.24,29.85,29.63,29.85,29.63,0,0-72.45-1.83-94.37-8.75-16.29-5.14-27.34,3.48-12.29,15.61,0,0,6.99-8.74,3.48-9.99-20.29-7.22-31.36,4.64-24.56,11.25,14.82,14.43,46.67,23.36,58.47,26.61,26.85,7.4,46.5,15.68,48.54,17.43,9.08,7.76,23.26,38.04,23.26,38.04l91.02-34.81Z" style="fill:#f7a9a0;"></path><g><path d="M463.66,403.41c1.12,12.12,23.42,19.8,33.48,23.18,13.76,4.29,27.72,8.12,41.25,13.19-7.13-1.32-14.18-2.93-21.2-4.65-14.03-3.54-28.51-6.86-40.97-14.67-5.59-3.64-13.23-9.63-12.56-17.04h0Z" style="fill:#263238;"></path><path d="M576.69,408.77c3.58,1.19,6.91,2.91,9.94,5.15,.21,.15,.53,.44,.75,.67,1.03,1.06,2.28,1.89,3.6,2.78,4.6,3.05,9.43,5.84,13.95,9.11-5.49-1.48-10.66-3.7-15.54-6.64-1.62-.98-3.27-2.21-4.63-3.68-2.77-2.35-5.67-4.61-8.07-7.39h0Z" style="fill:#263238;"></path></g></g></g><path d="M557.54,484.21c.3,3.04,1.13,1.67,2.55,15.79h115.53c.84-12.99,1.38-12.16,1.61-15.79h-119.68Z" style="fill:#FFC100;"></path></g></g><g id="freepik--Character_hand_1--inject-95"><g><g><path d="M182.83,473.89c-.03,1.45-.05,3.32-.1,5.58v.02c0,.2,0,.41,0,.62-.12,6.09-.29,4.8-.56,15.48,0,.32-.02,.64-.03,.96-.03,1.13-.05,2.27-.09,3.44H81.41c-.93-11.33-1.48-36.4-1.63-37.47-1.79-13.41,103.41-8.38,103.05,11.36Z" style="fill:#d3766a;"></path><g><path d="M79.78,464.17c-1.96-26.44,10.93-56.93,24.9-66.3,7.91-5.31,34.41-9.15,54.59-16.94,36.27-14.01,44.17-9.11,43.92-1.79-.39,11.24-29.85,29.63-29.85,29.63,0,0,72.45-1.83,94.37-8.75,16.29-5.14,27.34,3.48,12.29,15.61,0,0-6.99-8.74-3.48-9.99,20.29-7.22,31.36,4.64,24.56,11.25-14.82,14.43-46.67,23.36-58.47,26.61-26.85,7.4-46.5,15.68-48.54,17.43-9.08,7.76-23.26,38.04-23.26,38.04l-91.02-34.81Z" style="fill:#d3766a;"></path><g><path d="M286.36,403.41c.68,7.41-6.98,13.41-12.56,17.04-12.47,7.81-26.94,11.13-40.97,14.67-7.02,1.72-14.07,3.33-21.2,4.65,13.54-5.06,27.49-8.9,41.25-13.19,10.06-3.38,32.35-11.04,33.48-23.18h0Z" style="fill:#263238;"></path><path d="M173.33,408.77c-2.4,2.78-5.3,5.04-8.07,7.39-1.36,1.47-3.01,2.71-4.63,3.68-4.88,2.94-10.05,5.16-15.54,6.64,4.52-3.28,9.35-6.06,13.95-9.11,1.32-.9,2.57-1.73,3.6-2.78,.22-.22,.54-.51,.75-.67,3.04-2.23,6.36-3.96,9.94-5.15h0Z" style="fill:#263238;"></path></g></g></g><path d="M192.48,484.21c-.3,3.04-1.13,1.67-2.55,15.79H74.4c-.84-12.99-1.38-12.16-1.61-15.79h119.68Z" style="fill:#455a64;"></path></g></g><g id="freepik--Speech_Bubble_2--inject-95"><g><g><polygon points="592.3 44.55 592.3 131.24 556.21 131.24 548.94 145.8 541.68 131.24 505.6 131.24 505.6 44.55 592.3 44.55" style="fill:#fff;"></polygon><path d="M592.3,44.55c.11,21.78,.31,65.23,.32,87.01-.29,.06-36.1,.02-36.41,.07l.35-.22-7.24,14.58-.37,.75-.38-.75-7.29-14.55,.4,.25-36.09,.04h-.49v-.48c.18-.42,.03-86.65,.16-87.02,21.78,.06,65.25,.17,87.02,.32h0Zm0,0c-21.61,.16-65.1,.27-86.7,.32,.82-2.04,.25,86.82,.48,86.37l-.48-.48,36.09,.04h.28l.12,.25,7.23,14.58h-.75l7.29-14.55,.11-.22h.24l36.09,.07-.32,.32c.01-21.6,.21-65.1,.32-86.69h0Z" style="fill:#263238;"></path></g><g><rect x="544.94" y="63.29" width="8" height="49.64" transform="translate(223.08 -362.36) rotate(45)" style="fill:#455a64;"></rect><rect x="544.94" y="63.29" width="8" height="49.64" transform="translate(98.48 413.97) rotate(-45)" style="fill:#455a64;"></rect></g></g></g><g id="freepik--Speech_Bubble_1--inject-95"><g><g><polygon points="244.41 44.55 244.41 131.24 208.33 131.24 201.06 145.8 193.8 131.24 157.72 131.24 157.72 44.55 244.41 44.55" style="fill:#fff;"></polygon><path d="M244.42,44.55c.11,21.78,.31,65.23,.32,87.01-.29,.06-36.1,.02-36.41,.07l.35-.22-7.24,14.58-.37,.75-.38-.75-7.29-14.55,.4,.25-36.09,.04h-.49v-.48c.18-.42,.03-86.65,.16-87.02,21.78,.06,65.25,.17,87.02,.32h0Zm0,0c-21.61,.16-65.1,.27-86.7,.32,.82-2.04,.25,86.82,.48,86.37l-.48-.48,36.09,.04h.28l.12,.25,7.23,14.58h-.75l7.29-14.55,.11-.22h.24l36.09,.07-.32,.32c.01-21.6,.21-65.1,.32-86.69h0Z" style="fill:#263238;"></path></g><path d="M220.29,93.7c-8.76,11.59-19.22,16.68-19.22,16.68,0,0-10.45-5.09-19.21-16.68-6.77-8.95-6.43-22.97,3.25-26,10.7-3.35,15.96,12.76,15.96,12.76,0,0,5.34-16.21,15.97-12.76,9.64,3.14,10.01,17.05,3.25,26Z" style="fill:#FFC100;"></path></g></g></svg>
