<svg xmlns="http://www.w3.org/2000/svg" viewBox="0 0 500 500"><g id="freepik--Floor--inject-5"><g id="freepik--Bush--inject-5"><path d="M487.77,340c6.92-4.93,6.87-17.71-1.92-20.45,6.07-6.08,4.23-19.18-4.57-20,2.16-5.37,1.1-12.72-5.8-14.08,2.18-6.59-3.91-11.15-10-8.79-.26-6.94-10.1-7.34-12.31-2.45.12-2.69-3.91-7.67-6.49-7.68,4.46-3.49,3.23-10.48-.59-11.41,5.2-4,2.41-13-3.8-12.87,4.16-6.57-4.72-13.43-10.25-11.41,3.13-7.38-11.48-13.25-14.65-5.43.13-.31-1.22-1.59-1.45-1.81a9,9,0,0,0-1.89-1.39,11.65,11.65,0,0,0-4.57-1.37,15.26,15.26,0,0,0-9.56,2.27,11.41,11.41,0,0,0-3.69,3.69,9.37,9.37,0,0,0-1,2.35c-.3,1.16,0,2.28-.3,3.4a7.45,7.45,0,0,0-9,5.16,20.33,20.33,0,0,0-2.07-5.06,8.63,8.63,0,0,0-3.3-3.13c-1.47-.77-2.73-1.71-4.51-1.6,5.31-6.81-5.45-14.73-11.17-9.32-2.66-6.26-12.16-4.94-11.54,2.39-2.11-3.82-6.25-3.55-9.65-1.51-4.69,2.82-4.06,7.84-1.48,11.91-1.95-2.33-7.89-3.61-8.79.24a4.63,4.63,0,0,0-6.7-.76c-2.33-8.38-14.17-1.8-12.12,1.36A7.81,7.81,0,0,0,303.07,231c1.58-4.32-2.22-9.65-6.82-9.56a9.74,9.74,0,0,0-3.6-8.76c-2.68-1.93-6.89-1.72-8.94.87a7.2,7.2,0,0,0-13.27,5.44,5.92,5.92,0,0,0-9.12-1.69c-1.28-3-3.57-5.67-6.65-6.62s-6.94.33-8.2,3.31c-.52-3.06-4.86-4.65-7.23-2.64.56-3.44-2-7-5.4-7.87a9.7,9.7,0,0,0-9.44,3.09,14.3,14.3,0,0,0-3.35,9.65,5.62,5.62,0,0,0-8.16-1.28c1.31-1.15-2.94-4.22-3.72-4.45a7.92,7.92,0,0,0-7,2,8.1,8.1,0,0,0-2.33,7.29,8.13,8.13,0,0,0-10.53,5.67,8.74,8.74,0,0,0-14,2.08c.57-1.1-3.72-2.17-4.28-2.14a5.54,5.54,0,0,0-4.34,2.48,5.94,5.94,0,0,0-9.26-4.14,5,5,0,0,0-1.8-4.67c-2.62-2.05-6.22-.79-7.73,1.94.63-7.33-8.87-8.65-11.53-2.39-5.72-5.41-16.48,2.51-11.18,9.32-1.77-.11-3,.83-4.5,1.6a8.73,8.73,0,0,0-3.31,3.13,19.93,19.93,0,0,0-2.06,5.06,7.45,7.45,0,0,0-9-5.16c-.32-1.12,0-2.24-.31-3.4a8.69,8.69,0,0,0-1-2.35,11.32,11.32,0,0,0-3.69-3.69,15.23,15.23,0,0,0-9.56-2.27,11.65,11.65,0,0,0-4.57,1.37,9.49,9.49,0,0,0-1.89,1.39c-.22.22-1.57,1.5-1.45,1.81-3.16-7.82-17.77-1.95-14.65,5.43-5.52-2-14.41,4.84-10.24,11.41-6.22-.09-9,8.92-3.8,12.87-3.82.93-5.06,7.92-.6,11.41-2.58,0-6.6,5-6.48,7.68-2.22-4.89-12-4.49-12.32,2.45-6.11-2.36-12.21,2.2-10,8.79-6.9,1.36-8,8.71-5.81,14.08-8.79.81-10.63,13.91-4.56,20C6.5,322.26,6.45,335,13.37,340c-4.58,2.19-5,12.82,2.43,15.75-.2.18-.38.36-.56.54-4.39,4.69-.72,12.42,5.71,12.42H480.18c6.43,0,10.11-7.73,5.71-12.42-.17-.18-.36-.36-.55-.54C492.81,352.79,492.35,342.16,487.77,340Z" style="fill:#ebebeb"></path><g id="freepik--bush--inject-5"><path d="M78,246.32a7,7,0,0,1,9.94-.59,6.63,6.63,0,0,1,1.3,1.57,7,7,0,0,1,11.4,4A8.37,8.37,0,0,0,86.72,253a5.5,5.5,0,0,1,0-1.21,6.9,6.9,0,0,1,1-2.71,7.56,7.56,0,0,0-.73-.77,8.38,8.38,0,0,0-9.69-1A5.87,5.87,0,0,1,78,246.32Z" style="fill:#e0e0e0"></path><path d="M151.26,234.18a5.39,5.39,0,0,0-8.67.76,5.41,5.41,0,0,0-8.79,3.11,6.49,6.49,0,0,1,4.12-2.26,6.43,6.43,0,0,1,6.62,3.54,4.07,4.07,0,0,0,0-.92,5.47,5.47,0,0,0-.73-2.1,5.16,5.16,0,0,1,.56-.59,6.45,6.45,0,0,1,7.47-.79A4.8,4.8,0,0,0,151.26,234.18Z" style="fill:#e0e0e0"></path><path d="M68.18,273.65c-.8-1.11-4.37-.67-5.52-.45a7.72,7.72,0,0,0-5.86,10.08,6.23,6.23,0,0,0-6.91,9c-4.54-1-11.5-.23-15,3.21-2,1.88-2.69,5.12-1.22,7.39-.27-.42-3.84-.46-6.78,1.36a6.79,6.79,0,0,0-3,5.37c-.12,2.38,1,5.61,2.09,6.76-.23-.45-3,1.46-3.23,1.69a6.83,6.83,0,0,0-1.93,3A3.77,3.77,0,0,0,24,325.78a10.14,10.14,0,0,0-4.54,3.57,5.67,5.67,0,0,0-.51,5.56c1.18,2.29,4,3.13,6.47,3.75A7.13,7.13,0,0,0,23.66,345a4.91,4.91,0,0,0,5,3.71,6.78,6.78,0,0,0,3.2,12.5c-1.26-.07-2.21,2.55-2.53,3.39-.58,1.5-1.37,2.58-2.13,4.1H21c-6.43,0-10.1-7.73-5.71-12.42.18-.18.36-.36.56-.54-7.47-2.93-7-13.56-2.43-15.75C6.45,335,6.5,322.26,15.29,319.52c-6.07-6.08-4.23-19.18,4.56-20-2.15-5.37-1.09-12.72,5.81-14.08-2.19-6.59,3.91-11.15,10-8.79.27-6.94,10.1-7.34,12.32-2.45-.12-2.69,3.9-7.67,6.48-7.68-4.46-3.49-3.22-10.48.6-11.41-5.2-4-2.42-13,3.8-12.87-3.31-5.22,1.61-10.61,6.55-11.6-1.79,2-3.42,4.65-2.12,7.4,1.17,2.45,4.33,2.88,6.43,3.91-5,1.69-7.27,6.69-3.57,11.07-5.07.64-5.73,7.39-3.7,10.13,1.26-1.08,3.85-1.32,5.74-1,2.54.48,3.92,1.77,6.21,4.32C69.9,263,65.31,269.71,68.18,273.65Z" style="fill:#e0e0e0"></path></g><path d="M423.12,246.32a7,7,0,0,0-9.94-.59,7.15,7.15,0,0,0-1.3,1.57,7,7,0,0,0-11.4,4,8.47,8.47,0,0,1,5.34-2.93,8.36,8.36,0,0,1,8.59,4.6,5.49,5.49,0,0,0,0-1.21,6.9,6.9,0,0,0-.95-2.71,6.6,6.6,0,0,1,.73-.77,8.38,8.38,0,0,1,9.69-1A5.94,5.94,0,0,0,423.12,246.32Z" style="fill:#e0e0e0"></path><path d="M349.87,234.18a5.44,5.44,0,0,1,7.67-.45,5,5,0,0,1,1,1.21,5.42,5.42,0,0,1,8.8,3.11,6.52,6.52,0,0,0-4.12-2.26,6.45,6.45,0,0,0-6.63,3.54,4.75,4.75,0,0,1,0-.92,5.32,5.32,0,0,1,.74-2.1,6.21,6.21,0,0,0-.56-.59,6.47,6.47,0,0,0-7.48-.79A4.8,4.8,0,0,1,349.87,234.18Z" style="fill:#e0e0e0"></path><path d="M433,273.65c.8-1.11,4.37-.67,5.51-.45a7.72,7.72,0,0,1,5.87,10.08,6.23,6.23,0,0,1,6.91,9c4.53-1,11.5-.23,15.05,3.21,1.94,1.88,2.69,5.12,1.21,7.39.28-.42,3.85-.46,6.79,1.36a6.78,6.78,0,0,1,3,5.37c.12,2.38-1,5.61-2.08,6.76.23-.45,3,1.46,3.23,1.69a7,7,0,0,1,1.93,3,3.78,3.78,0,0,1-3.29,4.71,10.2,10.2,0,0,1,4.54,3.57,5.66,5.66,0,0,1,.5,5.56c-1.18,2.29-4,3.13-6.46,3.75a7.1,7.1,0,0,1,1.77,6.32,4.89,4.89,0,0,1-5,3.71,6.78,6.78,0,0,1-3.21,12.5c1.27-.07,2.22,2.55,2.54,3.39.58,1.5,1.37,2.58,2.12,4.1h6.29c6.43,0,10.11-7.73,5.71-12.42-.17-.18-.36-.36-.55-.54,7.47-2.93,7-13.56,2.43-15.75,6.92-4.93,6.87-17.71-1.92-20.45,6.07-6.08,4.23-19.18-4.57-20,2.16-5.37,1.1-12.72-5.8-14.08,2.18-6.59-3.91-11.15-10-8.79-.26-6.94-10.1-7.34-12.31-2.45.12-2.69-3.91-7.67-6.49-7.68,4.46-3.49,3.23-10.48-.59-11.41,5.2-4,2.41-13-3.8-12.87,3.31-5.22-1.62-10.61-6.55-11.6,1.79,2,3.42,4.65,2.12,7.4-1.17,2.45-4.33,2.88-6.43,3.91,5,1.69,7.27,6.69,3.56,11.07,5.08.64,5.73,7.39,3.7,10.13-1.25-1.08-3.84-1.32-5.73-1-2.55.48-3.92,1.77-6.21,4.32C431.24,263,435.82,269.71,433,273.65Z" style="fill:#e0e0e0"></path></g><path id="freepik--floor--inject-5" d="M86.59,271.5C-3.65,320.5-3.65,400,86.6,449s236.56,49,326.81,0,90.24-128.46,0-177.46S176.84,222.49,86.59,271.5Z" style="fill:#fafafa"></path></g><g id="freepik--Clouds--inject-5"><path id="freepik--Cloud--inject-5" d="M251.53,72.38a9.08,9.08,0,0,0-3-.55c-1-.07-1.28-.27-1.46-.47a7.11,7.11,0,0,0-8.55-2.53,5.47,5.47,0,0,0-6.45-3.65c.1-3-3.73-6.23-7.18-7s-6.19-.4-8.08,1.77c-2-3.95-9.94-5.06-14.22-3-2.47,1.2-4.56,2.43-5.58,4.69a9.43,9.43,0,0,0-.93,4.49c-1.67-1.47-5-1.87-7.24-1-2.41.93-2.59,2.74-2.71,4.59a8.37,8.37,0,0,0-4.38-.08c-1.51.45-2.38,1.64-2.18,2.6-1.19-.07-4.05.9-3.72,2.17.37,1.42,3.63,1.27,4.85,1.23a23.11,23.11,0,0,0,3.41-.54,5.15,5.15,0,0,0,1.77.34c2.08,0,2.95-.9,3.29-1.68,1,2.14,4.62,3.76,7.17,4.42,4.8,1.22,11.59.47,14.55-3.11a5.46,5.46,0,0,0,1.43,1.74,8.29,8.29,0,0,0,4.44,1.8c2,.18,7.26.44,8.76-2.7,1.05,2.09,5.76,3,9.34,2.53a15,15,0,0,0,4-1.21,24.16,24.16,0,0,0,2.3-1.39,1.92,1.92,0,0,1,2-.13,11.72,11.72,0,0,0,7.82,0C253,74.91,253.41,73.23,251.53,72.38Z" style="fill:#f0f0f0"></path><path id="freepik--cloud--inject-5" d="M307.94,100.74a6.58,6.58,0,0,0-2.29-.43c-.75-.06-1-.2-1.12-.36a5.49,5.49,0,0,0-6.59-2,4.2,4.2,0,0,0-5-2.81c.08-2.31-2.87-4.79-5.53-5.36s-4.76-.31-6.21,1.36c-1.56-3-7.65-3.89-10.95-2.29-1.9.93-3.51,1.88-4.29,3.61a7.28,7.28,0,0,0-.72,3.46,6.09,6.09,0,0,0-5.57-.78c-1.85.72-2,2.12-2.08,3.53a6.56,6.56,0,0,0-3.37-.06c-1.17.35-1.84,1.26-1.68,2-.92,0-3.12.7-2.87,1.67s2.79,1,3.73,1a18.53,18.53,0,0,0,2.63-.41,4,4,0,0,0,1.36.26c1.6,0,2.28-.7,2.53-1.29.78,1.64,3.56,2.89,5.52,3.39,3.7,1,8.92.37,11.2-2.39a4.11,4.11,0,0,0,1.1,1.34,6.32,6.32,0,0,0,3.42,1.39c1.52.14,5.59.33,6.74-2.08.81,1.6,4.44,2.34,7.19,1.94a11.07,11.07,0,0,0,3.09-.93,19,19,0,0,0,1.78-1.06,1.48,1.48,0,0,1,1.51-.11,9,9,0,0,0,6,0C309.07,102.68,309.39,101.39,307.94,100.74Z" style="fill:#f5f5f5"></path><path id="freepik--cloud--inject-5" d="M477.79,126.84a6.84,6.84,0,0,0-2.29-.42c-.75-.06-1-.21-1.13-.37a5.48,5.48,0,0,0-6.58-2,4.2,4.2,0,0,0-5-2.8c.08-2.31-2.87-4.8-5.53-5.37s-4.76-.31-6.21,1.36c-1.56-3-7.65-3.89-10.95-2.28-1.9.92-3.51,1.87-4.29,3.61a7.24,7.24,0,0,0-.72,3.45,6.06,6.06,0,0,0-5.57-.77c-1.85.71-2,2.11-2.09,3.53a6.41,6.41,0,0,0-3.36-.06c-1.17.34-1.84,1.26-1.68,2-.93,0-3.12.69-2.87,1.67s2.79,1,3.73.95a17,17,0,0,0,2.62-.42,3.84,3.84,0,0,0,1.37.26c1.6,0,2.27-.69,2.53-1.29.78,1.64,3.56,2.89,5.52,3.4,3.69.94,8.92.37,11.2-2.4a4.25,4.25,0,0,0,1.1,1.35,6.39,6.39,0,0,0,3.42,1.38c1.52.14,5.59.34,6.74-2.08.81,1.61,4.43,2.34,7.19,1.95a11.78,11.78,0,0,0,3.09-.93,18.87,18.87,0,0,0,1.77-1.07,1.5,1.5,0,0,1,1.52-.1,9,9,0,0,0,6,0C478.92,128.79,479.24,127.5,477.79,126.84Z" style="fill:#f5f5f5"></path><path id="freepik--cloud--inject-5" d="M80.47,164.45a6.85,6.85,0,0,0-2.3-.42c-.74-.06-1-.21-1.12-.37a5.49,5.49,0,0,0-6.58-1.94,4.21,4.21,0,0,0-5-2.81c.08-2.31-2.88-4.8-5.53-5.36s-4.77-.32-6.22,1.36c-1.55-3-7.65-3.89-10.95-2.29-1.89.93-3.5,1.87-4.29,3.61a7.25,7.25,0,0,0-.71,3.46,6.09,6.09,0,0,0-5.58-.78c-1.85.72-2,2.11-2.08,3.53a6.45,6.45,0,0,0-3.37-.06c-1.16.35-1.84,1.26-1.68,2-.92,0-3.12.7-2.86,1.67S25,167,26,167a18.4,18.4,0,0,0,2.62-.41,4.34,4.34,0,0,0,1.37.26c1.59,0,2.27-.7,2.53-1.3.78,1.65,3.55,2.9,5.52,3.4,3.69,1,8.92.37,11.2-2.39a3.88,3.88,0,0,0,1.1,1.34,6.39,6.39,0,0,0,3.41,1.38c1.52.15,5.6.34,6.74-2.07.81,1.6,4.44,2.33,7.2,1.94a10.91,10.91,0,0,0,3.08-.93,19.92,19.92,0,0,0,1.78-1.06,1.46,1.46,0,0,1,1.51-.11,9,9,0,0,0,6,0C81.59,166.4,81.91,165.11,80.47,164.45Z" style="fill:#f5f5f5"></path></g><g id="freepik--Plants--inject-5"><g id="freepik--plants--inject-5"><path d="M102.64,378.67a.4.4,0,0,1-.22-.3c-3.56-17.82-20.25-29.21-27.37-34.08-1.15-.79-2.06-1.41-2.65-1.88a8.83,8.83,0,0,1-3.65-7.92,7.64,7.64,0,0,1,4.74-6c6.6-2.94,18.2,4.39,26.42,16.68,11.52,17.24,8.45,31.18,8.41,31.32a.47.47,0,0,1-.28.32l-5,1.87a.51.51,0,0,1-.17,0A.36.36,0,0,1,102.64,378.67Zm-3.47-33c-8-11.94-19.1-19.13-25.31-16.36a6.69,6.69,0,0,0-4.22,5.27A8,8,0,0,0,73,341.71c.57.45,1.47,1.06,2.6,1.84,7.15,4.88,23.8,16.25,27.64,34.13l4.3-1.61C107.83,374.21,109.65,361.38,99.17,345.69Z" style="fill:#C53F3F"></path><path d="M105.69,377.66h.06a.45.45,0,0,0,.41-.49c-1.84-21.05-18.53-39.75-28.75-42.89a.46.46,0,0,0-.57.3.45.45,0,0,0,.3.56c10.12,3.1,26.38,22.15,28.13,42.11A.44.44,0,0,0,105.69,377.66Z" style="fill:#C53F3F"></path><path d="M107.87,376.85a.42.42,0,0,0,.19,0l3.39-1.43a.45.45,0,0,0,.27-.33c0-.2,4.1-20.93-3.32-47.49-3.78-13.53-13.23-26.12-22.47-29.94-4.45-1.83-8.61-1.68-12.37.46a6.73,6.73,0,0,0-3.7,4.69c-.91,5.27,5.21,12.32,11.69,19.79,4.53,5.23,9.21,10.63,11.61,15.59a.46.46,0,0,0,.6.21.44.44,0,0,0,.21-.6c-2.45-5.07-7.18-10.52-11.74-15.79-6.34-7.3-12.32-14.2-11.49-19.05A5.85,5.85,0,0,1,74,298.87c3.51-2,7.41-2.13,11.59-.4,9,3.71,18.24,16,22,29.34,6.94,24.85,3.76,44.51,3.34,46.84L107.71,376a.46.46,0,0,0-.24.59A.45.45,0,0,0,107.87,376.85Z" style="fill:#C53F3F"></path><path d="M107.38,364h0a.45.45,0,0,0,.44-.46c-.8-32.79-21.68-56.9-27.52-60.8a.45.45,0,0,0-.62.13.44.44,0,0,0,.12.62c5.75,3.84,26.34,27.64,27.12,60.07A.47.47,0,0,0,107.38,364Z" style="fill:#C53F3F"></path></g><g id="freepik--plants--inject-5"><path d="M402.54,378.73a.57.57,0,0,1-.18,0l-5-1.87a.5.5,0,0,1-.28-.32c0-.14-3.11-14.08,8.42-31.32,8.22-12.29,19.82-19.62,26.41-16.68a7.63,7.63,0,0,1,4.75,6,8.85,8.85,0,0,1-3.65,7.92c-.59.47-1.5,1.09-2.65,1.88-7.13,4.87-23.81,16.26-27.37,34.08a.43.43,0,0,1-.22.3A.36.36,0,0,1,402.54,378.73Zm-4.66-2.66,4.31,1.61c3.84-17.88,20.49-29.25,27.63-34.13,1.14-.78,2-1.39,2.6-1.84a8,8,0,0,0,3.32-7.11,6.69,6.69,0,0,0-4.22-5.27c-6.21-2.77-17.32,4.42-25.31,16.36C395.73,361.38,397.54,374.21,397.88,376.07Z" style="fill:#C53F3F"></path><path d="M399.68,377.66h-.06a.44.44,0,0,1-.4-.49c1.84-21.05,18.52-39.75,28.75-42.89a.45.45,0,1,1,.26.86c-10.11,3.1-26.37,22.15-28.12,42.11A.45.45,0,0,1,399.68,377.66Z" style="fill:#C53F3F"></path><path d="M397.51,376.85a.42.42,0,0,1-.19,0l-3.4-1.43a.46.46,0,0,1-.26-.33c-.05-.2-4.1-20.93,3.31-47.49,3.78-13.53,13.23-26.12,22.48-29.94,4.44-1.83,8.61-1.68,12.37.46a6.76,6.76,0,0,1,3.7,4.69c.91,5.27-5.21,12.32-11.69,19.79-4.53,5.23-9.22,10.63-11.62,15.59a.45.45,0,1,1-.81-.39c2.46-5.07,7.18-10.52,11.75-15.79,6.34-7.3,12.32-14.2,11.48-19.05a5.81,5.81,0,0,0-3.25-4.06c-3.51-2-7.41-2.13-11.59-.4-9,3.71-18.24,16-22,29.34-6.94,24.85-3.77,44.51-3.35,46.84l3.17,1.34a.45.45,0,0,1,.24.59A.43.43,0,0,1,397.51,376.85Z" style="fill:#C53F3F"></path><path d="M398,364h0a.47.47,0,0,1-.44-.46c.8-32.79,21.69-56.9,27.53-60.8a.45.45,0,0,1,.5.75c-5.76,3.84-26.34,27.64-27.13,60.07A.45.45,0,0,1,398,364Z" style="fill:#C53F3F"></path></g></g><g id="freepik--Shadows--inject-5"><ellipse id="freepik--Shadow--inject-5" cx="345.11" cy="404.18" rx="81.13" ry="46.84" style="fill:#e0e0e0"></ellipse><ellipse id="freepik--shadow--inject-5" cx="160.09" cy="404.18" rx="81.13" ry="46.84" style="fill:#e0e0e0"></ellipse></g><g id="freepik--character-2--inject-5"><g id="freepik--Character--inject-5"><g id="freepik--Bottom--inject-5"><path d="M394.39,381.77c-.59-11.95-1-39.35-1.25-44.55-.89-17.52-3.2-22.57-4.56-28.6s-1.18-26.14-2.49-56c-1.07-24.69-1.81-33.27-2.43-40.74H314.74c-2.68,23.5-5.95,56.53-7,80.82-.94,21.63,3.59,53.41,1.67,65.52-.86,5.36-4.61,9.44-7.91,12.32-3.06,2.67-6.4,5-9.71,7.38-1.71,1.21-3.54,2.33-5.17,3.65-1.42,1.16-3.25,2-4.4,3.52a4.1,4.1,0,0,0-.58,4.49,5.6,5.6,0,0,0,3.47,2.08c6.6,1.87,14.08,1.79,19.91-1.83,4-2.46,6.92-6.36,10.87-8.9,3-1.94,6.61-3,9.33-5.41A8.84,8.84,0,0,0,327.3,373c1.74-3.24.63-7.12.76-10.59,0-.64.35-4.54.31-4.82.14-3,7-32,8.76-42.14a87.73,87.73,0,0,0,1.36-20.63l9.12-34.08s8.37,39.32,11.44,54.54c2.26,11.18,15.57,59.88,17.36,68.49.33,4.44,3.54,23.43,4.13,28.17,2.59,21,20,10.41,18.61,2.44C396.94,401.91,394.52,384.34,394.39,381.77Z" style="fill:#ffa8a7"></path><path d="M278.62,390.07c-.32,0-.66,3.67,1.14,5.14,2.07,1.7,8.08,4.37,15.82,3s11.85-4.05,14.86-6.88,7.23-6.82,10.72-7.77c3.24-.89,8.49-3,9.49-4.12s.68-5.72.68-5.72Z" style="fill:#263238"></path><path d="M328.37,357.58a2.41,2.41,0,0,1,1.31,1.52c.29,1.27.36,2.9,1,5a37,37,0,0,1,.61,11.22c-.34,2.4-7.36,4.74-10.71,6.23s-7.34,4.52-10.76,7.68-11.11,6.74-16.17,7c-7.74.46-12.84-1.49-14.5-4.29-2.05-3.47-1.24-7.19,7.49-11.84,1.65-.88,7.43-4.76,9.4-6.16a47.37,47.37,0,0,0,5.87-4.92,35.82,35.82,0,0,0,2.61-2.89,12.91,12.91,0,0,0,2.74-4.88c.17-.71.27-1.44.51-2.13a2.89,2.89,0,0,1,1.32-1.68,4.12,4.12,0,0,1,2.29-.19,29.3,29.3,0,0,1,7.47,1.55c2.12.83,2.72,2.54,2.89,4.71,0,.54.05,1.08.08,1.61,0,.23-.07.65.24.54s.59-.92.69-1.2c.23-.61.36-1.26.61-1.86a5.47,5.47,0,0,1,1-2c1.43-1.35,3.46-1.16,3.87-1.62C328.22,359,328.34,358,328.37,357.58Z" style="fill:#37474f"></path><path d="M286.12,380.38c11.24.29,14.73,9.39,15.38,13.79a26,26,0,0,1-7.89,2.08c-7.74.46-13.16-1.47-14.82-4.27C276.86,388.71,278.3,383.84,286.12,380.38Z" style="fill:#fafafa"></path><path d="M302.61,381.85a.49.49,0,0,0,.34-.14.58.58,0,0,0,.05-.8c-1.64-1.9-6.85-5.91-10.91-5.27a.57.57,0,0,0,.16,1.12c3.79-.59,8.63,3.4,9.93,4.91A.52.52,0,0,0,302.61,381.85Z" style="fill:#f0f0f0"></path><path d="M307.33,378.74a.53.53,0,0,0,.34-.15.57.57,0,0,0,.05-.79c-1.64-1.91-6.86-5.93-10.91-5.28a.57.57,0,0,0-.46.65.54.54,0,0,0,.62.47c3.79-.59,8.63,3.4,9.93,4.91A.56.56,0,0,0,307.33,378.74Z" style="fill:#f0f0f0"></path><path d="M311.67,375.22a.51.51,0,0,0,.34-.14.58.58,0,0,0,.05-.8c-1.64-1.9-6.87-5.91-10.91-5.27a.56.56,0,0,0-.46.64.54.54,0,0,0,.62.47c3.79-.58,8.63,3.41,9.93,4.92A.52.52,0,0,0,311.67,375.22Z" style="fill:#f0f0f0"></path><path d="M315.93,371.71a.55.55,0,0,0,.33-.13.58.58,0,0,0,.06-.8c-2.26-2.7-7.79-5.93-11.84-5.29a.57.57,0,0,0,.16,1.12c3.65-.58,8.85,2.51,10.85,4.91A.53.53,0,0,0,315.93,371.71Z" style="fill:#f0f0f0"></path><path d="M379.58,421.41c.58,5.36,1.57,8.87,3.58,11.92s5.55,3.84,9,2.72,7.88-3.84,8.65-8.54,1.2-7.9.14-12.84Z" style="fill:#263238"></path><path d="M394.39,381.77c1.46,0,1.44,7.18,2.65,14.36,1.3,7.69,2.54,10.7,3.68,17,1.29,7.2.29,10.51-1.94,15s-10.73,9.32-15.35,3.28c-3.77-4.92-4.21-10.6-4.27-17.86-.05-7.51-1-12.49-1.9-18.12-.92-5.82-2.08-11-.85-11.71.3,1.56.95,4.63,1.29,5.74.12.41.78,1.37.93-.16,0-.45-.15-1.48-.13-1.93a1.9,1.9,0,0,1,1.23-1.81,13.64,13.64,0,0,1,6.12-1.75c2.84-.18,5.29-.41,6.92.33,1,.45,1,1.39,1.16,2.3.18,1.09.23,1.76.47,1.53C394.9,387.54,394.28,382.55,394.39,381.77Z" style="fill:#37474f"></path><path d="M401.34,417.32a18.63,18.63,0,0,1-2.15,11.17c-2.24,4.53-11.44,9.38-16.06,3.34-2.3-3-3.06-6.67-3.55-10.43C381.91,416.42,397.06,413.42,401.34,417.32Z" style="fill:#fafafa"></path><path d="M382.35,413.34a.49.49,0,0,0,.17-.06c.06,0,6.64-3.29,13.27-2.09a.56.56,0,0,0,.19-1.1c-7-1.26-13.73,2.07-14,2.21a.56.56,0,0,0-.21.75A.54.54,0,0,0,382.35,413.34Z" style="fill:#f0f0f0"></path><path d="M395.19,405.8a.53.53,0,0,0,.43-.4.56.56,0,0,0-.37-.69c-6.64-1.91-13.7,1.92-14,2.08a.56.56,0,0,0-.19.76.53.53,0,0,0,.74.2c.06,0,6.94-3.75,13.12-2A.59.59,0,0,0,395.19,405.8Z" style="fill:#f0f0f0"></path><path d="M394.69,400.71a.53.53,0,0,0,.44-.39.57.57,0,0,0-.36-.69c-7.31-2.25-14,1.88-14.23,2.05a.58.58,0,0,0-.15.78.54.54,0,0,0,.76.14c.05,0,6.5-4,13.3-1.9A.49.49,0,0,0,394.69,400.71Z" style="fill:#f0f0f0"></path><path d="M394.08,395.72a.58.58,0,0,0,.43-.39.57.57,0,0,0-.35-.7c-6.86-2.22-14.05,2-14.32,2.22a.57.57,0,0,0-.16.77.53.53,0,0,0,.75.16c.06,0,7-4.15,13.4-2.08A.71.71,0,0,0,394.08,395.72Z" style="fill:#ebebeb"></path><path d="M383.87,211.87l-71.44-10.18c-3.5,19.7-6.77,55.69-8.06,79.2,3.85,10.35,28.46,14.36,37.21,10.53l5.08-21.9s2.31,12.49,4,24.19c2.18,1.68,6,5.45,20.44,4.13,16.38-1.5,17.86-6.18,18.95-7.81-.54-10.37-2.08-33.33-2.6-40.75C386.22,232.34,384.93,218.46,383.87,211.87Z" style="fill:#37474f"></path><path d="M346.66,269.52l-4.19-37.17s-10.5-3-17.14-10.48c.41,5.46,9.67,12.61,14,13.77L344,269l-2.38,22.44Z" style="fill:#263238"></path></g><g id="freepik--Top--inject-5"><g id="freepik--Arm--inject-5"><path d="M423,45.16c1.26,1.79,4.08.61,5.68,1.71a1.55,1.55,0,0,1-.16,2.7c-1.13.69-2.52.51-3.78.7a10.38,10.38,0,0,0-4.06,1.65c-2.61,1.67-6,3.1-9,1.53a10.66,10.66,0,0,0,1.77-1.3C416.66,49.82,419.86,47.5,423,45.16Z" style="fill:#f28f8f"></path><path d="M446.55,37.19c-.1-.23-.41-.26-.65-.21a8.26,8.26,0,0,1-1,.14,4.47,4.47,0,0,0-1.11.21,1.65,1.65,0,0,0,.14-.65c0-.22,0-.7-.17-.84a2.34,2.34,0,0,0-1.06-.26l-3.38-.41c-2-.24-3.83-.81-5.66-.55s-3.58.32-6.29.49a42.44,42.44,0,0,0-8,.75c-2,.43-9.12,2.27-13,3.22-11.84,2.9-38.07,8.57-44.73,11.78s-9.12,3.94-13.38,15c-4.32,11.24-8.22,23.2-13.23,43.85-3.82,15.76-4.11,17.74-7.55,30.22.75,4.54,9.86-6.81,17.53-12.88,10.4-8.23,17.5-16.17,17.83-19.13.59-5.31.07-7.12.88-12.11,1-6.35,7.29-24.92,7.29-24.92s12.1-6.33,19.55-10.57c8.87-5,15.59-10,18.86-7.77,2.76,1.76,4.94.77,7-.67s3.74-4,5.23-5.53c2.2-2.24,3.37-2,5.09-2.42a14.94,14.94,0,0,0,4.39-1.82,3.52,3.52,0,0,1,.73.13c.25,0,.49,0,.74.06.51,0,1,0,1.53,0l1.19,0a13.1,13.1,0,0,0,1.79-.14c.54-.09,1.07-.25,1.62-.33a22.34,22.34,0,0,0,2.7-.32,1.92,1.92,0,0,0,1.23-.82,2.06,2.06,0,0,1,.25-.4,1,1,0,0,1,.32-.18,9.19,9.19,0,0,0,2.24-1,3.05,3.05,0,0,0,1-1.51A.58.58,0,0,0,446.55,37.19Z" style="fill:#ffa8a7"></path><path d="M438.47,41.89a18.37,18.37,0,0,1-7,.09.81.81,0,0,0-.49.07,12.34,12.34,0,0,1-3.74,1.66c-.89.21-2.1.48-2.91.64l.29-.17c.36-.2.7-.41,1.06-.6a18.13,18.13,0,0,1,2.23-1,5.37,5.37,0,0,0-2.4.69,8,8,0,0,0-1.71,1.29,6.18,6.18,0,0,0-1.78,1.2c-1.15,1.13-2.33,2.67-3.62,4.06a7.28,7.28,0,0,1-4.09,1.07,7.76,7.76,0,0,1-2.12-.48,21.07,21.07,0,0,1-2.1-1.25,6.1,6.1,0,0,0,1.8,1.55,6,6,0,0,0,2.3.74,5.76,5.76,0,0,0,4-1.41c-2.42,2.57-5.19,4.56-8.74,2.55,2.73,2.16,6.18.6,8.43-1.51,2.26-1.91,3.67-5,6.42-6.21.63-.18,1.58-.33,3.06-.7a10.22,10.22,0,0,0,3.91-1.72l.23,0a18.4,18.4,0,0,0,6.94-.34c1.38-.38,3.36,0,4.25-1.37C441.69,42,439.91,41.6,438.47,41.89Z" style="fill:#f28f8f"></path><path d="M433.55,39.18a2.17,2.17,0,0,1,.82-.34,3.07,3.07,0,0,1,.68.06,5.12,5.12,0,0,0,2.84-.37,2.21,2.21,0,0,1,.64-.22,2.69,2.69,0,0,1,.69.06,7,7,0,0,0,2.5-.2,3,3,0,0,0,.61-.16,1.29,1.29,0,0,0,.32-.19,6.38,6.38,0,0,1-2.12.36,10.26,10.26,0,0,1-2-.29l-.09,0-.12.05a7.07,7.07,0,0,1-1,.35,8.59,8.59,0,0,1-1,.2,6.47,6.47,0,0,1-2.06-.06l-.21,0-.11.1a4.64,4.64,0,0,1-.64.48,6.37,6.37,0,0,1-.72.41,5.84,5.84,0,0,1-.76.34,7.08,7.08,0,0,1-.82.24A4.21,4.21,0,0,0,433.55,39.18Z" style="fill:#f28f8f"></path><path d="M442.33,40.39c.17,0,.33-.11.49-.13a9.24,9.24,0,0,1-1.66-.09l-.34,0-.37.05a8.32,8.32,0,0,1-1.85.25,5.58,5.58,0,0,1-2-.42l-.19-.08-.15.13a5.72,5.72,0,0,1-.92.63,9,9,0,0,1-1,.51,10.32,10.32,0,0,1-1.11.37,11.06,11.06,0,0,1-1.17.27,6.79,6.79,0,0,0,3-.64c.29-.15.57-.31.85-.47s.49-.38.73-.34l.12.05a3.5,3.5,0,0,0,2.06.35c.67-.08,1.31-.36,2-.4.33,0,.66,0,1,0A3.08,3.08,0,0,0,442.33,40.39Z" style="fill:#f28f8f"></path></g><path id="freepik--Chest--inject-5" d="M367.3,117.65s1.73,1.34,10.6,5.28c7.69,3.42,24.91,12.64,24.91,12.64S412,150.62,400.47,165c-1.24,1.54-12.92,11.74-14.57,20.73-1.73,9.4-1.93,17.07-1.37,28.58,0,0-15.47,12.53-44.43,7C317.71,217.09,311.83,202,311.83,202s3.26-26.24,8.51-42.17c4.27-12.92,8.83-25.29,13-31.41,9.55-14.21,29.62-20.52,29.62-20.52C363.38,112.12,364.85,115.6,367.3,117.65Z" style="fill:#C53F3F"></path><g id="freepik--Head--inject-5"><path d="M385.9,75.92s-3.12-1.36-7.09,1.38c-2,1.38-4.54,4.47-7.09,15.82a45.21,45.21,0,0,0-1,13.46,5.54,5.54,0,0,0,1.64,3.78l3.84-7.73,2.53-5.45s6.34-1.62,8.73-5.24c3.07-4.66,2.63-8.45,2.63-8.45Z" style="fill:#263238"></path><path d="M384.94,74.94c3-3.89,11.15-6.12,21.92-1.13,8.83,4.09,12,9.72,12.62,16.29.69,7.28-5.07,12-5.07,12l-26-16Z" style="fill:#263238"></path><path d="M368.24,100.48c2.93,4,6.38,1.85,6.38,1.85l-7.73,16c-11.6,5.68,8,17.08,20.1,9.22l1.88-3.6a26.39,26.39,0,0,0,3.6,1.48c3.79,1.3,7.42,1.66,11.3-3,4.85-5.84,9.05-13.94,12-24.59.57-2.06.84-4.49-.4-6.22-3.1-4.29-8.56-3.36-15.61-4.18-2.92-.34-9-3-10.17-4.58.84,3.33-2.18,9.53-6.72,10.83-.18.24-1.46,2.58-3.17,2.58-1.92,0-1.52-3.51-2-5.2A5,5,0,0,0,370,89,8.1,8.1,0,0,0,368.24,100.48Z" style="fill:#ffa8a7"></path><path d="M388.87,124c-4.57-2.45-8.34-5.17-10.44-7.75s-2.56-7.51-1.42-11.55c-1.55,2.92-3,8.78-.05,13.11s7.68,7,10.64,8.62Z" style="fill:#f28f8f"></path><path d="M396.49,92.77l-4.73.56a2.5,2.5,0,0,1,2.15-2.7A2.32,2.32,0,0,1,396.49,92.77Z" style="fill:#263238"></path><path d="M411.72,100.74l-3.11-3.65a2.29,2.29,0,0,1,3.33.19A2.52,2.52,0,0,1,411.72,100.74Z" style="fill:#263238"></path><path d="M392.53,97.41a1.93,1.93,0,1,0,2.59-.9A1.94,1.94,0,0,0,392.53,97.41Z" style="fill:#263238"></path><path d="M405.71,102.69a1.94,1.94,0,1,0,2.59-.9A1.77,1.77,0,0,0,405.71,102.69Z" style="fill:#263238"></path><path d="M401.93,98l-4.37,11.66,6.89.93A29,29,0,0,0,401.93,98Z" style="fill:#f28f8f"></path><path d="M390.8,108.4l4.9,5.12a3.48,3.48,0,0,1-5,0A3.7,3.7,0,0,1,390.8,108.4Z" style="fill:#b16668"></path><path d="M390.86,109.81a4,4,0,0,0-.72-.47,3.65,3.65,0,0,0,.55,4.21,3.25,3.25,0,0,0,.92.66A3.24,3.24,0,0,0,390.86,109.81Z" style="fill:#f28f8f"></path></g><g id="freepik--arm--inject-5"><g id="freepik--arm--inject-5"><path d="M390.52,232.66c1.8-.94,3.92-1.59,5.15-3.32a3.51,3.51,0,0,0,.59-3.1,1.53,1.53,0,0,1-.16-.66,1.28,1.28,0,0,1,.22-.51,3.77,3.77,0,0,0,.64-2.24,2.38,2.38,0,0,0-1-1.68,5.52,5.52,0,0,0,1.16-3.31c0-1.41-.91-2.87-2.26-1.78a12.82,12.82,0,0,0-1.77,1.84,27.86,27.86,0,0,0-3.36,5.4c-.95,2-3.56,7.69-.45,9.12C389.56,232.53,390.26,232.8,390.52,232.66Z" style="fill:#f28f8f"></path><path d="M402.81,135.57c9.55,4.87,11.78,7,18.59,22.88,5.18,12.07,12.37,27.76,12.9,33.52.65,7.13.4,9.69-8.47,13.84-4.58,2.14-10.72,4.45-17.12,7.24-5.06,2.2-11,4.34-15.94,6.71a3.55,3.55,0,0,0-2.35,3,24.57,24.57,0,0,1-.24,2.71,23.18,23.18,0,0,1-1.44,3.18,3.06,3.06,0,0,0,.27,3.3,3.45,3.45,0,0,0,1.51.74,11.73,11.73,0,0,1-3.61.56,4.86,4.86,0,0,1-3.33-1.32c-.83-.85-1.25-2.07-2.2-2.78-.52-.38-1.15-.57-1.67-.94a3,3,0,0,1-1.17-1.54c-.34-1-.19-2.19-.89-3a13.06,13.06,0,0,0-1.17-.91,3.19,3.19,0,0,1-.87-2.81,9,9,0,0,1,1.1-2.84,74,74,0,0,1,3.9-6.44,11.85,11.85,0,0,1,2.44-2.46c.88-.62,1.75-1.28,2.66-1.86,6.19-3.88,26.15-17.08,26.15-17.08l-14-23a11.42,11.42,0,0,1-1.63-4.94C395.65,155.45,395.35,141.94,402.81,135.57Z" style="fill:#ffa8a7"></path><path d="M390.52,232.66c-2.74.86-6.33.87-7.74-2.08a5.14,5.14,0,0,0-1.48-1.71c-1.34-.67-2.6-1.38-2.73-3a5.14,5.14,0,0,0-.63-2.21c-.53-.69-1.3-.89-1.63-1.47a3.09,3.09,0,0,1-.47-2c.72-3.41,3.33-6.62,5.14-9.59,1.21-1.86,3.3-2.8,5-4.13l3.71-2.44c7.19-4.72,15.09-10,22.16-14.8-7.24,4.52-15.24,9.67-22.45,14.34L385.69,206c-1.76,1.33-4,2.35-5.19,4.28s-2.41,3.75-3.49,5.7a11.13,11.13,0,0,0-1.68,4.19,3.54,3.54,0,0,0,.57,2.27c.47.72,1.3.95,1.67,1.46a4.69,4.69,0,0,1,.59,2,3.51,3.51,0,0,0,1,2.06,9.73,9.73,0,0,0,1.93,1.15c1.24.78,1.64,2.46,2.91,3.28,1.93,1.31,4.41.87,6.49.23Z" style="fill:#f28f8f"></path><path d="M411.86,189.27c2.43,5,8.16,7.43,10.35,8.07a13.1,13.1,0,0,1-12.16-6.88Z" style="fill:#f28f8f"></path></g></g></g></g></g><g id="freepik--character-1--inject-5"><g id="freepik--character--inject-5"><g id="freepik--bottom--inject-5"><path d="M111.05,380.41c1.13-11.64,2.79-38.37,3.29-43.45,1.69-17.06,4.18-21.89,5.78-27.71s-.48-21.64-.05-50.86c.28-18.86,5.38-27.35,10-40.27h64.53c2.78,23.87,5.34,55.57,5.23,79.34-.09,21.16-6,52-4.67,63.9.58,5.27,4.06,9.43,7.14,12.39,2.87,2.75,6,5.21,9.14,7.66,1.61,1.26,3.35,2.44,4.88,3.81,1.33,1.2,3.07,2.14,4.13,3.64a4,4,0,0,1,.36,4.4,5.49,5.49,0,0,1-3.49,1.88c-6.53,1.51-13.83,1.09-19.36-2.71-3.77-2.6-6.45-6.54-10.19-9.2-2.87-2-6.31-3.28-8.86-5.72A8.74,8.74,0,0,1,177,375c-1.54-3.24-.28-7-.24-10.37,0-.63-.14-4.45-.08-4.72,0-2.94-5.32-31.56-6.59-41.55a86,86,0,0,1-.37-20.21l-7.32-33.7s-10,38-13.71,52.72c-2.73,10.81-18,57.74-20.14,66.06-.52,4.33-4.54,22.72-5.34,27.32-3.51,20.36-20,9.24-18.28,1.52C107.62,400,110.81,382.91,111.05,380.41Z" style="fill:#ffa8a7"></path><path d="M223.7,393.89c.31,0,.48,3.62-1.35,5-2.1,1.56-8.09,3.89-15.58,2.18s-11.39-4.51-14.2-7.41-6.74-7-10.1-8.09c-3.12-1-8.15-3.35-9.08-4.46s-.4-5.62-.4-5.62Z" style="fill:#263238"></path><path d="M176.64,359.86a2.32,2.32,0,0,0-1.35,1.42c-.34,1.23-.49,2.82-1.17,4.82A36.34,36.34,0,0,0,173,377c.22,2.35,7,5,10.17,6.57a42.61,42.61,0,0,1,10.15,8c3.3,3.36,10.53,7.09,15.46,7.62,7.54.81,12.6-.85,14.36-3.51,2.16-3.29,1.54-7-6.77-11.91-1.57-.94-7-5-8.88-6.45a44.84,44.84,0,0,1-5.51-5.08,35.87,35.87,0,0,1-2.41-2.94,12.58,12.58,0,0,1-2.45-4.9,21,21,0,0,0-.4-2.1,2.86,2.86,0,0,0-1.21-1.7,3.92,3.92,0,0,0-2.23-.29,29.13,29.13,0,0,0-7.36,1.16c-2.11.72-2.78,2.36-3,4.47-.06.52-.1,1-.15,1.57,0,.22,0,.63-.26.51s-.53-.92-.62-1.2c-.19-.61-.29-1.25-.5-1.85a5.43,5.43,0,0,0-.92-2c-1.33-1.38-3.32-1.29-3.7-1.76C176.72,361.26,176.65,360.3,176.64,359.86Z" style="fill:#37474f"></path><path d="M216.83,384.08c-11-.23-14.82,8.49-15.66,12.75a25.26,25.26,0,0,0,7.61,2.4c7.54.81,12.91-.82,14.67-3.48C225.49,392.65,224.31,387.83,216.83,384.08Z" style="fill:#fafafa"></path><path d="M200.66,384.76a.49.49,0,0,1-.33-.16.57.57,0,0,1,0-.78c1.69-1.78,7-5.45,10.9-4.64a.55.55,0,0,1,.42.65.53.53,0,0,1-.63.43c-3.67-.74-8.58,2.92-9.92,4.34A.55.55,0,0,1,200.66,384.76Z" style="fill:#f0f0f0"></path><path d="M196.2,381.5a.57.57,0,0,1-.33-.16.56.56,0,0,1,0-.78c1.68-1.78,7-5.46,10.89-4.64a.55.55,0,0,1,.42.65.54.54,0,0,1-.63.43c-3.67-.75-8.58,2.92-9.92,4.33A.52.52,0,0,1,196.2,381.5Z" style="fill:#f0f0f0"></path><path d="M192.12,377.86a.5.5,0,0,1-.32-.15.55.55,0,0,1,0-.78c1.68-1.79,7-5.46,10.89-4.65a.55.55,0,0,1,.42.65.54.54,0,0,1-.63.44c-3.66-.75-8.58,2.92-9.92,4.33A.5.5,0,0,1,192.12,377.86Z" style="fill:#f0f0f0"></path><path d="M188.13,374.24a.53.53,0,0,1-.32-.15.57.57,0,0,1,0-.78c2.33-2.54,7.88-5.43,11.81-4.62a.55.55,0,0,1,.42.65.54.54,0,0,1-.63.44c-3.53-.73-8.76,2-10.82,4.29A.54.54,0,0,1,188.13,374.24Z" style="fill:#f0f0f0"></path><path d="M123.67,419.8c-.82,5.2-2,8.59-4.06,11.47s-5.59,3.5-8.94,2.24-7.51-4.12-8-8.74-.81-7.77.46-12.54Z" style="fill:#263238"></path><path d="M111.05,380.41c-1.43,0-1.74,6.94-3.26,13.89-1.63,7.46-3,10.34-4.38,16.44-1.59,7-.77,10.25,1.2,14.77s10,9.6,14.83,3.92c3.91-4.64,4.6-10.15,5-17.24a105.77,105.77,0,0,1,2.7-17.61c1.16-5.64,2.54-10.68,1.37-11.4-.36,1.52-1.14,4.49-1.52,5.55-.14.39-.83,1.3-.9-.2,0-.44.21-1.44.21-1.88a1.83,1.83,0,0,0-1.11-1.82,13.3,13.3,0,0,0-5.9-2c-2.77-.3-5.15-.65-6.77,0-1,.39-1,1.31-1.24,2.19-.22,1.05-.3,1.71-.53,1.47C110.28,386,111.12,381.18,111.05,380.41Z" style="fill:#37474f"></path><path d="M102.61,414.79a18.26,18.26,0,0,0,1.58,11c2,4.52,10.73,9.68,15.52,4,2.39-2.83,3.3-6.37,4-10C121.63,414.82,107,411.19,102.61,414.79Z" style="fill:#fafafa"></path><path d="M121.34,411.79a.41.41,0,0,1-.17-.07s-6.33-3.51-12.86-2.65a.55.55,0,0,1-.59-.48.54.54,0,0,1,.46-.6c6.91-.91,13.31,2.65,13.54,2.8a.56.56,0,0,1,.18.75A.52.52,0,0,1,121.34,411.79Z" style="fill:#f0f0f0"></path><path d="M109.15,403.83a.51.51,0,0,1-.4-.41.54.54,0,0,1,.39-.65c6.57-1.56,13.29,2.51,13.54,2.68a.55.55,0,0,1,.15.75.53.53,0,0,1-.73.16c-.06,0-6.61-4-12.72-2.53A.45.45,0,0,1,109.15,403.83Z" style="fill:#f0f0f0"></path><path d="M109.87,398.89a.53.53,0,0,1-.4-.4.55.55,0,0,1,.38-.66c7.24-1.86,13.57,2.48,13.8,2.66a.56.56,0,0,1,.1.77.51.51,0,0,1-.74.1c-.05,0-6.16-4.2-12.9-2.47A.49.49,0,0,1,109.87,398.89Z" style="fill:#f0f0f0"></path><path d="M110.71,394a.55.55,0,0,1-.41-.4.55.55,0,0,1,.38-.66c6.8-1.85,13.62,2.63,13.88,2.82a.56.56,0,0,1,.12.76.51.51,0,0,1-.74.13c-.06,0-6.68-4.38-13-2.66A.49.49,0,0,1,110.71,394Z" style="fill:#ebebeb"></path><path d="M127,218.4c-1.18,2.94-4.35,6.94-6.85,23-2,13-.55,65.4-.55,65.4a99.25,99.25,0,0,0-6.19,26.89c-1.18,14.78-1.43,36.1-1.43,36.1a15.73,15.73,0,0,0,9.3,5.62c6.45,1.43,9.81-.9,9.81-.9s16.06-42.13,19.7-57.24,11.31-48.78,11.31-48.78l6,28.93a76.87,76.87,0,0,0-.18,19.5c1.32,10,7.59,34.33,7.59,34.33a21.86,21.86,0,0,0,11.77,2.59c6.32-.6,8.1-4.78,8.1-4.78s5.18-35.71,5.65-49.17,2.2-61.6-5.95-89.57Z" style="fill:#37474f"></path><path d="M162.06,268.52,168,240.26s10.39-2.5,17.22-9.44c-.66,5.31-10,11.86-14.35,12.79l-4.81,24.3,2,29.54Z" style="fill:#263238"></path></g><g id="freepik--top--inject-5"><path d="M177.19,142.57c-4.67-4-17.13-19.81-21.27-28S138.16,81.79,134.43,76.1,129.26,68,115.74,57C108.86,51.47,94,39.73,90.21,36.91S83.31,33.39,80,34.6s-6.6,3.73-8.27,4.53c-2.93,1.38-4,2.71-2.76,3.92a27.18,27.18,0,0,1-6.56,2.42c-3.79.86-7.41.86-7.76,2.24s1.58,2.49,1.58,2.49-1,.9,2,2.31,8.51,1.23,15.24-.49,8.62-4.83,10.18-4,24.13,27.09,26.72,30.54,28.3,57.46,28.3,57.46Z" style="fill:#f28f8f"></path><path d="M78.84,40.56a1.64,1.64,0,0,0-.85,0,16.53,16.53,0,0,0-3.89,1.75,10.29,10.29,0,0,1-1.41.6,5.16,5.16,0,0,1-1.33.37,6.53,6.53,0,0,1-2.29-.17,3,3,0,0,0,2.14.46,10.87,10.87,0,0,0,3-.89c1-.39,1.9-.91,2.87-1.34a15.68,15.68,0,0,1,1.92-.7A.66.66,0,0,0,78.84,40.56Z" style="fill:#b16668"></path><path d="M126,136.8a4.55,4.55,0,0,1-4.76,0s-9.84,7.08-10.74,15.74,2.24,16,5.66,19.93,13.19,19.67,14.31,25.15c1.49,7.32-.12,11.79-3.55,20.75,0,0,13.72,6.9,33.57,6.15,31.25-1.17,34.47-14.2,34.47-14.2s-1.81-10.07-4.48-21.71c-2.39-10.43-4.6-18-4.6-18s6.13-10.95-.15-22c-8.49-14.9-39.71-17.77-39.71-17.77Z" style="fill:#C53F3F"></path><g id="freepik--head--inject-5"><path d="M88,96.82a4.18,4.18,0,0,0,1,2c1.27,1.31,3.54,1.53,3.78,3.82.17,1.55-1.78,2.51-3.26,2.45.73,2.8,4.52,1.43,6,.37.78,1.83,1.31,2.52,3.51,2.55,3.33,0,4.69-1.47,6.13-4.12,1.31-2.39,4.32-1.92,6.64-2.87,2.64-1.07,3.75-3.59,3.42-6.41-.19-1.63-2.22-3.11-2.08-4.59.31-3.13,5.71-2,7.24-4,2.1-2.78-.28-7.4-3.55-8-1-.17-2.1.38-3.07.22s-1.49-1-2.11-1.77a8.73,8.73,0,0,0-8.33-3.39A7.39,7.39,0,0,0,99.9,74.5c-1.14.94-1.54,2.4-2.6,3.38-2,1.88-5.32,1.63-6.76,4.4a4.86,4.86,0,0,0-.3,3.81c.29.9,1.21,1.59,1.22,2.52,0,1.74-2.29,3-3,4.4A6,6,0,0,0,88,96.82Z" style="fill:#37474f"></path><path d="M125.94,135.72c-.16-.16,1.49-3.08,1.6-3.31q4.62-9.57,9.25-19.12l5.1-10.56c.93-1.92,1.58-4.28,3.65-5.27A7.39,7.39,0,0,1,150,97a5.87,5.87,0,0,0,5.49-1.78,3.07,3.07,0,0,0,.68-3,11.53,11.53,0,0,0-.49-1.17,2,2,0,0,1-2.36,2.15c-1.16-.17-1.58-1.05-2.11-2.05s-.86-2.49-1.87-3.22a2.52,2.52,0,0,0-2.88-.12,31,31,0,0,0,.63-3.92,7.76,7.76,0,0,0-1-3.67c-1.1-2-3.19-2.64-5.27-3-2.49-.46-4.48.33-6.79,1.18-1.61.59-3.13,1.46-4.8,1.9-1.42.37-3,.49-4.4.75a31.32,31.32,0,0,0-10.54,4.26c-16.77,10.2-14.16,28.38-8.32,36.06C114.05,132,119.92,129.17,125.94,135.72Z" style="fill:#37474f"></path><path d="M153.38,103.51c6.09,13.72,3,18.53,1.24,20.53s-4.5,3.31-9,4.57l2,6.22c8.7,5-6.89,15.09-21.56,1.9l-3.15-12s-.65,3-5.18,2.57c-4.34-.44-7.36-5.87-6.66-9.11a4.46,4.46,0,0,1,6.79-2.6,6.26,6.26,0,0,1,1.79,2.24c.32.53.59,1.3,1.12,1.33,2.43.16,2.87-3.41,2-5.67,1.4-2.38,1.74-4.74-.07-8.41,2.39.27,5.34-2.3,6.56-4.35,2.11-3.53,1.33-5.86,1.25-8.94s2.59-4.62,5.36-4.91a12,12,0,0,1,8,2.57,20.74,20.74,0,0,1,3.55,4.08A49,49,0,0,1,153.38,103.51Z" style="fill:#ffa8a7"></path><path d="M145.66,128.61c-3.95.83-8.39,1.39-12,.67a13.67,13.67,0,0,1-6.47-3.45s2.88,5,6.65,6.06,12.67-.57,12.67-.57Z" style="fill:#f28f8f"></path><path d="M136,108c.57,1-.85.15-1.78.69s-1,2.23-1.58,1.27a1.95,1.95,0,1,1,3.36-2Z" style="fill:#263238"></path><path d="M147.61,102.33c.24,1.09-.86-.11-1.91.11s-1.65,1.8-1.89.71a1.95,1.95,0,1,1,3.8-.82Z" style="fill:#263238"></path><polygon points="138.88 103.42 146.43 114.21 150.89 109.02 138.88 103.42" style="fill:#f28f8f"></polygon><path d="M132,103.59l-3.1,4.12a2.7,2.7,0,0,1-.51-3.71A2.52,2.52,0,0,1,132,103.59Z" style="fill:#263238"></path><path d="M146.48,97.06l-5.14-.73a2.48,2.48,0,0,1,2.84-2.24A2.73,2.73,0,0,1,146.48,97.06Z" style="fill:#263238"></path><path d="M146.19,118.06a.44.44,0,0,0-.5-.13,8.17,8.17,0,0,1-2.6.75,5.31,5.31,0,0,1-2.29-.43c-.06,0-.05.09,0,.11a3,3,0,0,0,2.39.93,7.48,7.48,0,0,0,3-.78C146.37,118.43,146.28,118.17,146.19,118.06Z" style="fill:#b16668"></path></g><path d="M121.28,136.83c-5.84-5.5-27-28.8-30.66-34s-15.45-38.71-16.22-41-2.68-4.08,1.54-5.93l.71-.33a25.35,25.35,0,0,0,7-5.39A32.14,32.14,0,0,0,86.29,47c.36-.49.71-1,1-1.52A7,7,0,0,0,88,43.79a10.41,10.41,0,0,1,.83-1.39A2.47,2.47,0,0,0,89,40.48a3.09,3.09,0,0,1-.27-.81c0-.68.61-1.3.42-2a1,1,0,0,0-.84-.68c-1.47-.3-3,.62-4.14,1.36-2.06,1.29-3.73,2.38-5.25,3.35-1.71-.51-5.51,3.42-9.3,5-5.67,2.42-10.34,1.87-11.76,6.85-.38,1.34.49,4.29,2.56,15.12s5.63,31.8,8.67,41.93c1.67,5.59,2.44,7.94,9.25,16.32,8.58,10.56,33.37,39.12,37.9,45.5s11.48,2,12.66-6.78S129,144.07,121.28,136.83Z" style="fill:#ffa8a7"></path><path d="M72.84,50a1.68,1.68,0,0,1,.39-.76,16.68,16.68,0,0,1,3.3-2.71,10.85,10.85,0,0,0,1.17-1,6,6,0,0,0,.92-1,6.94,6.94,0,0,0,.87-2.13,3,3,0,0,1-.55,2.12,10.7,10.7,0,0,1-2.14,2.32c-.79.71-1.67,1.3-2.48,2a16.44,16.44,0,0,0-1.48,1.41A.74.74,0,0,1,72.84,50Z" style="fill:#f28f8f"></path><path d="M168,172.54c-.59,7.21-18.61,15.6-32.71,3.7,1.76,5.2,9,10,17.07,9.73C159.14,185.76,168.11,180.94,168,172.54Z" style="opacity:0.1"></path></g></g></g></svg>
